<svg width="511" height="361.86773" viewBox="518.5 -6.712815 511 361.86773" fill="none" xmlns="http://www.w3.org/2000/svg">
<mask id="mask0_1264_4885" style="mask-type:alpha" maskUnits="userSpaceOnUse" x="0" y="0" width="1056" height="348">
<rect width="1056" height="348" rx="6" fill="#1A817C"/>
</mask>
<g mask="url(#mask0_1264_4885)">
<path d="M869.5 175.233C869.5 228.598 826.738 271.849 774 271.849C721.262 271.849 678.5 228.598 678.5 175.233C678.5 121.867 721.262 78.6163 774 78.6163C826.738 78.6163 869.5 121.867 869.5 175.233Z" stroke="#7AC0BE"/>
<path d="M909.5 175.233C909.5 250.946 848.829 312.314 774 312.314C699.171 312.314 638.5 250.946 638.5 175.233C638.5 99.5191 699.171 38.1511 774 38.1511C848.829 38.1511 909.5 99.5191 909.5 175.233Z" stroke="#7AC0BE"/>
<path d="M949.5 175.233C949.5 273.294 870.921 352.779 774 352.779C677.079 352.779 598.5 273.294 598.5 175.233C598.5 77.1708 677.079 -2.31396 774 -2.31396C870.921 -2.31396 949.5 77.1708 949.5 175.233Z" stroke="#7AC0BE"/>
<path d="M989.5 175.233C989.5 295.643 893.012 393.244 774 393.244C654.988 393.244 558.5 295.643 558.5 175.233C558.5 54.8226 654.988 -42.7791 774 -42.7791C893.012 -42.7791 989.5 54.8226 989.5 175.233Z" stroke="#7AC0BE"/>
<path d="M1029.5 174.221C1029.5 316.979 915.103 432.698 774 432.698C632.897 432.698 518.5 316.979 518.5 174.221C518.5 31.4627 632.897 -84.2559 774 -84.2559C915.103 -84.2559 1029.5 31.4627 1029.5 174.221Z" stroke="#7AC0BE"/>
<g filter="url(#filter0_d_1264_4885)">
<ellipse cx="774" cy="175.233" rx="56" ry="56.6512" fill="#4DA7A6"/>
</g>
<path fill-rule="evenodd" clip-rule="evenodd" d="M772 191.419C772 192.536 772.895 193.442 774 193.442C775.105 193.442 776 192.536 776 191.419H792C793.105 191.419 794 190.513 794 189.395V161.07C794 159.952 793.105 159.047 792 159.047H778C776.463 159.047 775.062 159.631 774 160.592C772.938 159.631 771.537 159.047 770 159.047H756C754.895 159.047 754 159.952 754 161.07V189.395C754 190.513 754.895 191.419 756 191.419H772ZM758 163.093V187.372H772V165.116C772 163.999 771.105 163.093 770 163.093H758ZM776 165.116V187.372H790V163.093H778C776.895 163.093 776 163.999 776 165.116Z" fill="white"/>
</g>
<defs>
<filter id="filter0_d_1264_4885" x="694" y="110.581" width="160" height="161.302" filterUnits="userSpaceOnUse" color-interpolation-filters="sRGB">
<feFlood flood-opacity="0" result="BackgroundImageFix"/>
<feColorMatrix in="SourceAlpha" type="matrix" values="0 0 0 0 0 0 0 0 0 0 0 0 0 0 0 0 0 0 127 0" result="hardAlpha"/>
<feOffset dy="16"/>
<feGaussianBlur stdDeviation="12"/>
<feComposite in2="hardAlpha" operator="out"/>
<feColorMatrix type="matrix" values="0 0 0 0 0.12549 0 0 0 0 0.172549 0 0 0 0 0.34902 0 0 0 0.1 0"/>
<feBlend mode="normal" in2="BackgroundImageFix" result="effect1_dropShadow_1264_4885"/>
<feBlend mode="normal" in="SourceGraphic" in2="effect1_dropShadow_1264_4885" result="shape"/>
</filter>
</defs>
</svg>
