<svg width="80" height="80" viewBox="0 0 80 80" fill="none" xmlns="http://www.w3.org/2000/svg">
<path d="M6 23C6 21.3431 7.34315 20 9 20H71C72.6569 20 74 21.3431 74 23V63C74 64.6569 72.6569 66 71 66H9C7.34314 66 6 64.6569 6 63V23Z" fill="url(#paint0_linear_6778_2779)" style="mix-blend-mode:multiply"/>
<mask id="path-2-inside-1_6778_2779" fill="white">
<path fill-rule="evenodd" clip-rule="evenodd" d="M13.9945 15.0713C12.8921 15.0743 12 15.9689 12 17.0713L12.0001 58C12.0001 59.1046 12.8955 60 14.0001 60H40L65.9999 60C67.1045 60 67.9999 59.1046 67.9999 58L68 17.0713C68 15.9689 67.1079 15.0743 66.0055 15.0713L46.0165 15.0165C42.6963 15.0074 40 17.6964 40 21.0165C40 17.6963 37.3037 15.0074 33.9835 15.0165L13.9945 15.0713Z"/>
</mask>
<path fill-rule="evenodd" clip-rule="evenodd" d="M13.9945 15.0713C12.8921 15.0743 12 15.9689 12 17.0713L12.0001 58C12.0001 59.1046 12.8955 60 14.0001 60H40L65.9999 60C67.1045 60 67.9999 59.1046 67.9999 58L68 17.0713C68 15.9689 67.1079 15.0743 66.0055 15.0713L46.0165 15.0165C42.6963 15.0074 40 17.6964 40 21.0165C40 17.6963 37.3037 15.0074 33.9835 15.0165L13.9945 15.0713Z" fill="white" fill-opacity="0.8"/>
<path d="M12 17.0713H11V17.0713L12 17.0713ZM13.9945 15.0713L13.9973 16.0713L13.9945 15.0713ZM12.0001 58H13.0001H12.0001ZM40 60V59V60ZM65.9999 60V61V60ZM67.9999 58H66.9999H67.9999ZM68 17.0713L67 17.0713V17.0713L68 17.0713ZM66.0055 15.0713L66.0082 14.0713L66.0055 15.0713ZM46.0165 15.0165L46.0192 14.0165L46.0165 15.0165ZM33.9835 15.0165L33.9863 16.0165L33.9835 15.0165ZM13 17.0713C13 16.5201 13.446 16.0728 13.9973 16.0713L13.9918 14.0713C12.3381 14.0759 11 15.4177 11 17.0713H13ZM13.0001 58L13 17.0713L11 17.0713L11.0001 58H13.0001ZM14.0001 59C13.4478 59 13.0001 58.5523 13.0001 58H11.0001C11.0001 59.6569 12.3432 61 14.0001 61V59ZM40 59H14.0001V61H40V59ZM40 61L65.9999 61V59L40 59V61ZM65.9999 61C67.6568 61 68.9999 59.6569 68.9999 58H66.9999C66.9999 58.5523 66.5522 59 65.9999 59V61ZM68.9999 58L69 17.0713L67 17.0713L66.9999 58H68.9999ZM69 17.0713C69 15.4177 67.6619 14.0759 66.0082 14.0713L66.0027 16.0713C66.554 16.0728 67 16.5201 67 17.0713L69 17.0713ZM66.0082 14.0713L46.0192 14.0165L46.0137 16.0165L66.0027 16.0713L66.0082 14.0713ZM46.0192 14.0165C42.1457 14.0059 39 17.143 39 21.0165L41 21.0165C41 18.2497 43.2469 16.0089 46.0137 16.0165L46.0192 14.0165ZM33.9863 16.0165C36.7531 16.0089 39 18.2497 39 21.0165H41C41 17.143 37.8543 14.0059 33.9808 14.0165L33.9863 16.0165ZM13.9973 16.0713L33.9863 16.0165L33.9808 14.0165L13.9918 14.0713L13.9973 16.0713Z" fill="#7AC0BE" mask="url(#path-2-inside-1_6778_2779)"/>
<defs>
<linearGradient id="paint0_linear_6778_2779" x1="74" y1="66" x2="2.66881" y2="27.223" gradientUnits="userSpaceOnUse">
<stop stop-color="#1A817C"/>
<stop offset="1" stop-color="#A6D9D7"/>
</linearGradient>
</defs>
</svg>
