<svg width="16" height="16" viewBox="0 0 16 16" fill="none" xmlns="http://www.w3.org/2000/svg">
<path d="M2 4.5C1.72386 4.5 1.5 4.72386 1.5 5V13C1.5 13.2761 1.72386 13.5 2 13.5H14C14.2761 13.5 14.5 13.2761 14.5 13V5C14.5 4.72386 14.2761 4.5 14 4.5H2Z" stroke="#788492" stroke-linecap="square" stroke-linejoin="round"/>
<line x1="5.5" y1="7.5" x2="5.5" y2="8.5" stroke="#788492" stroke-linecap="round"/>
<line x1="10.5" y1="7.5" x2="10.5" y2="8.5" stroke="#788492" stroke-linecap="round"/>
<path d="M5.14645 4.35355L5.5 4.70711L6.20711 4L5.85355 3.64645L5.14645 4.35355ZM4.35355 2.14645C4.15829 1.95118 3.84171 1.95118 3.64645 2.14645C3.45118 2.34171 3.45118 2.65829 3.64645 2.85355L4.35355 2.14645ZM5.85355 3.64645L4.35355 2.14645L3.64645 2.85355L5.14645 4.35355L5.85355 3.64645Z" fill="#788492"/>
<path d="M10.8536 4.35355L10.5 4.70711L9.79289 4L10.1464 3.64645L10.8536 4.35355ZM11.6464 2.14645C11.8417 1.95118 12.1583 1.95118 12.3536 2.14645C12.5488 2.34171 12.5488 2.65829 12.3536 2.85355L11.6464 2.14645ZM10.1464 3.64645L11.6464 2.14645L12.3536 2.85355L10.8536 4.35355L10.1464 3.64645Z" fill="#788492"/>
<circle cx="12" cy="2.5" r="1" fill="#788492"/>
<circle cx="4" cy="2.5" r="1" fill="#788492"/>
</svg>
