<svg width="24" height="24" viewBox="0 0 24 24" fill="none" xmlns="http://www.w3.org/2000/svg">
<path d="M3 4.5C2.72386 4.5 2.5 4.72386 2.5 5V19C2.5 19.2761 2.72386 19.5 3 19.5H21C21.2761 19.5 21.5 19.2761 21.5 19V5C21.5 4.72386 21.2761 4.5 21 4.5H3Z" stroke="#1D9089" stroke-linecap="square" stroke-linejoin="round"/>
<line x1="8" y1="9" x2="8" y2="11" stroke="#1D9089" stroke-linecap="round"/>
<line x1="15.5" y1="9" x2="15.5" y2="11" stroke="#1D9089" stroke-linecap="round"/>
<path d="M7.64645 4.35355L8 4.70711L8.70711 4L8.35355 3.64645L7.64645 4.35355ZM6.35355 1.64645C6.15829 1.45118 5.84171 1.45118 5.64645 1.64645C5.45118 1.84171 5.45118 2.15829 5.64645 2.35355L6.35355 1.64645ZM8.35355 3.64645L6.35355 1.64645L5.64645 2.35355L7.64645 4.35355L8.35355 3.64645Z" fill="#1D9089"/>
<path d="M16.3536 4.35355L16 4.70711L15.2929 4L15.6464 3.64645L16.3536 4.35355ZM17.6464 1.64645C17.8417 1.45118 18.1583 1.45118 18.3536 1.64645C18.5488 1.84171 18.5488 2.15829 18.3536 2.35355L17.6464 1.64645ZM15.6464 3.64645L17.6464 1.64645L18.3536 2.35355L16.3536 4.35355L15.6464 3.64645Z" fill="#1D9089"/>
<circle cx="18" cy="2" r="1" fill="#1D9089"/>
<circle cx="6" cy="2" r="1" fill="#1D9089"/>
</svg>
