<svg width="320" height="289" viewBox="0 0 320 289" fill="none" xmlns="http://www.w3.org/2000/svg">
<g filter="url(#filter0_d_1264_4858)">
<ellipse cx="160" cy="161.266" rx="40" ry="40.2312" fill="#1A817C"/>
</g>
<path fill-rule="evenodd" clip-rule="evenodd" d="M160 149.201C159.475 149.201 158.955 149.305 158.471 149.506C157.986 149.708 157.545 150.005 157.174 150.378C156.803 150.751 156.509 151.194 156.308 151.682C156.107 152.169 156.004 152.692 156.004 153.22C156.004 153.747 156.107 154.27 156.308 154.758C156.509 155.245 156.803 155.688 157.174 156.062C157.545 156.435 157.986 156.731 158.471 156.933C158.955 157.135 159.475 157.239 160 157.239C161.06 157.239 162.076 156.815 162.825 156.062C163.575 155.308 163.996 154.286 163.996 153.22C163.996 152.154 163.575 151.131 162.825 150.378C162.076 149.624 161.06 149.201 160 149.201ZM159.236 151.365C159.478 151.264 159.738 151.212 160 151.212C160.529 151.212 161.037 151.424 161.411 151.8C161.786 152.177 161.996 152.687 161.996 153.22C161.996 153.752 161.786 154.263 161.411 154.639C161.037 155.016 160.529 155.227 160 155.227C159.738 155.227 159.478 155.175 159.236 155.074C158.994 154.973 158.774 154.826 158.588 154.639C158.403 154.453 158.256 154.231 158.156 153.988C158.055 153.744 158.004 153.483 158.004 153.22C158.004 152.956 158.055 152.695 158.156 152.451C158.256 152.208 158.403 151.987 158.588 151.8C158.774 151.614 158.994 151.466 159.236 151.365Z" fill="white"/>
<path fill-rule="evenodd" clip-rule="evenodd" d="M154.591 159.839C154.965 159.464 155.472 159.254 156 159.254H164C164.53 159.254 165.039 159.466 165.414 159.844C165.789 160.221 166 160.732 166 161.266V167.301C166 167.934 165.901 168.563 165.708 169.165C165.265 170.531 164.353 171.692 163.135 172.442C161.917 173.192 160.473 173.48 159.063 173.255C157.653 173.031 156.368 172.308 155.44 171.217C154.512 170.125 154.002 168.737 154 167.301V161.252C154.004 160.721 154.216 160.213 154.591 159.839ZM164 167.301C164 167.723 163.934 168.142 163.806 168.544C163.51 169.453 162.902 170.227 162.091 170.726C161.279 171.226 160.316 171.418 159.376 171.269C158.436 171.119 157.579 170.637 156.96 169.909C156.342 169.182 156.001 168.256 156 167.299V161.266H164V167.301Z" fill="white"/>
<path fill-rule="evenodd" clip-rule="evenodd" d="M169 151.208C168.204 151.208 167.441 151.526 166.879 152.092C166.316 152.658 166 153.425 166 154.226C166 155.026 166.316 155.793 166.879 156.359C167.441 156.925 168.204 157.243 169 157.243C169.796 157.243 170.559 156.925 171.121 156.359C171.684 155.793 172 155.026 172 154.226C172 153.425 171.684 152.658 171.121 152.092C170.559 151.526 169.796 151.208 169 151.208ZM168.293 153.514C168.48 153.326 168.735 153.22 169 153.22C169.265 153.22 169.52 153.326 169.707 153.514C169.895 153.703 170 153.959 170 154.226C170 154.492 169.895 154.748 169.707 154.937C169.52 155.125 169.265 155.231 169 155.231C168.735 155.231 168.48 155.125 168.293 154.937C168.105 154.748 168 154.492 168 154.226C168 153.959 168.105 153.703 168.293 153.514Z" fill="white"/>
<path fill-rule="evenodd" clip-rule="evenodd" d="M174 161.266V166.295C174 167.118 173.799 167.929 173.415 168.656C173.031 169.383 172.476 170.004 171.797 170.465C171.118 170.926 170.338 171.212 169.524 171.298C169.405 171.31 169.287 171.319 169.169 171.323C168.472 171.346 167.777 171.223 167.128 170.96C167.34 170.541 167.517 170.102 167.655 169.646C167.879 168.904 168 168.116 168 167.301V161.266C168 160.532 167.804 159.846 167.464 159.254H172C172.53 159.254 173.039 159.466 173.414 159.844C173.789 160.221 174 160.732 174 161.266ZM170.678 168.798C170.415 168.976 170.126 169.111 169.822 169.198C169.939 168.583 170 167.949 170 167.301V161.266H172V166.296C172 166.79 171.88 167.276 171.649 167.712C171.419 168.149 171.085 168.521 170.678 168.798Z" fill="white"/>
<path fill-rule="evenodd" clip-rule="evenodd" d="M153.121 152.092C152.559 151.526 151.796 151.208 151 151.208C150.204 151.208 149.441 151.526 148.879 152.092C148.316 152.658 148 153.425 148 154.226C148 155.026 148.316 155.793 148.879 156.359C149.441 156.925 150.204 157.243 151 157.243C151.796 157.243 152.559 156.925 153.121 156.359C153.684 155.793 154 155.026 154 154.226C154 153.425 153.684 152.658 153.121 152.092ZM151 153.22C151.265 153.22 151.52 153.326 151.707 153.514C151.895 153.703 152 153.959 152 154.226C152 154.492 151.895 154.748 151.707 154.937C151.52 155.125 151.265 155.231 151 155.231C150.735 155.231 150.48 155.125 150.293 154.937C150.105 154.748 150 154.492 150 154.226C150 153.959 150.105 153.703 150.293 153.514C150.48 153.326 150.735 153.22 151 153.22Z" fill="white"/>
<path fill-rule="evenodd" clip-rule="evenodd" d="M146 166.295V161.266C146 160.732 146.211 160.221 146.586 159.844C146.961 159.466 147.47 159.254 148 159.254H152.536C152.196 159.846 152 160.532 152 161.266V167.301C152 168.116 152.12 168.904 152.345 169.646C152.482 170.102 152.659 170.541 152.872 170.96C152.223 171.223 151.528 171.346 150.831 171.323C150.713 171.319 150.594 171.31 150.476 171.298C149.662 171.212 148.881 170.926 148.203 170.465C147.524 170.004 146.969 169.383 146.585 168.656C146.2 167.929 146 167.118 146 166.295ZM150.178 169.198C149.874 169.111 149.585 168.976 149.322 168.798C148.915 168.521 148.581 168.149 148.351 167.712C148.12 167.276 148 166.79 148 166.296V161.266H150V167.301C150 167.949 150.061 168.583 150.178 169.198Z" fill="white"/>
<path d="M239.5 161.266C239.5 205.431 203.904 241.228 160 241.228C116.096 241.228 80.5 205.431 80.5 161.266C80.5 117.101 116.096 81.3035 160 81.3035C203.904 81.3035 239.5 117.101 239.5 161.266Z" stroke="#A6D9D7"/>
<path d="M279.5 161.266C279.5 227.65 225.995 281.46 160 281.46C94.0047 281.46 40.5 227.65 40.5 161.266C40.5 94.8821 94.0047 41.0723 160 41.0723C225.995 41.0723 279.5 94.8821 279.5 161.266Z" stroke="#A6D9D7"/>
<path d="M319.5 161.266C319.5 249.869 248.087 321.691 160 321.691C71.9133 321.691 0.5 249.869 0.5 161.266C0.5 72.663 71.9133 0.841064 160 0.841064C248.087 0.841064 319.5 72.663 319.5 161.266Z" stroke="#A6D9D7"/>
<defs>
<filter id="filter0_d_1264_4858" x="96" y="113.035" width="128" height="128.462" filterUnits="userSpaceOnUse" color-interpolation-filters="sRGB">
<feFlood flood-opacity="0" result="BackgroundImageFix"/>
<feColorMatrix in="SourceAlpha" type="matrix" values="0 0 0 0 0 0 0 0 0 0 0 0 0 0 0 0 0 0 127 0" result="hardAlpha"/>
<feOffset dy="16"/>
<feGaussianBlur stdDeviation="12"/>
<feComposite in2="hardAlpha" operator="out"/>
<feColorMatrix type="matrix" values="0 0 0 0 0.12549 0 0 0 0 0.172549 0 0 0 0 0.34902 0 0 0 0.2 0"/>
<feBlend mode="normal" in2="BackgroundImageFix" result="effect1_dropShadow_1264_4858"/>
<feBlend mode="normal" in="SourceGraphic" in2="effect1_dropShadow_1264_4858" result="shape"/>
</filter>
</defs>
</svg>
