<svg width="80" height="80" viewBox="0 0 80 80" fill="none" xmlns="http://www.w3.org/2000/svg">
<path d="M5.71436 21.5178C5.71436 19.8906 7.24938 18.5714 9.14293 18.5714H70.8572C72.7508 18.5714 74.2858 19.8906 74.2858 21.5178V62.7678C74.2858 64.3951 72.7508 65.7143 70.8572 65.7143H9.14293C7.24938 65.7143 5.71436 64.3951 5.71436 62.7678V21.5178Z" fill="url(#paint0_linear_6778_2736)" style="mix-blend-mode:multiply"/>
<path d="M25.7144 19.0714C27.5685 19.0714 29.0715 17.5684 29.0715 15.7143C29.0715 12.8345 31.406 10.5 34.2858 10.5H45.7144C48.5941 10.5 50.9286 12.8345 50.9286 15.7143C50.9286 17.5684 52.4317 19.0714 54.2858 19.0714H71.4286C72.7305 19.0714 73.7858 20.1268 73.7858 21.4286V36.5489C73.7858 37.6323 73.0466 38.5753 71.9976 38.8258C52.4825 43.4859 28.8591 43.5879 8.02353 38.8093C6.96399 38.5663 6.21436 37.6186 6.21436 36.5266V21.4286C6.21436 20.1268 7.26968 19.0714 8.5715 19.0714H25.7144ZM35.7144 15.2143C34.6492 15.2143 33.7858 16.0777 33.7858 17.1429C33.7858 18.208 34.6492 19.0714 35.7144 19.0714H44.2858C45.3509 19.0714 46.2144 18.208 46.2144 17.1429C46.2144 16.0777 45.3509 15.2143 44.2858 15.2143H35.7144Z" fill="white" fill-opacity="0.8" stroke="#7AC0BE"/>
<defs>
<linearGradient id="paint0_linear_6778_2736" x1="74.5739" y1="65.4215" x2="1.98678" y2="26.0238" gradientUnits="userSpaceOnUse">
<stop stop-color="#17736E"/>
<stop offset="1" stop-color="#7AC0BE"/>
</linearGradient>
</defs>
</svg>
