<svg width="24" height="24" viewBox="0 0 24 24" fill="none" xmlns="http://www.w3.org/2000/svg">
<path d="M21.5 5C21.5 4.72386 21.2761 4.5 21 4.5H3C2.72386 4.5 2.5 4.72386 2.5 5V19C2.5 19.2761 2.72386 19.5 3 19.5H4.49476C4.47853 20.211 4.42737 20.7081 4.35948 21.0536C4.27443 21.4864 4.17466 21.6182 4.14645 21.6464C4.00345 21.7894 3.96067 22.0045 4.03806 22.1913C4.11545 22.3782 4.29777 22.5 4.5 22.5C6.66361 22.5 7.78432 20.9709 8.35162 19.5H21C21.2761 19.5 21.5 19.2761 21.5 19V5Z" stroke="#1D9089" stroke-linejoin="round"/>
</svg>
