<?xml version="1.0" encoding="utf-8"?>
<!-- Generator: Adobe Illustrator 25.0.0, SVG Export Plug-In . SVG Version: 6.00 Build 0)  -->
<svg version="1.1" id="Layer_1" xmlns="http://www.w3.org/2000/svg" xmlns:xlink="http://www.w3.org/1999/xlink" x="0px" y="0px"
	 viewBox="0 0 640 640" style="enable-background:new 0 0 640 640;" xml:space="preserve">
<style type="text/css">
	.st0{fill:#343434;}
	.st2{fill:#00FA05;}
</style>
<g id="Layer_2_1_">
	<g>
		<path class="st0" d="M13.7,566.2c0,33.1,26.9,60,60,60H566c33.1,0,60-26.9,60-60V73.8c0-33.1-26.9-60-60-60H73.7
			c-33.1,0-60,26.9-60,60C13.7,73.8,13.7,566.2,13.7,566.2z"/>
	</g>
</g>
<path class="gray" d="M250.2,532.3c-1.7,0-3.5-0.3-5.1-0.9c-4.4-1.5-8-4.9-9.6-9.2c-1.4-3.6-1.2-7.6,0.5-11L375.5,118
	c1.3-3.9,4.1-7,7.9-8.8c3.6-1.7,7.8-2,11.6-0.7l0.2,0.1c3.8,1.4,6.9,4.2,8.7,7.9c1.7,3.7,1.9,7.8,0.5,11.7L264.6,522
	c-1.3,3.8-4.1,6.9-7.7,8.7C254.8,531.8,252.5,532.3,250.2,532.3z M186.6,437c-4,0-7.7-1.5-10.6-4.3L68,331.2
	c-3-2.8-4.8-6.9-4.8-11.2c0-4.3,1.8-8.3,4.9-11.2L176,207.3c2.9-2.8,6.7-4.4,10.7-4.3c4.1,0,8.1,1.8,11,4.7c2.9,3,4.4,6.9,4.3,11.1
	c-0.1,4-1.8,7.8-4.7,10.6l-0.1,0.1L101,320l96.1,90.4c3,2.9,4.7,6.7,4.8,10.7c0.1,4.1-1.4,8.1-4.3,11.1c-2.8,2.9-6.6,4.6-10.6,4.7
	C186.9,437,186.7,437,186.6,437z M188.3,419.6L188.3,419.6C188.4,419.6,188.3,419.6,188.3,419.6z M453.5,437c-0.1,0-0.1,0-0.2,0
	c-4.1,0-8.1-1.7-10.9-4.7c-2.8-2.9-4.4-6.7-4.4-10.8c0-4.1,1.8-8.1,4.7-11L539,320l-96.1-90.4c-3-2.9-4.7-6.7-4.8-10.7
	c-0.1-4.1,1.4-8.1,4.3-11.1c2.8-2.9,6.6-4.6,10.6-4.7c4.1-0.1,8,1.4,11,4.2l108,101.6c3,2.8,4.8,6.9,4.8,11.2
	c0,4.3-1.8,8.3-4.9,11.2L464,432.7C461.2,435.5,457.5,437,453.5,437z"/>
<path class="st2" d="M250.2,532.3c-1.7,0-3.5-0.3-5.1-0.9c-4.4-1.5-8-4.9-9.6-9.2c-1.4-3.6-1.2-7.6,0.5-11L375.5,118
	c1.3-3.9,4.1-7,7.9-8.8c3.6-1.7,7.8-2,11.6-0.7l0.2,0.1c3.8,1.4,6.9,4.2,8.7,7.9c1.7,3.7,1.9,7.8,0.5,11.7L264.6,522
	c-1.3,3.8-4.1,6.9-7.7,8.7C254.8,531.8,252.5,532.3,250.2,532.3z M186.6,437c-4,0-7.7-1.5-10.6-4.3L68,331.2
	c-3-2.8-4.8-6.9-4.8-11.2c0-4.3,1.8-8.3,4.9-11.2L176,207.3c2.9-2.8,6.7-4.4,10.7-4.3c4.1,0,8.1,1.8,11,4.7c2.9,3,4.4,6.9,4.3,11.1
	c-0.1,4-1.8,7.8-4.7,10.6l-0.1,0.1L101,320l96.1,90.4c3,2.9,4.7,6.7,4.8,10.7c0.1,4.1-1.4,8.1-4.3,11.1c-2.8,2.9-6.6,4.6-10.6,4.7
	C186.9,437,186.7,437,186.6,437z M188.3,419.6L188.3,419.6C188.4,419.6,188.3,419.6,188.3,419.6z M453.5,437c-0.1,0-0.1,0-0.2,0
	c-4.1,0-8.1-1.7-10.9-4.7c-2.8-2.9-4.4-6.7-4.4-10.8c0-4.1,1.8-8.1,4.7-11L539,320l-96.1-90.4c-3-2.9-4.7-6.7-4.8-10.7
	c-0.1-4.1,1.4-8.1,4.3-11.1c2.8-2.9,6.6-4.6,10.6-4.7c4.1-0.1,8,1.4,11,4.2l108,101.6c3,2.8,4.8,6.9,4.8,11.2
	c0,4.3-1.8,8.3-4.9,11.2L464,432.7C461.2,435.5,457.5,437,453.5,437z"/>
</svg>
