<?xml version="1.0" encoding="utf-8"?>
<!-- Generator: Adobe Illustrator 25.0.0, SVG Export Plug-In . SVG Version: 6.00 Build 0)  -->
<svg version="1.1" xmlns="http://www.w3.org/2000/svg" xmlns:xlink="http://www.w3.org/1999/xlink" x="0px" y="0px"
	 viewBox="0 0 640 640" style="enable-background:new 0 0 640 640;" xml:space="preserve">
<style type="text/css">
	.st0{fill:#343434;}
	.st1{fill:#00FA05;stroke:#00FA05;stroke-width:18;stroke-miterlimit:10;}
</style>
<g id="Layer_2">
	<g>
		<path class="st0" d="M13.7,566.2c0,33.1,26.9,60,60,60H566c33.1,0,60-26.9,60-60V73.8c0-33.1-26.9-60-60-60H73.7
			c-33.1,0-60,26.9-60,60V566.2z"/>
	</g>
</g>
<g id="Layer_1">
	<path class="st1" d="M395.8,125.2L256.1,519.1c-1.1,3.3-4.8,5-8.1,3.8c-3.3-1.1-5.7-4.8-3.8-8.1L383.9,121c1.1-3.3,4.8-5,8.1-3.9
		C395.3,118.3,397,121.9,395.8,125.2L395.8,125.2z M457.8,213.8l108,101.6c1.3,1.2,2,2.9,2,4.6s-0.7,3.4-2,4.6l-108,101.6
		c-2.5,2.5-6.6,2.3-9-0.2c-2.5-2.5-2.3-6.6,0.2-9l103.1-97L449,223c-2.5-2.4-2.7-6.4-0.2-9C451.2,211.5,455.2,211.3,457.8,213.8
		L457.8,213.8z M191,223L87.9,320L191,417c2.5,2.4,2.7,6.4,0.2,9c-2.4,2.5-6.4,2.7-9,0.2l-108-101.6c-1.3-1.2-2-2.9-2-4.6
		s0.7-3.4,2-4.6l108-101.6c2.5-2.5,6.6-2.3,9,0.2C193.7,216.6,193.5,220.6,191,223L191,223z"/>
</g>
</svg>
