<svg width="36" height="27" viewBox="3.5 2 24 24" fill="none" xmlns="http://www.w3.org/2000/svg">
  <!-- The ONLY change is the '2' in the viewBox, shifting the content up -->
  <g transform="scale(0.3)">
    
    <!-- This is the main hand shape. It is UNCHANGED. -->
    <path d="M71.4282 52.1429L55.5821 54.4904C53.77 54.7589 52.1189 53.2932 51.277 51.6662C48.3308 45.9734 38.4077 41.4286 29.9996 41.4286H8.71387C7.05701 41.4286 5.71387 42.7717 5.71387 44.4286V58.6C5.71387 60.2569 7.05701 61.6 8.71387 61.6H27.3984C27.7022 61.6 28.0042 61.6462 28.2941 61.7369L47.0598 67.6078C47.5812 67.7709 48.1372 67.7886 48.6679 67.6589L77.7119 60.5592C79.0549 60.2309 80.0426 59.0188 79.8463 57.6503C79.1137 52.5426 75.8227 51.5151 71.4282 52.1429Z" fill="url(#paint0_linear_6778_2767)" />

    <!-- This is the HEART path with the thicker stroke. It is UNCHANGED. -->
    <path d="M49.3502 34.0257L49.3502 34.0257C51.926 37.029 55.2835 39.2 58.2582 41.1237C58.7143 41.4186 59.1613 41.7077 59.5952 41.993M49.3502 34.0257L59.3204 42.4108M49.3502 34.0257C46.222 30.3796 44.749 26.6726 44.7868 22.6746C44.8318 18.321 48.3775 14.7858 52.6785 14.7858C55.4819 14.7858 57.5222 16.0972 58.8452 17.3702L59.1919 17.0099L58.8452 17.3702C59.4848 17.9856 60.5159 17.9856 61.1555 17.3702C62.4785 16.0972 64.5188 14.7858 67.3222 14.7858C71.6234 14.7858 75.1691 18.3211 75.2139 22.6726C75.2547 26.6726 73.7818 30.3772 70.6507 34.0233L70.6504 34.0236C68.0742 37.0292 64.7161 39.2007 61.741 41.1246C61.2855 41.4192 60.8389 41.708 60.4055 41.993M49.3502 34.0257L60.6803 42.4108M59.5952 41.993L59.3204 42.4108M59.5952 41.993C59.5951 41.993 59.595 41.9929 59.5949 41.9928L59.3204 42.4108M59.5952 41.993C59.8412 42.1544 60.1595 42.1544 60.4055 41.993M59.3204 42.4108C59.7332 42.6818 60.2675 42.6818 60.6803 42.4108M60.4055 41.993L60.6803 42.4108M60.4055 41.993C60.4056 41.993 60.4057 41.9929 60.4058 41.9928L60.6803 42.4108"
          fill="white"
          fill-opacity="0.8"
          stroke="#7AC0BE"
          stroke-width="3"
    />

    <!-- This is the sleeve. It is UNCHANGED. -->
    <rect x="3.35742" y="36.2142" width="20.4286" height="30.4286" rx="2.5" fill="white" fill-opacity="0.8" stroke="#7AC0BE"/>

    <defs>
      <linearGradient id="paint0_linear_6778_2767" x1="80.3117" y1="67.693" x2="31.8369" y2="16.8501" gradientUnits="userSpaceOnUse">
        <stop stop-color="#17736E"/>
        <stop offset="1" stop-color="#7AC0BE"/>
      </linearGradient>
    </defs>
  </g>
</svg>

