<svg xmlns="http://www.w3.org/2000/svg" fill="none" viewBox="0 0 320 289">
  <g filter="url(#a)">
    <ellipse cx="160" cy="161.266" fill="#1A817C" rx="40" ry="40.2312" />
  </g>
  <path
    fill="#fff"
    fillRule="evenodd"
    d="M160 149.201c-.525 0-1.045.104-1.529.305-.485.202-.926.499-1.297.872-.371.373-.665.816-.866 1.304-.201.487-.304 1.01-.304 1.538 0 .527.103 1.05.304 1.538.201.487.495.93.866 1.304.371.373.812.669 1.297.871.484.202 1.004.306 1.529.306 1.06 0 2.076-.424 2.825-1.177.75-.754 1.171-1.776 1.171-2.842s-.421-2.089-1.171-2.842c-.749-.754-1.765-1.177-2.825-1.177Zm-.764 2.164c.242-.101.502-.153.764-.153.529 0 1.037.212 1.411.588.375.377.585.887.585 1.42 0 .532-.21 1.043-.585 1.419-.374.377-.882.588-1.411.588-.262 0-.522-.052-.764-.153s-.462-.248-.648-.435c-.185-.186-.332-.408-.432-.651-.101-.244-.152-.505-.152-.768 0-.264.051-.525.152-.769.1-.243.247-.464.432-.651.186-.186.406-.334.648-.435Zm-4.645 8.474c.374-.375.881-.585 1.409-.585h8c.53 0 1.039.212 1.414.59.375.377.586.888.586 1.422v6.035c0 .633-.099 1.262-.292 1.864-.443 1.366-1.355 2.527-2.573 3.277s-2.662 1.038-4.072.813c-1.41-.224-2.695-.947-3.623-2.038-.928-1.092-1.438-2.48-1.44-3.916v-6.049c.004-.531.216-1.039.591-1.413Zm9.409 7.462c0 .422-.066.841-.194 1.243-.296.909-.904 1.683-1.715 2.182-.812.5-1.775.692-2.715.543-.94-.15-1.797-.632-2.416-1.36-.618-.727-.959-1.653-.96-2.61v-6.033h8v6.035Zm5-16.093c-.796 0-1.559.318-2.121.884-.563.566-.879 1.333-.879 2.134 0 .8.316 1.567.879 2.133.562.566 1.325.884 2.121.884s1.559-.318 2.121-.884c.563-.566.879-1.333.879-2.133 0-.801-.316-1.568-.879-2.134-.562-.566-1.325-.884-2.121-.884Zm-.707 2.306c.187-.188.442-.294.707-.294.265 0 .52.106.707.294.188.189.293.445.293.712 0 .266-.105.522-.293.711-.187.188-.442.294-.707.294-.265 0-.52-.106-.707-.294-.188-.189-.293-.445-.293-.711 0-.267.105-.523.293-.712Zm5.707 7.752v5.029c0 .823-.201 1.634-.585 2.361-.384.727-.939 1.348-1.618 1.809-.679.461-1.459.747-2.273.833-.119.012-.237.021-.355.025-.697.023-1.392-.1-2.041-.363.212-.419.389-.858.527-1.314.224-.742.345-1.53.345-2.345v-6.035c0-.734-.196-1.42-.536-2.012H172c.53 0 1.039.212 1.414.59.375.377.586.888.586 1.422Zm-3.322 7.532c-.263.178-.552.313-.856.4.117-.615.178-1.249.178-1.897v-6.035h2v5.03c0 .494-.12.98-.351 1.416-.23.437-.564.809-.971 1.086Zm-17.557-16.706c-.562-.566-1.325-.884-2.121-.884s-1.559.318-2.121.884c-.563.566-.879 1.333-.879 2.134 0 .8.316 1.567.879 2.133.562.566 1.325.884 2.121.884s1.559-.318 2.121-.884c.563-.566.879-1.333.879-2.133 0-.801-.316-1.568-.879-2.134ZM151 153.22c.265 0 .52.106.707.294.188.189.293.445.293.712 0 .266-.105.522-.293.711-.187.188-.442.294-.707.294-.265 0-.52-.106-.707-.294-.188-.189-.293-.445-.293-.711 0-.267.105-.523.293-.712.187-.188.442-.294.707-.294Zm-5 13.075v-5.029c0-.534.211-1.045.586-1.422.375-.378.884-.59 1.414-.59h4.536c-.34.592-.536 1.278-.536 2.012v6.035c0 .815.12 1.603.345 2.345.137.456.314.895.527 1.314-.649.263-1.344.386-2.041.363-.118-.004-.237-.013-.355-.025-.814-.086-1.595-.372-2.273-.833-.679-.461-1.234-1.082-1.618-1.809-.385-.727-.585-1.538-.585-2.361Zm4.178 2.903c-.304-.087-.593-.222-.856-.4-.407-.277-.741-.649-.971-1.086-.231-.436-.351-.922-.351-1.416v-5.03h2v6.035c0 .648.061 1.282.178 1.897Z"
    clipRule="evenodd"
  />
  <path
    stroke="#A6D9D7"
    d="M239.5 161.266c0 44.165-35.596 79.962-79.5 79.962s-79.5-35.797-79.5-79.962c0-44.165 35.596-79.9625 79.5-79.9625s79.5 35.7975 79.5 79.9625Z"
  />
  <path
    stroke="#A6D9D7"
    d="M279.5 161.266c0 66.384-53.505 120.194-119.5 120.194-65.9953 0-119.5-53.81-119.5-120.194C40.5 94.8821 94.0047 41.0723 160 41.0723c65.995 0 119.5 53.8098 119.5 120.1937Z"
  />
  <path
    stroke="#A6D9D7"
    d="M319.5 161.266c0 88.603-71.413 160.425-159.5 160.425C71.9133 321.691.5 249.869.5 161.266.5 72.663 71.9133.841064 160 .841064c88.087 0 159.5 71.821936 159.5 160.424936Z"
  />
  <defs>
    <filter
      id="a"
      width="128"
      height="128.462"
      x="96"
      y="113.035"
      colorInterpolationFilters="sRGB"
      filterUnits="userSpaceOnUse"
    >
      <feFlood floodOpacity="0" result="BackgroundImageFix" />
      <feColorMatrix
        in="SourceAlpha"
        result="hardAlpha"
        values="0 0 0 0 0 0 0 0 0 0 0 0 0 0 0 0 0 0 127 0"
      />
      <feOffset dy="16" />
      <feGaussianBlur stdDeviation="12" />
      <feComposite in2="hardAlpha" operator="out" />
      <feColorMatrix values="0 0 0 0 0.12549 0 0 0 0 0.172549 0 0 0 0 0.34902 0 0 0 0.2 0" />
      <feBlend in2="BackgroundImageFix" result="effect1_dropShadow_1264_4858" />
      <feBlend in="SourceGraphic" in2="effect1_dropShadow_1264_4858" result="shape" />
    </filter>
  </defs>
</svg>
