<?xml version="1.0" encoding="utf-8"?>
<!-- Generator: Adobe Illustrator 25.0.0, SVG Export Plug-In . SVG Version: 6.00 Build 0)  -->
<svg version="1.1" id="Layer_2_1_" xmlns="http://www.w3.org/2000/svg" xmlns:xlink="http://www.w3.org/1999/xlink" x="0px" y="0px"
	 viewBox="0 0 512 512" style="enable-background:new 0 0 512 512;" xml:space="preserve">
<style type="text/css">
	.st0{fill:#FF69B4;}
	.st1{fill:#FFD700;}
	.st2{fill:#333333;}
</style>
<path class="st0" d="M328.1,92.8l91.1,91.1l66.9-66.9c12.5-12.5,12.5-32.7,0-45.2L440.2,26c-12.5-12.5-32.7-12.5-46.1,0L328.1,92.8z
	"/>
<path class="st1" d="M316.8,104.1L73.6,347.3c-10.4,10.4-18,23.2-22.2,37.4L19.8,492.2l107.5-31.6c14.2-4.2,27-11.8,37.4-22.2
	l243.2-243.2L316.8,104.1z"/>
<path class="st2" d="M497.4,60.5c18.7,18.7,18.7,49.1,0,67.8L176,449.7c-12.3,11.4-27.5,21.3-44.2,26.2L10.3,511.7
	c-2.8,0.8-5.8,0-7.9-2c-2.1-2.1-2.8-5.1-2-8l35.8-121.5c4.9-16.7,13.9-31.9,26.2-45.1L383.7,14.6c18.7-18.8,49.1-18.8,67.8,0
	L497.4,60.5z M328.1,92.8l91.1,91.1l66.9-66.9c12.5-12.5,12.5-32.7,0-45.2l-45.9-45.8c-12.5-12.5-32.7-12.5-46.1,0L328.1,92.8z
	 M316.8,104.1L73.6,347.3c-10.4,10.4-18,23.2-22.2,37.4L19.8,492.2l107.5-31.6c14.2-4.2,27-11.8,37.4-22.2l243.2-243.2L316.8,104.1z
	"/>
</svg>
