<?xml version="1.0" encoding="utf-8"?>
<!-- Generator: Adobe Illustrator 25.0.0, SVG Export Plug-In . SVG Version: 6.00 Build 0)  -->
<svg version="1.1" id="Layer_1" xmlns="http://www.w3.org/2000/svg" xmlns:xlink="http://www.w3.org/1999/xlink" x="0px" y="0px"
	 viewBox="0 0 448 512" style="enable-background:new 0 0 448 512;" xml:space="preserve">
<style type="text/css">
	.st0{fill:#333333;}
</style>
<path class="st0" d="M336,256c0-8.8,7.2-16,16-16s16,7.2,16,16c0,8.8-7.2,16-16,16S336,264.8,336,256z M208,256c0-8.8,7.2-16,16-16
	s16,7.2,16,16c0,8.8-7.2,16-16,16S208,264.8,208,256z M112,256c0,8.8-7.2,16-16,16c-8.8,0-16-7.2-16-16c0-8.8,7.2-16,16-16
	C104.8,240,112,247.2,112,256z"/>
</svg>
