<svg viewBox="0 0 325 259" fill="none" xmlns="http://www.w3.org/2000/svg">
<g mask="url(#mask0_1330_4486)">
<g filter="url(#filter0_d_1330_4486)">
<ellipse cx="93.6868" cy="213.643" rx="26.9954" ry="26.9954" fill="#1A817C"/>
</g>
<path fill-rule="evenodd" clip-rule="evenodd" d="M93.6905 205.549C93.3363 205.549 92.9856 205.619 92.6584 205.754C92.3312 205.89 92.0339 206.088 91.7835 206.339C91.5331 206.589 91.3344 206.886 91.1989 207.214C91.0634 207.541 90.9936 207.892 90.9936 208.246C90.9936 208.6 91.0634 208.951 91.1989 209.278C91.3344 209.605 91.5331 209.902 91.7835 210.153C92.0339 210.403 92.3312 210.602 92.6584 210.737C92.9856 210.873 93.3363 210.943 93.6905 210.943C94.4057 210.943 95.0917 210.658 95.5974 210.153C96.1032 209.647 96.3873 208.961 96.3873 208.246C96.3873 207.53 96.1032 206.844 95.5974 206.339C95.0917 205.833 94.4057 205.549 93.6905 205.549ZM93.175 207.001C93.3384 206.933 93.5136 206.899 93.6905 206.899C94.0477 206.899 94.3904 207.041 94.643 207.293C94.8956 207.546 95.0375 207.888 95.0375 208.246C95.0375 208.603 94.8956 208.946 94.643 209.198C94.3904 209.451 94.0477 209.593 93.6905 209.593C93.5136 209.593 93.3384 209.558 93.175 209.49C93.0115 209.422 92.863 209.323 92.7379 209.198C92.6128 209.073 92.5136 208.925 92.4459 208.761C92.3782 208.598 92.3434 208.423 92.3434 208.246C92.3434 208.069 92.3782 207.894 92.4459 207.73C92.5136 207.567 92.6128 207.418 92.7379 207.293C92.863 207.168 93.0115 207.069 93.175 207.001Z" fill="white"/>
<path fill-rule="evenodd" clip-rule="evenodd" d="M90.0399 212.687C90.2927 212.436 90.6346 212.295 90.991 212.295H96.3901C96.748 212.295 97.0914 212.437 97.3445 212.69C97.5976 212.944 97.7398 213.287 97.7398 213.645V217.694C97.7397 218.119 97.6732 218.541 97.5428 218.945C97.2439 219.861 96.6282 220.641 95.8063 221.144C94.9844 221.647 94.0101 221.841 93.0583 221.69C92.1066 221.539 91.2397 221.054 90.6134 220.322C89.9871 219.589 89.6424 218.658 89.6412 217.694V213.635C89.6437 213.279 89.787 212.938 90.0399 212.687ZM96.3901 217.694C96.39 217.977 96.3457 218.259 96.2589 218.529C96.0594 219.139 95.6492 219.658 95.1017 219.993C94.5537 220.328 93.904 220.457 93.2694 220.357C92.6348 220.256 92.0568 219.933 91.6392 219.444C91.2218 218.956 90.992 218.335 90.991 217.693V213.645H96.3901V217.694Z" fill="white"/>
<path fill-rule="evenodd" clip-rule="evenodd" d="M99.7645 206.896C99.2275 206.896 98.7125 207.109 98.3328 207.489C97.9531 207.869 97.7398 208.384 97.7398 208.921C97.7398 209.458 97.9531 209.973 98.3328 210.352C98.7125 210.732 99.2275 210.945 99.7645 210.945C100.301 210.945 100.816 210.732 101.196 210.352C101.576 209.973 101.789 209.458 101.789 208.921C101.789 208.384 101.576 207.869 101.196 207.489C100.816 207.109 100.301 206.896 99.7645 206.896ZM99.2873 208.443C99.4138 208.317 99.5855 208.246 99.7645 208.246C99.9435 208.246 100.115 208.317 100.242 208.443C100.368 208.57 100.439 208.742 100.439 208.921C100.439 209.1 100.368 209.271 100.242 209.398C100.115 209.524 99.9435 209.595 99.7645 209.595C99.5855 209.595 99.4138 209.524 99.2873 209.398C99.1607 209.271 99.0896 209.1 99.0896 208.921C99.0896 208.742 99.1607 208.57 99.2873 208.443Z" fill="white"/>
<path fill-rule="evenodd" clip-rule="evenodd" d="M103.139 213.645V217.019C103.139 217.572 103.004 218.116 102.744 218.604C102.485 219.092 102.11 219.508 101.652 219.817C101.194 220.126 100.667 220.318 100.118 220.376C100.038 220.385 99.9583 220.39 99.8784 220.393C99.4082 220.409 98.9389 220.326 98.501 220.149C98.6445 219.869 98.764 219.574 98.857 219.268C99.0083 218.77 99.0895 218.242 99.0895 217.694V213.645C99.0895 213.152 98.9573 212.692 98.7278 212.295H101.789C102.147 212.295 102.49 212.437 102.744 212.69C102.997 212.944 103.139 213.287 103.139 213.645ZM100.897 218.699C100.719 218.819 100.524 218.909 100.319 218.967C100.398 218.555 100.439 218.129 100.439 217.694V213.645H101.789V217.02C101.789 217.351 101.708 217.678 101.552 217.97C101.397 218.263 101.172 218.513 100.897 218.699Z" fill="white"/>
<path fill-rule="evenodd" clip-rule="evenodd" d="M89.0482 207.489C88.6685 207.109 88.1535 206.896 87.6166 206.896C87.0796 206.896 86.5646 207.109 86.1849 207.489C85.8052 207.869 85.5919 208.384 85.5919 208.921C85.5919 209.458 85.8052 209.973 86.1849 210.352C86.5646 210.732 87.0796 210.945 87.6166 210.945C88.1535 210.945 88.6685 210.732 89.0482 210.352C89.4279 209.973 89.6412 209.458 89.6412 208.921C89.6412 208.384 89.4279 207.869 89.0482 207.489ZM87.6166 208.246C87.7956 208.246 87.9672 208.317 88.0938 208.443C88.2203 208.57 88.2914 208.742 88.2914 208.921C88.2914 209.1 88.2203 209.271 88.0938 209.398C87.9672 209.524 87.7956 209.595 87.6166 209.595C87.4376 209.595 87.2659 209.524 87.1393 209.398C87.0128 209.271 86.9417 209.1 86.9417 208.921C86.9417 208.742 87.0128 208.57 87.1393 208.443C87.2659 208.317 87.4376 208.246 87.6166 208.246Z" fill="white"/>
<path fill-rule="evenodd" clip-rule="evenodd" d="M84.2422 217.019V213.645C84.2422 213.287 84.3844 212.944 84.6375 212.69C84.8907 212.437 85.234 212.295 85.592 212.295H88.6532C88.4238 212.692 88.2915 213.152 88.2915 213.645V217.694C88.2915 218.242 88.3727 218.77 88.524 219.268C88.617 219.574 88.7366 219.869 88.88 220.149C88.4421 220.326 87.9729 220.409 87.5027 220.393C87.4228 220.39 87.3429 220.385 87.263 220.376C86.7136 220.318 86.1868 220.126 85.7289 219.817C85.2709 219.508 84.8959 219.092 84.6367 218.604C84.3775 218.116 84.242 217.572 84.2422 217.019ZM87.0617 218.967C86.8569 218.909 86.6618 218.819 86.484 218.699C86.2092 218.513 85.9842 218.263 85.8287 217.97C85.6731 217.678 85.5918 217.351 85.592 217.02V213.645H86.9417V217.694C86.9417 218.129 86.9829 218.555 87.0617 218.967Z" fill="white"/>
<path d="M147.179 213.645C147.179 243.187 123.23 267.136 93.688 267.136C64.1459 267.136 40.1973 243.187 40.1973 213.645C40.1973 184.103 64.1459 160.154 93.688 160.154C123.23 160.154 147.179 184.103 147.179 213.645Z" stroke="#A6D9D7"/>
<path d="M174.175 213.646C174.175 258.097 138.14 294.132 93.6892 294.132C49.238 294.132 13.2031 258.097 13.2031 213.646C13.2031 169.195 49.238 133.16 93.6892 133.16C138.14 133.16 174.175 169.195 174.175 213.646Z" stroke="#A6D9D7"/>
<path d="M201.172 213.647C201.172 273.007 153.051 321.128 93.6904 321.128C34.3301 321.128 -13.791 273.007 -13.791 213.647C-13.791 154.287 34.3301 106.166 93.6904 106.166C153.051 106.166 201.172 154.287 201.172 213.647Z" stroke="#A6D9D7"/>
<g filter="url(#filter1_d_1330_4486)">
<ellipse cx="241.484" cy="107.685" rx="26.9954" ry="26.9954" fill="#1A817C"/>
</g>
<path fill-rule="evenodd" clip-rule="evenodd" d="M245.535 102.289C245.535 104.525 243.722 106.338 241.485 106.338C239.249 106.338 237.436 104.525 237.436 102.289C237.436 100.053 239.249 98.2397 241.485 98.2397C243.722 98.2397 245.535 100.053 245.535 102.289ZM244.185 102.289C244.185 103.78 242.976 104.989 241.485 104.989C239.994 104.989 238.786 103.78 238.786 102.289C238.786 100.798 239.994 99.5895 241.485 99.5895C242.976 99.5895 244.185 100.798 244.185 102.289Z" fill="white"/>
<path fill-rule="evenodd" clip-rule="evenodd" d="M248.234 117.137C248.98 117.137 249.584 116.532 249.584 115.787C249.584 111.314 245.958 107.688 241.485 107.688C237.013 107.688 233.387 111.314 233.387 115.787C233.387 116.532 233.991 117.137 234.736 117.137H248.234ZM241.485 109.038C238.22 109.038 235.497 111.356 234.871 114.437C234.783 114.873 234.736 115.324 234.736 115.787H248.234C248.234 115.324 248.188 114.873 248.099 114.437C247.474 111.356 244.75 109.038 241.485 109.038Z" fill="white"/>
<path d="M294.976 107.687C294.976 137.229 271.027 161.178 241.485 161.178C211.943 161.178 187.994 137.229 187.994 107.687C187.994 78.1449 211.943 54.1963 241.485 54.1963C271.027 54.1963 294.976 78.1449 294.976 107.687Z" stroke="#A6D9D7"/>
<path d="M321.972 107.688C321.972 152.139 285.937 188.174 241.486 188.174C197.035 188.174 161 152.139 161 107.688C161 63.237 197.035 27.2021 241.486 27.2021C285.937 27.2021 321.972 63.237 321.972 107.688Z" stroke="#A6D9D7"/>
<path d="M348.967 107.689C348.967 167.049 300.846 215.17 241.485 215.17C182.125 215.17 134.004 167.049 134.004 107.689C134.004 48.3286 182.125 0.20752 241.485 0.20752C300.846 0.20752 348.967 48.3286 348.967 107.689Z" stroke="#A6D9D7"/>
</g>
<defs>
<filter id="filter0_d_1330_4486" x="42.6914" y="178.648" width="101.99" height="101.991" filterUnits="userSpaceOnUse" color-interpolation-filters="sRGB">
<feFlood flood-opacity="0" result="BackgroundImageFix"/>
<feColorMatrix in="SourceAlpha" type="matrix" values="0 0 0 0 0 0 0 0 0 0 0 0 0 0 0 0 0 0 127 0" result="hardAlpha"/>
<feOffset dy="16"/>
<feGaussianBlur stdDeviation="12"/>
<feComposite in2="hardAlpha" operator="out"/>
<feColorMatrix type="matrix" values="0 0 0 0 0.12549 0 0 0 0 0.172549 0 0 0 0 0.34902 0 0 0 0.2 0"/>
<feBlend mode="normal" in2="BackgroundImageFix" result="effect1_dropShadow_1330_4486"/>
<feBlend mode="normal" in="SourceGraphic" in2="effect1_dropShadow_1330_4486" result="shape"/>
</filter>
<filter id="filter1_d_1330_4486" x="190.488" y="72.6899" width="101.99" height="101.991" filterUnits="userSpaceOnUse" color-interpolation-filters="sRGB">
<feFlood flood-opacity="0" result="BackgroundImageFix"/>
<feColorMatrix in="SourceAlpha" type="matrix" values="0 0 0 0 0 0 0 0 0 0 0 0 0 0 0 0 0 0 127 0" result="hardAlpha"/>
<feOffset dy="16"/>
<feGaussianBlur stdDeviation="12"/>
<feComposite in2="hardAlpha" operator="out"/>
<feColorMatrix type="matrix" values="0 0 0 0 0.12549 0 0 0 0 0.172549 0 0 0 0 0.34902 0 0 0 0.2 0"/>
<feBlend mode="normal" in2="BackgroundImageFix" result="effect1_dropShadow_1330_4486"/>
<feBlend mode="normal" in="SourceGraphic" in2="effect1_dropShadow_1330_4486" result="shape"/>
</filter>
</defs>
</svg>
