<svg width="80" height="80" viewBox="0 0 80 80" fill="none" xmlns="http://www.w3.org/2000/svg">
<mask id="path-1-inside-1_6780_2909" fill="white">
<path fill-rule="evenodd" clip-rule="evenodd" d="M39.5 15L3 33V37C3 38.1046 3.89543 39 5 39L10 39V40C10 41.1046 10.8954 42 12 42H13V60H12C10.8954 60 10 60.8954 10 62V63H6C4.34315 63 3 64.3431 3 66V68C3 68.5523 3.44772 69 4 69H75C75.5523 69 76 68.5523 76 68V66C76 64.3431 74.6569 63 73 63H70V62C70 60.8954 69.1046 60 68 60H67V42H68C69.1046 42 70 41.1046 70 40V39L73 39C74.6569 39 76 37.6569 76 36V33L39.5 15ZM19 42V60H20C21.1046 60 22 60.8954 22 62V63H26V62C26 60.8954 26.8954 60 28 60H29V42H28C26.8954 42 26 41.1046 26 40V39L22 39V40C22 41.1046 21.1046 42 20 42H19ZM61 42V60H60C58.8954 60 58 60.8954 58 62V63H54V62C54 60.8954 53.1046 60 52 60H51V42H52C53.1046 42 54 41.1046 54 40V39H58V40C58 41.1046 58.8954 42 60 42H61ZM42 39H38V40C38 41.1046 37.1046 42 36 42H35V60H36C37.1046 60 38 60.8954 38 62V63H42V62C42 60.8954 42.8954 60 44 60H45V42H44C42.8954 42 42 41.1046 42 40V39Z"/>
</mask>
<path fill-rule="evenodd" clip-rule="evenodd" d="M39.5 15L3 33V37C3 38.1046 3.89543 39 5 39L10 39V40C10 41.1046 10.8954 42 12 42H13V60H12C10.8954 60 10 60.8954 10 62V63H6C4.34315 63 3 64.3431 3 66V68C3 68.5523 3.44772 69 4 69H75C75.5523 69 76 68.5523 76 68V66C76 64.3431 74.6569 63 73 63H70V62C70 60.8954 69.1046 60 68 60H67V42H68C69.1046 42 70 41.1046 70 40V39L73 39C74.6569 39 76 37.6569 76 36V33L39.5 15ZM19 42V60H20C21.1046 60 22 60.8954 22 62V63H26V62C26 60.8954 26.8954 60 28 60H29V42H28C26.8954 42 26 41.1046 26 40V39L22 39V40C22 41.1046 21.1046 42 20 42H19ZM61 42V60H60C58.8954 60 58 60.8954 58 62V63H54V62C54 60.8954 53.1046 60 52 60H51V42H52C53.1046 42 54 41.1046 54 40V39H58V40C58 41.1046 58.8954 42 60 42H61ZM42 39H38V40C38 41.1046 37.1046 42 36 42H35V60H36C37.1046 60 38 60.8954 38 62V63H42V62C42 60.8954 42.8954 60 44 60H45V42H44C42.8954 42 42 41.1046 42 40V39Z" fill="white" fill-opacity="0.8"/>
<path d="M3 33L2.55771 32.1031L2 32.3782V33H3ZM39.5 15L39.9423 14.1031L39.5 13.885L39.0577 14.1031L39.5 15ZM5 39L5 38H5V39ZM10 39H11V38H10L10 39ZM10 40H9H10ZM13 42H14V41H13V42ZM13 60V61H14V60H13ZM10 63V64H11V63H10ZM70 63H69V64H70V63ZM67 60H66V61H67V60ZM67 42V41H66V42H67ZM68 42V43V42ZM70 39V38L69 38V39H70ZM73 39V40V39ZM76 33H77V32.3782L76.4423 32.1031L76 33ZM19 42V41H18V42H19ZM19 60H18V61H19V60ZM22 63H21V64H22V63ZM26 63V64H27V63H26ZM29 60V61H30V60H29ZM29 42H30V41H29V42ZM26 39H27V38H26V39ZM22 39V38H21V39H22ZM20 42V43H20L20 42ZM61 60V61H62V60H61ZM61 42H62V41H61V42ZM58 63V64H59V63H58ZM54 63H53V64H54V63ZM51 60H50V61H51V60ZM51 42V41H50V42H51ZM52 42V43V42ZM54 39V38H53V39H54ZM58 39H59V38H58V39ZM38 39V38H37V39H38ZM42 39H43V38H42V39ZM36 42V43V42ZM35 42V41H34V42H35ZM35 60H34V61H35V60ZM38 63H37V64H38V63ZM42 63V64H43V63H42ZM45 60V61H46V60H45ZM45 42H46V41H45V42ZM3.44229 33.8969L39.9423 15.8969L39.0577 14.1031L2.55771 32.1031L3.44229 33.8969ZM4 37V33H2V37H4ZM5 38C4.44772 38 4 37.5523 4 37H2C2 38.6569 3.34315 40 5 40V38ZM10 38L5 38L5 40L10 40L10 38ZM11 40V39H9V40H11ZM12 41C11.4477 41 11 40.5523 11 40H9C9 41.6569 10.3431 43 12 43V41ZM13 41H12V43H13V41ZM14 60V42H12V60H14ZM12 61H13V59H12V61ZM11 62C11 61.4477 11.4477 61 12 61V59C10.3431 59 9 60.3431 9 62H11ZM11 63V62H9V63H11ZM6 64H10V62H6V64ZM4 66C4 64.8954 4.89543 64 6 64V62C3.79086 62 2 63.7909 2 66H4ZM4 68V66H2V68H4ZM4 68H4H2C2 69.1046 2.89543 70 4 70V68ZM75 68H4V70H75V68ZM75 68V70C76.1046 70 77 69.1046 77 68H75ZM75 66V68H77V66H75ZM73 64C74.1046 64 75 64.8954 75 66H77C77 63.7909 75.2091 62 73 62V64ZM70 64H73V62H70V64ZM69 62V63H71V62H69ZM68 61C68.5523 61 69 61.4477 69 62H71C71 60.3431 69.6569 59 68 59V61ZM67 61H68V59H67V61ZM66 42V60H68V42H66ZM68 41H67V43H68V41ZM69 40C69 40.5523 68.5523 41 68 41V43C69.6569 43 71 41.6569 71 40H69ZM69 39V40H71V39H69ZM73 38L70 38V40L73 40V38ZM75 36C75 37.1046 74.1046 38 73 38V40C75.2091 40 77 38.2091 77 36H75ZM75 33V36H77V33H75ZM39.0577 15.8969L75.5577 33.8969L76.4423 32.1031L39.9423 14.1031L39.0577 15.8969ZM18 42V60H20V42H18ZM19 61H20V59H19V61ZM20 61C20.5523 61 21 61.4477 21 62H23C23 60.3431 21.6569 59 20 59V61ZM21 62V63H23V62H21ZM22 64H26V62H22V64ZM27 63V62H25V63H27ZM27 62C27 61.4477 27.4477 61 28 61V59C26.3431 59 25 60.3431 25 62H27ZM28 61H29V59H28V61ZM30 60V42H28V60H30ZM29 41H28V43H29V41ZM28 41C27.4477 41 27 40.5523 27 40H25C25 41.6569 26.3431 43 28 43V41ZM27 40V39H25V40H27ZM26 38L22 38V40L26 40V38ZM21 39V40H23V39H21ZM21 40C21 40.5523 20.5523 41 20 41L20 43C21.6569 43 23 41.6569 23 40H21ZM20 41H19V43H20V41ZM62 60V42H60V60H62ZM60 61H61V59H60V61ZM59 62C59 61.4477 59.4477 61 60 61V59C58.3431 59 57 60.3431 57 62H59ZM59 63V62H57V63H59ZM54 64H58V62H54V64ZM53 62V63H55V62H53ZM52 61C52.5523 61 53 61.4477 53 62H55C55 60.3431 53.6569 59 52 59V61ZM51 61H52V59H51V61ZM50 42V60H52V42H50ZM52 41H51V43H52V41ZM53 40C53 40.5523 52.5523 41 52 41V43C53.6569 43 55 41.6569 55 40H53ZM53 39V40H55V39H53ZM58 38H54V40H58V38ZM59 40V39H57V40H59ZM60 41C59.4477 41 59 40.5523 59 40H57C57 41.6569 58.3431 43 60 43V41ZM61 41H60V43H61V41ZM38 40H42V38H38V40ZM39 40V39H37V40H39ZM36 43C37.6569 43 39 41.6569 39 40H37C37 40.5523 36.5523 41 36 41V43ZM35 43H36V41H35V43ZM36 60V42H34V60H36ZM36 59H35V61H36V59ZM39 62C39 60.3431 37.6569 59 36 59V61C36.5523 61 37 61.4477 37 62H39ZM39 63V62H37V63H39ZM42 62H38V64H42V62ZM41 62V63H43V62H41ZM44 59C42.3431 59 41 60.3431 41 62H43C43 61.4477 43.4477 61 44 61V59ZM45 59H44V61H45V59ZM44 42V60H46V42H44ZM44 43H45V41H44V43ZM41 40C41 41.6569 42.3431 43 44 43V41C43.4477 41 43 40.5523 43 40H41ZM41 39V40H43V39H41Z" fill="white" mask="url(#path-1-inside-1_6780_2909)"/>
<path d="M40 5C40 4.44772 40.4477 4 41 4H51.1384C51.5223 4 51.763 4.41474 51.5725 4.74807L50.2835 7.00386C50.1078 7.31129 50.1078 7.68871 50.2835 7.99614L51.5725 10.2519C51.763 10.5853 51.5223 11 51.1384 11H41C40.4477 11 40 10.5523 40 10V5Z" fill="url(#paint0_linear_6780_2909)" style="mix-blend-mode:multiply"/>
<defs>
<linearGradient id="paint0_linear_6780_2909" x1="59" y1="16" x2="60.1983" y2="0.396694" gradientUnits="userSpaceOnUse">
<stop stop-color="#4DA7A6"/>
<stop offset="1" stop-color="#A6D9D7"/>
</linearGradient>
</defs>
</svg>
