<svg width="539" height="348" viewBox="0 0 539 348" fill="none" xmlns="http://www.w3.org/2000/svg">
<mask id="mask0_1264_4856" style="mask-type:alpha" maskUnits="userSpaceOnUse" x="0" y="0" width="539" height="348">
<rect width="539" height="100%" fill="#1A817C"/>
</mask>
<g mask="url(#mask0_1264_4856)">
<g filter="url(#filter0_d_1264_4856)">
<ellipse cx="160" cy="220.266" rx="40" ry="40.2312" fill="#1A817C"/>
</g>
<path fill-rule="evenodd" clip-rule="evenodd" d="M160 208.201C159.475 208.201 158.955 208.305 158.471 208.506C157.986 208.708 157.545 209.005 157.174 209.378C156.803 209.751 156.509 210.194 156.308 210.682C156.107 211.169 156.004 211.692 156.004 212.22C156.004 212.747 156.107 213.27 156.308 213.758C156.509 214.245 156.803 214.688 157.174 215.062C157.545 215.435 157.986 215.731 158.471 215.933C158.955 216.135 159.475 216.239 160 216.239C161.06 216.239 162.076 215.815 162.825 215.062C163.575 214.308 163.996 213.286 163.996 212.22C163.996 211.154 163.575 210.131 162.825 209.378C162.076 208.624 161.06 208.201 160 208.201ZM159.236 210.365C159.478 210.264 159.738 210.212 160 210.212C160.529 210.212 161.037 210.424 161.411 210.8C161.786 211.177 161.996 211.687 161.996 212.22C161.996 212.752 161.786 213.263 161.411 213.639C161.037 214.016 160.529 214.227 160 214.227C159.738 214.227 159.478 214.175 159.236 214.074C158.994 213.973 158.774 213.826 158.588 213.639C158.403 213.453 158.256 213.231 158.156 212.988C158.055 212.744 158.004 212.483 158.004 212.22C158.004 211.956 158.055 211.695 158.156 211.451C158.256 211.208 158.403 210.987 158.588 210.8C158.774 210.614 158.994 210.466 159.236 210.365Z" fill="white"/>
<path fill-rule="evenodd" clip-rule="evenodd" d="M154.591 218.839C154.965 218.464 155.472 218.254 156 218.254H164C164.53 218.254 165.039 218.466 165.414 218.844C165.789 219.221 166 219.732 166 220.266V226.301C166 226.934 165.901 227.563 165.708 228.165C165.265 229.531 164.353 230.692 163.135 231.442C161.917 232.192 160.473 232.48 159.063 232.255C157.653 232.031 156.368 231.308 155.44 230.217C154.512 229.125 154.002 227.737 154 226.301V220.252C154.004 219.721 154.216 219.213 154.591 218.839ZM164 226.301C164 226.723 163.934 227.142 163.806 227.544C163.51 228.453 162.902 229.227 162.091 229.726C161.279 230.226 160.316 230.418 159.376 230.269C158.436 230.119 157.579 229.637 156.96 228.909C156.342 228.182 156.001 227.256 156 226.299V220.266H164V226.301Z" fill="white"/>
<path fill-rule="evenodd" clip-rule="evenodd" d="M169 210.208C168.204 210.208 167.441 210.526 166.879 211.092C166.316 211.658 166 212.425 166 213.226C166 214.026 166.316 214.793 166.879 215.359C167.441 215.925 168.204 216.243 169 216.243C169.796 216.243 170.559 215.925 171.121 215.359C171.684 214.793 172 214.026 172 213.226C172 212.425 171.684 211.658 171.121 211.092C170.559 210.526 169.796 210.208 169 210.208ZM168.293 212.514C168.48 212.326 168.735 212.22 169 212.22C169.265 212.22 169.52 212.326 169.707 212.514C169.895 212.703 170 212.959 170 213.226C170 213.492 169.895 213.748 169.707 213.937C169.52 214.125 169.265 214.231 169 214.231C168.735 214.231 168.48 214.125 168.293 213.937C168.105 213.748 168 213.492 168 213.226C168 212.959 168.105 212.703 168.293 212.514Z" fill="white"/>
<path fill-rule="evenodd" clip-rule="evenodd" d="M174 220.266V225.295C174 226.118 173.799 226.929 173.415 227.656C173.031 228.383 172.476 229.004 171.797 229.465C171.118 229.926 170.338 230.212 169.524 230.298C169.405 230.31 169.287 230.319 169.169 230.323C168.472 230.346 167.777 230.223 167.128 229.96C167.34 229.541 167.517 229.102 167.655 228.646C167.879 227.904 168 227.116 168 226.301V220.266C168 219.532 167.804 218.846 167.464 218.254H172C172.53 218.254 173.039 218.466 173.414 218.844C173.789 219.221 174 219.732 174 220.266ZM170.678 227.798C170.415 227.976 170.126 228.111 169.822 228.198C169.939 227.583 170 226.949 170 226.301V220.266H172V225.296C172 225.79 171.88 226.276 171.649 226.712C171.419 227.149 171.085 227.521 170.678 227.798Z" fill="white"/>
<path fill-rule="evenodd" clip-rule="evenodd" d="M153.121 211.092C152.559 210.526 151.796 210.208 151 210.208C150.204 210.208 149.441 210.526 148.879 211.092C148.316 211.658 148 212.425 148 213.226C148 214.026 148.316 214.793 148.879 215.359C149.441 215.925 150.204 216.243 151 216.243C151.796 216.243 152.559 215.925 153.121 215.359C153.684 214.793 154 214.026 154 213.226C154 212.425 153.684 211.658 153.121 211.092ZM151 212.22C151.265 212.22 151.52 212.326 151.707 212.514C151.895 212.703 152 212.959 152 213.226C152 213.492 151.895 213.748 151.707 213.937C151.52 214.125 151.265 214.231 151 214.231C150.735 214.231 150.48 214.125 150.293 213.937C150.105 213.748 150 213.492 150 213.226C150 212.959 150.105 212.703 150.293 212.514C150.48 212.326 150.735 212.22 151 212.22Z" fill="white"/>
<path fill-rule="evenodd" clip-rule="evenodd" d="M146 225.295V220.266C146 219.732 146.211 219.221 146.586 218.844C146.961 218.466 147.47 218.254 148 218.254H152.536C152.196 218.846 152 219.532 152 220.266V226.301C152 227.116 152.12 227.904 152.345 228.646C152.482 229.102 152.659 229.541 152.872 229.96C152.223 230.223 151.528 230.346 150.831 230.323C150.713 230.319 150.594 230.31 150.476 230.298C149.662 230.212 148.881 229.926 148.203 229.465C147.524 229.004 146.969 228.383 146.585 227.656C146.2 226.929 146 226.118 146 225.295ZM150.178 228.198C149.874 228.111 149.585 227.976 149.322 227.798C148.915 227.521 148.581 227.149 148.351 226.712C148.12 226.276 148 225.79 148 225.296V220.266H150V226.301C150 226.949 150.061 227.583 150.178 228.198Z" fill="white"/>
<path d="M239.5 220.266C239.5 264.431 203.904 300.228 160 300.228C116.096 300.228 80.5 264.431 80.5 220.266C80.5 176.101 116.096 140.303 160 140.303C203.904 140.303 239.5 176.101 239.5 220.266Z" stroke="#A6D9D7"/>
<path d="M279.5 220.266C279.5 286.65 225.995 340.46 160 340.46C94.0047 340.46 40.5 286.65 40.5 220.266C40.5 153.882 94.0047 100.072 160 100.072C225.995 100.072 279.5 153.882 279.5 220.266Z" stroke="#A6D9D7"/>
<path d="M319.5 220.266C319.5 308.869 248.087 380.691 160 380.691C71.9133 380.691 0.5 308.869 0.5 220.266C0.5 131.663 71.9133 59.8411 160 59.8411C248.087 59.8411 319.5 131.663 319.5 220.266Z" stroke="#A6D9D7"/>
<g filter="url(#filter1_d_1264_4856)">
<ellipse cx="379" cy="62.3584" rx="40" ry="40.2312" fill="#1A817C"/>
</g>
<path fill-rule="evenodd" clip-rule="evenodd" d="M385 54.3121C385 57.645 382.314 60.3468 379 60.3468C375.686 60.3468 373 57.645 373 54.3121C373 50.9793 375.686 48.2775 379 48.2775C382.314 48.2775 385 50.9793 385 54.3121ZM383 54.3121C383 56.5341 381.209 58.3353 379 58.3353C376.791 58.3353 375 56.5341 375 54.3121C375 52.0902 376.791 50.289 379 50.289C381.209 50.289 383 52.0902 383 54.3121Z" fill="white"/>
<path fill-rule="evenodd" clip-rule="evenodd" d="M389 76.4393C390.105 76.4393 391 75.5387 391 74.4278C391 67.762 385.627 62.3584 379 62.3584C372.373 62.3584 367 67.762 367 74.4278C367 75.5387 367.895 76.4393 369 76.4393H389ZM379 64.37C374.162 64.37 370.127 67.8253 369.2 72.4162C369.069 73.0662 369 73.7389 369 74.4278H389C389 73.7389 388.931 73.0662 388.8 72.4162C387.873 67.8253 383.838 64.37 379 64.37Z" fill="white"/>
<path d="M458.5 62.3584C458.5 106.523 422.904 142.321 379 142.321C335.096 142.321 299.5 106.523 299.5 62.3584C299.5 18.1937 335.096 -17.604 379 -17.604C422.904 -17.604 458.5 18.1937 458.5 62.3584Z" stroke="#A6D9D7"/>
<path d="M498.5 62.3584C498.5 128.742 444.995 182.552 379 182.552C313.005 182.552 259.5 128.742 259.5 62.3584C259.5 -4.0254 313.005 -57.8352 379 -57.8352C444.995 -57.8352 498.5 -4.0254 498.5 62.3584Z" stroke="#A6D9D7"/>
<path d="M538.5 62.3583C538.5 150.961 467.087 222.783 379 222.783C290.913 222.783 219.5 150.961 219.5 62.3583C219.5 -26.2446 290.913 -98.0665 379 -98.0665C467.087 -98.0665 538.5 -26.2446 538.5 62.3583Z" stroke="#A6D9D7"/>
</g>
<defs>
<filter id="filter0_d_1264_4856" x="96" y="172.035" width="128" height="128.462" filterUnits="userSpaceOnUse" color-interpolation-filters="sRGB">
<feFlood flood-opacity="0" result="BackgroundImageFix"/>
<feColorMatrix in="SourceAlpha" type="matrix" values="0 0 0 0 0 0 0 0 0 0 0 0 0 0 0 0 0 0 127 0" result="hardAlpha"/>
<feOffset dy="16"/>
<feGaussianBlur stdDeviation="12"/>
<feComposite in2="hardAlpha" operator="out"/>
<feColorMatrix type="matrix" values="0 0 0 0 0.12549 0 0 0 0 0.172549 0 0 0 0 0.34902 0 0 0 0.2 0"/>
<feBlend mode="normal" in2="BackgroundImageFix" result="effect1_dropShadow_1264_4856"/>
<feBlend mode="normal" in="SourceGraphic" in2="effect1_dropShadow_1264_4856" result="shape"/>
</filter>
<filter id="filter1_d_1264_4856" x="315" y="14.1272" width="128" height="128.462" filterUnits="userSpaceOnUse" color-interpolation-filters="sRGB">
<feFlood flood-opacity="0" result="BackgroundImageFix"/>
<feColorMatrix in="SourceAlpha" type="matrix" values="0 0 0 0 0 0 0 0 0 0 0 0 0 0 0 0 0 0 127 0" result="hardAlpha"/>
<feOffset dy="16"/>
<feGaussianBlur stdDeviation="12"/>
<feComposite in2="hardAlpha" operator="out"/>
<feColorMatrix type="matrix" values="0 0 0 0 0.12549 0 0 0 0 0.172549 0 0 0 0 0.34902 0 0 0 0.2 0"/>
<feBlend mode="normal" in2="BackgroundImageFix" result="effect1_dropShadow_1264_4856"/>
<feBlend mode="normal" in="SourceGraphic" in2="effect1_dropShadow_1264_4856" result="shape"/>
</filter>
</defs>
</svg>
