<?xml version="1.0" encoding="UTF-8"?>
<svg xmlns="http://www.w3.org/2000/svg" xmlns:xlink="http://www.w3.org/1999/xlink" width="20px" height="19px" viewBox="0 0 19 19" version="1.1">
<g id="surface1">
<path style=" stroke:none;fill-rule:nonzero;fill:rgb(10.980392%,56.470591%,53.333336%);fill-opacity:1;" d="M 7.90625 0.921875 C 7.976562 0.984375 8.042969 1.050781 8.113281 1.113281 C 8.144531 1.140625 8.175781 1.167969 8.210938 1.203125 C 8.703125 1.648438 9.144531 2.265625 9.457031 2.875 C 9.457031 2.90625 9.457031 2.933594 9.457031 2.964844 C 9.488281 2.964844 9.511719 2.964844 9.542969 2.964844 C 9.554688 2.933594 9.5625 2.902344 9.578125 2.867188 C 9.746094 2.441406 10.046875 2.0625 10.324219 1.714844 C 10.355469 1.671875 10.390625 1.632812 10.421875 1.589844 C 11.171875 0.664062 12.1875 0.140625 13.320312 0 C 13.546875 -0.015625 13.78125 -0.0195312 14.015625 -0.0195312 C 14.042969 -0.0195312 14.078125 -0.0195312 14.109375 -0.0195312 C 14.613281 -0.015625 15.089844 0.0195312 15.574219 0.183594 C 15.617188 0.203125 15.617188 0.203125 15.664062 0.214844 C 16.332031 0.4375 16.914062 0.800781 17.4375 1.296875 C 17.464844 1.320312 17.492188 1.34375 17.523438 1.367188 C 18.332031 2.058594 18.859375 3.246094 18.988281 4.328125 C 19.226562 7.589844 17.378906 10.425781 15.492188 12.785156 C 15.285156 13.042969 15.074219 13.296875 14.855469 13.546875 C 14.765625 13.652344 14.675781 13.757812 14.585938 13.867188 C 14.460938 14.023438 14.332031 14.164062 14.191406 14.304688 C 14.113281 14.394531 14.039062 14.488281 13.964844 14.578125 C 13.792969 14.789062 13.609375 14.984375 13.425781 15.183594 C 13.371094 15.238281 13.371094 15.238281 13.320312 15.292969 C 13.25 15.371094 13.175781 15.449219 13.105469 15.527344 C 12.996094 15.640625 12.882812 15.757812 12.777344 15.878906 C 12.703125 15.953125 12.632812 16.027344 12.5625 16.105469 C 12.53125 16.136719 12.5 16.171875 12.464844 16.207031 C 12.289062 16.394531 12.109375 16.574219 11.917969 16.75 C 11.789062 16.875 11.664062 17.011719 11.539062 17.148438 C 11.355469 17.347656 11.171875 17.535156 10.96875 17.71875 C 10.835938 17.84375 10.71875 17.980469 10.59375 18.109375 C 10.480469 18.230469 10.359375 18.339844 10.238281 18.453125 C 10.101562 18.582031 9.972656 18.726562 9.839844 18.871094 C 9.710938 19.003906 9.605469 19.023438 9.421875 19.019531 C 9.230469 18.980469 9.113281 18.820312 8.980469 18.675781 C 8.949219 18.648438 8.921875 18.613281 8.894531 18.582031 C 8.835938 18.519531 8.777344 18.460938 8.71875 18.394531 C 8.636719 18.308594 8.546875 18.226562 8.460938 18.144531 C 8.332031 18.027344 8.210938 17.902344 8.089844 17.773438 C 7.976562 17.644531 7.859375 17.53125 7.734375 17.417969 C 7.535156 17.234375 7.355469 17.035156 7.167969 16.832031 C 7.042969 16.695312 6.914062 16.570312 6.78125 16.445312 C 6.582031 16.257812 6.394531 16.0625 6.210938 15.863281 C 6.171875 15.824219 6.140625 15.789062 6.101562 15.75 C 6.027344 15.667969 5.953125 15.589844 5.878906 15.507812 C 5.765625 15.386719 5.652344 15.269531 5.539062 15.148438 C 5.46875 15.070312 5.394531 14.992188 5.324219 14.914062 C 5.289062 14.878906 5.257812 14.84375 5.222656 14.808594 C 5.042969 14.613281 4.867188 14.417969 4.703125 14.210938 C 4.628906 14.121094 4.550781 14.035156 4.464844 13.949219 C 4.328125 13.800781 4.195312 13.648438 4.070312 13.488281 C 3.980469 13.378906 3.894531 13.273438 3.800781 13.167969 C 3.632812 12.96875 3.476562 12.769531 3.320312 12.5625 C 3.238281 12.457031 3.160156 12.355469 3.078125 12.253906 C 2.53125 11.539062 2.015625 10.796875 1.5625 10.007812 C 1.546875 9.980469 1.523438 9.949219 1.507812 9.917969 C 0.488281 8.179688 -0.335938 5.980469 0.0859375 3.898438 C 0.261719 3.105469 0.582031 2.429688 1.082031 1.804688 C 1.125 1.757812 1.125 1.757812 1.160156 1.703125 C 1.738281 0.960938 2.574219 0.464844 3.425781 0.183594 C 3.453125 0.175781 3.484375 0.167969 3.515625 0.15625 C 4.921875 -0.296875 6.742188 -0.0546875 7.90625 0.921875 Z M 1.597656 2.328125 C 0.902344 3.195312 0.636719 4.28125 0.710938 5.402344 C 0.894531 7.632812 2.0625 9.640625 3.339844 11.351562 C 3.359375 11.382812 3.382812 11.410156 3.402344 11.441406 C 3.867188 12.054688 4.34375 12.65625 4.847656 13.230469 C 4.9375 13.332031 5.023438 13.429688 5.109375 13.53125 C 5.578125 14.082031 6.074219 14.605469 6.570312 15.132812 C 6.691406 15.269531 6.820312 15.402344 6.945312 15.535156 C 7.042969 15.640625 7.140625 15.746094 7.238281 15.851562 C 7.285156 15.902344 7.335938 15.949219 7.382812 16 C 7.609375 16.242188 7.835938 16.488281 8.082031 16.710938 C 8.195312 16.8125 8.292969 16.921875 8.394531 17.03125 C 8.554688 17.203125 8.71875 17.371094 8.894531 17.527344 C 9.03125 17.65625 9.15625 17.800781 9.28125 17.941406 C 9.394531 18.054688 9.394531 18.054688 9.542969 18.074219 C 9.648438 17.996094 9.648438 17.996094 9.753906 17.886719 C 9.789062 17.847656 9.828125 17.808594 9.867188 17.769531 C 9.984375 17.648438 10.09375 17.53125 10.207031 17.410156 C 10.28125 17.328125 10.363281 17.253906 10.445312 17.179688 C 10.632812 17.007812 10.804688 16.820312 10.976562 16.628906 C 11.066406 16.535156 11.15625 16.449219 11.25 16.363281 C 11.515625 16.121094 11.753906 15.859375 11.996094 15.597656 C 12.050781 15.539062 12.101562 15.488281 12.15625 15.429688 C 12.261719 15.3125 12.371094 15.195312 12.480469 15.082031 C 12.621094 14.933594 12.757812 14.785156 12.898438 14.636719 C 13.003906 14.519531 13.113281 14.40625 13.222656 14.289062 C 13.273438 14.234375 13.320312 14.179688 13.371094 14.125 C 13.617188 13.867188 13.859375 13.609375 14.082031 13.332031 C 14.1875 13.191406 14.304688 13.066406 14.417969 12.9375 C 14.621094 12.707031 14.8125 12.46875 15 12.222656 C 15.082031 12.113281 15.171875 12.003906 15.257812 11.894531 C 16.832031 9.949219 18.457031 7.308594 18.296875 4.621094 C 18.21875 3.695312 17.847656 2.859375 17.265625 2.175781 C 17.238281 2.144531 17.210938 2.113281 17.179688 2.078125 C 16.464844 1.257812 15.351562 0.769531 14.304688 0.730469 C 13.566406 0.714844 12.871094 0.773438 12.1875 1.113281 C 12.148438 1.132812 12.109375 1.152344 12.066406 1.167969 C 11.058594 1.710938 10.433594 2.773438 9.882812 3.78125 C 9.863281 3.820312 9.84375 3.859375 9.824219 3.898438 C 9.792969 3.949219 9.792969 3.949219 9.765625 4 C 9.714844 4.078125 9.714844 4.078125 9.632812 4.125 C 9.507812 4.140625 9.507812 4.140625 9.367188 4.125 C 9.183594 3.953125 9.078125 3.769531 8.96875 3.542969 C 8.40625 2.445312 7.59375 1.324219 6.421875 0.945312 C 4.632812 0.40625 2.878906 0.875 1.597656 2.328125 Z M 1.597656 2.328125 "/>
</g>
</svg>