<?xml version="1.0" encoding="UTF-8"?>
<svg xmlns="http://www.w3.org/2000/svg" xmlns:xlink="http://www.w3.org/1999/xlink" width="20px" height="20px" viewBox="-4 0 30 24" version="1.1">
<g id="surface1">
<path style=" stroke:none;fill-rule:nonzero;fill:rgb(10.980392%,56.470591%,53.333336%);fill-opacity:1;" d="M 10.402344 1.167969 C 10.492188 1.246094 10.582031 1.324219 10.671875 1.40625 C 10.71875 1.441406 10.761719 1.476562 10.804688 1.515625 C 11.453125 2.078125 12.035156 2.863281 12.441406 3.628906 C 12.441406 3.667969 12.441406 3.707031 12.441406 3.746094 C 12.480469 3.746094 12.519531 3.746094 12.558594 3.746094 C 12.570312 3.703125 12.585938 3.664062 12.601562 3.621094 C 12.824219 3.085938 13.21875 2.609375 13.585938 2.164062 C 13.628906 2.113281 13.671875 2.0625 13.714844 2.007812 C 14.699219 0.839844 16.035156 0.179688 17.523438 0 C 17.828125 -0.0195312 18.132812 -0.0234375 18.441406 -0.0234375 C 18.480469 -0.0234375 18.523438 -0.0234375 18.566406 -0.0234375 C 19.230469 -0.0195312 19.855469 0.0273438 20.492188 0.234375 C 20.550781 0.253906 20.550781 0.253906 20.609375 0.269531 C 21.488281 0.554688 22.253906 1.015625 22.945312 1.640625 C 22.980469 1.667969 23.015625 1.699219 23.054688 1.726562 C 24.121094 2.597656 24.8125 4.097656 24.984375 5.46875 C 25.300781 9.582031 22.863281 13.167969 20.382812 16.152344 C 20.113281 16.476562 19.832031 16.796875 19.546875 17.113281 C 19.425781 17.246094 19.3125 17.378906 19.195312 17.515625 C 19.03125 17.710938 18.855469 17.894531 18.675781 18.074219 C 18.570312 18.183594 18.472656 18.296875 18.371094 18.414062 C 18.148438 18.679688 17.910156 18.929688 17.664062 19.179688 C 17.597656 19.246094 17.597656 19.246094 17.527344 19.320312 C 17.433594 19.417969 17.339844 19.515625 17.242188 19.613281 C 17.097656 19.757812 16.953125 19.90625 16.808594 20.054688 C 16.71875 20.152344 16.625 20.246094 16.53125 20.339844 C 16.488281 20.386719 16.445312 20.429688 16.402344 20.472656 C 16.171875 20.710938 15.933594 20.9375 15.683594 21.15625 C 15.507812 21.316406 15.347656 21.488281 15.183594 21.660156 C 14.941406 21.910156 14.695312 22.152344 14.433594 22.382812 C 14.257812 22.539062 14.101562 22.707031 13.9375 22.875 C 13.789062 23.027344 13.632812 23.167969 13.472656 23.308594 C 13.289062 23.476562 13.121094 23.65625 12.949219 23.835938 C 12.78125 24.003906 12.636719 24.03125 12.398438 24.027344 C 12.144531 23.972656 11.988281 23.773438 11.816406 23.589844 C 11.777344 23.550781 11.738281 23.511719 11.699219 23.472656 C 11.625 23.394531 11.546875 23.316406 11.472656 23.238281 C 11.363281 23.125 11.25 23.023438 11.132812 22.921875 C 10.964844 22.769531 10.804688 22.613281 10.644531 22.449219 C 10.492188 22.292969 10.34375 22.140625 10.175781 22 C 9.914062 21.769531 9.675781 21.515625 9.433594 21.261719 C 9.269531 21.089844 9.101562 20.925781 8.921875 20.769531 C 8.660156 20.535156 8.414062 20.289062 8.171875 20.035156 C 8.125 19.988281 8.078125 19.941406 8.03125 19.890625 C 7.933594 19.792969 7.835938 19.691406 7.738281 19.589844 C 7.589844 19.4375 7.4375 19.285156 7.289062 19.132812 C 7.195312 19.035156 7.101562 18.9375 7.003906 18.839844 C 6.960938 18.792969 6.917969 18.75 6.871094 18.703125 C 6.632812 18.460938 6.40625 18.210938 6.1875 17.949219 C 6.089844 17.835938 5.988281 17.726562 5.878906 17.621094 C 5.695312 17.433594 5.523438 17.242188 5.355469 17.042969 C 5.238281 16.902344 5.121094 16.769531 5 16.636719 C 4.78125 16.386719 4.570312 16.128906 4.367188 15.867188 C 4.261719 15.738281 4.160156 15.609375 4.054688 15.476562 C 3.328125 14.574219 2.65625 13.640625 2.054688 12.644531 C 2.03125 12.605469 2.007812 12.566406 1.984375 12.527344 C 0.644531 10.332031 -0.441406 7.554688 0.113281 4.925781 C 0.347656 3.921875 0.769531 3.066406 1.425781 2.28125 C 1.476562 2.21875 1.476562 2.21875 1.527344 2.152344 C 2.289062 1.214844 3.386719 0.585938 4.507812 0.234375 C 4.546875 0.222656 4.585938 0.210938 4.625 0.195312 C 6.472656 -0.375 8.875 -0.0703125 10.402344 1.167969 Z M 2.105469 2.941406 C 1.191406 4.035156 0.839844 5.402344 0.9375 6.824219 C 1.175781 9.644531 2.710938 12.179688 4.394531 14.339844 C 4.421875 14.378906 4.449219 14.414062 4.480469 14.449219 C 5.085938 15.230469 5.714844 15.988281 6.382812 16.714844 C 6.496094 16.839844 6.609375 16.964844 6.71875 17.09375 C 7.339844 17.785156 7.992188 18.449219 8.640625 19.113281 C 8.808594 19.285156 8.972656 19.453125 9.140625 19.625 C 9.269531 19.757812 9.398438 19.890625 9.527344 20.023438 C 9.589844 20.085938 9.648438 20.148438 9.710938 20.210938 C 10.011719 20.519531 10.3125 20.824219 10.636719 21.109375 C 10.78125 21.234375 10.910156 21.371094 11.042969 21.511719 C 11.253906 21.730469 11.472656 21.941406 11.703125 22.140625 C 11.882812 22.304688 12.046875 22.484375 12.210938 22.664062 C 12.363281 22.804688 12.363281 22.804688 12.558594 22.828125 C 12.699219 22.734375 12.699219 22.734375 12.832031 22.59375 C 12.882812 22.546875 12.933594 22.496094 12.984375 22.449219 C 13.132812 22.296875 13.285156 22.144531 13.429688 21.988281 C 13.53125 21.890625 13.636719 21.796875 13.742188 21.703125 C 13.988281 21.484375 14.21875 21.246094 14.445312 21.003906 C 14.5625 20.886719 14.679688 20.777344 14.804688 20.667969 C 15.148438 20.363281 15.464844 20.03125 15.785156 19.703125 C 15.855469 19.632812 15.921875 19.558594 15.992188 19.488281 C 16.136719 19.34375 16.277344 19.195312 16.421875 19.046875 C 16.605469 18.859375 16.789062 18.671875 16.96875 18.484375 C 17.113281 18.339844 17.253906 18.195312 17.394531 18.050781 C 17.464844 17.980469 17.53125 17.910156 17.597656 17.84375 C 17.917969 17.515625 18.234375 17.191406 18.527344 16.835938 C 18.667969 16.667969 18.820312 16.507812 18.972656 16.34375 C 19.238281 16.050781 19.492188 15.75 19.738281 15.4375 C 19.847656 15.296875 19.960938 15.160156 20.078125 15.023438 C 22.144531 12.566406 24.285156 9.234375 24.074219 5.839844 C 23.972656 4.671875 23.480469 3.613281 22.71875 2.75 C 22.679688 2.710938 22.644531 2.667969 22.609375 2.625 C 21.660156 1.585938 20.195312 0.972656 18.824219 0.921875 C 17.847656 0.902344 16.933594 0.980469 16.039062 1.40625 C 15.988281 1.429688 15.933594 1.453125 15.878906 1.480469 C 14.550781 2.160156 13.730469 3.503906 13.007812 4.777344 C 12.980469 4.824219 12.953125 4.871094 12.925781 4.921875 C 12.886719 4.988281 12.886719 4.988281 12.851562 5.050781 C 12.785156 5.152344 12.785156 5.152344 12.671875 5.210938 C 12.511719 5.230469 12.511719 5.230469 12.328125 5.210938 C 12.082031 4.996094 11.945312 4.761719 11.800781 4.476562 C 11.0625 3.089844 9.992188 1.675781 8.453125 1.195312 C 6.09375 0.515625 3.785156 1.105469 2.105469 2.941406 Z M 2.105469 2.941406 "/>
</g>
</svg>