<?xml version="1.0" encoding="UTF-8"?>
<svg xmlns="http://www.w3.org/2000/svg" xmlns:xlink="http://www.w3.org/1999/xlink" width="22px" height="21px" viewBox="0 0 22 21" version="1.1">
<g id="surface1">
<path style=" stroke:none;fill-rule:nonzero;fill:rgb(10.980392%,56.470591%,53.333336%);fill-opacity:1;" d="M 9.152344 1.019531 C 9.234375 1.089844 9.3125 1.160156 9.394531 1.230469 C 9.429688 1.261719 9.46875 1.292969 9.507812 1.328125 C 10.078125 1.820312 10.589844 2.503906 10.949219 3.175781 C 10.949219 3.210938 10.949219 3.242188 10.949219 3.277344 C 10.984375 3.277344 11.015625 3.277344 11.050781 3.277344 C 11.0625 3.242188 11.074219 3.207031 11.089844 3.167969 C 11.285156 2.699219 11.632812 2.28125 11.953125 1.894531 C 11.992188 1.847656 12.03125 1.804688 12.066406 1.757812 C 12.9375 0.734375 14.113281 0.15625 15.421875 0 C 15.6875 -0.015625 15.957031 -0.0195312 16.226562 -0.0195312 C 16.261719 -0.0195312 16.300781 -0.0195312 16.335938 -0.0195312 C 16.921875 -0.015625 17.472656 0.0234375 18.03125 0.203125 C 18.082031 0.222656 18.082031 0.222656 18.136719 0.238281 C 18.910156 0.484375 19.585938 0.886719 20.191406 1.433594 C 20.222656 1.460938 20.253906 1.484375 20.289062 1.511719 C 21.226562 2.273438 21.835938 3.585938 21.984375 4.785156 C 22.261719 8.386719 20.121094 11.523438 17.9375 14.132812 C 17.699219 14.417969 17.453125 14.695312 17.203125 14.972656 C 17.097656 15.089844 16.992188 15.207031 16.890625 15.328125 C 16.746094 15.5 16.59375 15.65625 16.433594 15.8125 C 16.339844 15.910156 16.253906 16.011719 16.167969 16.113281 C 15.96875 16.34375 15.757812 16.5625 15.546875 16.78125 C 15.484375 16.84375 15.484375 16.84375 15.425781 16.902344 C 15.339844 16.988281 15.257812 17.074219 15.175781 17.160156 C 15.046875 17.289062 14.917969 17.417969 14.792969 17.550781 C 14.710938 17.632812 14.628906 17.714844 14.546875 17.800781 C 14.511719 17.835938 14.472656 17.875 14.433594 17.914062 C 14.230469 18.121094 14.023438 18.320312 13.800781 18.511719 C 13.648438 18.652344 13.503906 18.800781 13.359375 18.953125 C 13.148438 19.171875 12.933594 19.382812 12.699219 19.585938 C 12.546875 19.722656 12.410156 19.871094 12.265625 20.015625 C 12.136719 20.148438 11.996094 20.269531 11.855469 20.394531 C 11.695312 20.539062 11.546875 20.699219 11.394531 20.855469 C 11.246094 21.003906 11.121094 21.027344 10.910156 21.023438 C 10.6875 20.976562 10.550781 20.800781 10.398438 20.640625 C 10.363281 20.609375 10.332031 20.574219 10.296875 20.539062 C 10.230469 20.46875 10.164062 20.402344 10.09375 20.332031 C 10 20.234375 9.898438 20.144531 9.796875 20.054688 C 9.648438 19.925781 9.507812 19.785156 9.367188 19.644531 C 9.234375 19.503906 9.101562 19.375 8.957031 19.25 C 8.726562 19.046875 8.515625 18.828125 8.300781 18.605469 C 8.15625 18.453125 8.007812 18.3125 7.851562 18.175781 C 7.621094 17.96875 7.40625 17.753906 7.191406 17.53125 C 7.148438 17.488281 7.109375 17.449219 7.066406 17.40625 C 6.980469 17.316406 6.894531 17.230469 6.808594 17.140625 C 6.675781 17.007812 6.546875 16.875 6.414062 16.742188 C 6.332031 16.65625 6.246094 16.570312 6.164062 16.484375 C 6.125 16.445312 6.085938 16.40625 6.046875 16.367188 C 5.839844 16.152344 5.636719 15.933594 5.445312 15.707031 C 5.359375 15.605469 5.269531 15.511719 5.171875 15.417969 C 5.011719 15.253906 4.859375 15.085938 4.714844 14.910156 C 4.609375 14.789062 4.507812 14.671875 4.402344 14.554688 C 4.207031 14.335938 4.023438 14.113281 3.84375 13.886719 C 3.75 13.769531 3.660156 13.65625 3.566406 13.542969 C 2.929688 12.753906 2.335938 11.933594 1.808594 11.0625 C 1.789062 11.03125 1.765625 10.996094 1.746094 10.960938 C 0.566406 9.039062 -0.386719 6.609375 0.0976562 4.308594 C 0.304688 3.433594 0.675781 2.683594 1.253906 1.996094 C 1.300781 1.941406 1.300781 1.941406 1.34375 1.882812 C 2.011719 1.0625 2.980469 0.511719 3.96875 0.203125 C 4 0.195312 4.035156 0.183594 4.070312 0.171875 C 5.699219 -0.328125 7.808594 -0.0585938 9.152344 1.019531 Z M 1.851562 2.574219 C 1.046875 3.53125 0.738281 4.730469 0.824219 5.972656 C 1.035156 8.4375 2.386719 10.65625 3.867188 12.546875 C 3.890625 12.582031 3.917969 12.613281 3.941406 12.644531 C 4.476562 13.324219 5.03125 13.988281 5.613281 14.625 C 5.714844 14.734375 5.816406 14.84375 5.914062 14.957031 C 6.460938 15.5625 7.035156 16.144531 7.605469 16.726562 C 7.75 16.875 7.898438 17.023438 8.042969 17.171875 C 8.15625 17.289062 8.269531 17.402344 8.382812 17.519531 C 8.4375 17.574219 8.492188 17.628906 8.546875 17.683594 C 8.808594 17.953125 9.074219 18.222656 9.359375 18.46875 C 9.488281 18.582031 9.601562 18.703125 9.71875 18.824219 C 9.90625 19.015625 10.097656 19.199219 10.296875 19.371094 C 10.457031 19.515625 10.601562 19.675781 10.746094 19.832031 C 10.878906 19.953125 10.878906 19.953125 11.050781 19.976562 C 11.171875 19.890625 11.171875 19.890625 11.292969 19.769531 C 11.335938 19.726562 11.378906 19.683594 11.425781 19.640625 C 11.558594 19.507812 11.6875 19.375 11.820312 19.242188 C 11.90625 19.152344 12 19.070312 12.09375 18.988281 C 12.3125 18.796875 12.511719 18.589844 12.710938 18.378906 C 12.8125 18.277344 12.917969 18.179688 13.027344 18.085938 C 13.332031 17.816406 13.609375 17.527344 13.890625 17.238281 C 13.953125 17.175781 14.011719 17.117188 14.074219 17.054688 C 14.199219 16.925781 14.324219 16.796875 14.453125 16.667969 C 14.613281 16.503906 14.773438 16.339844 14.933594 16.175781 C 15.058594 16.046875 15.183594 15.921875 15.308594 15.792969 C 15.367188 15.734375 15.425781 15.671875 15.484375 15.613281 C 15.765625 15.328125 16.046875 15.042969 16.304688 14.734375 C 16.429688 14.582031 16.5625 14.441406 16.695312 14.300781 C 16.929688 14.042969 17.152344 13.78125 17.367188 13.507812 C 17.464844 13.386719 17.566406 13.265625 17.667969 13.144531 C 19.488281 10.996094 21.371094 8.078125 21.183594 5.109375 C 21.097656 4.085938 20.664062 3.160156 19.992188 2.40625 C 19.960938 2.371094 19.929688 2.335938 19.894531 2.296875 C 19.0625 1.390625 17.773438 0.851562 16.5625 0.808594 C 15.707031 0.789062 14.902344 0.855469 14.113281 1.230469 C 14.066406 1.25 14.023438 1.273438 13.972656 1.292969 C 12.804688 1.890625 12.082031 3.066406 11.445312 4.179688 C 11.421875 4.222656 11.398438 4.265625 11.375 4.308594 C 11.339844 4.363281 11.339844 4.363281 11.308594 4.421875 C 11.25 4.507812 11.25 4.507812 11.152344 4.558594 C 11.007812 4.578125 11.007812 4.578125 10.847656 4.558594 C 10.632812 4.371094 10.511719 4.167969 10.382812 3.917969 C 9.734375 2.703125 8.792969 1.464844 7.4375 1.046875 C 5.363281 0.449219 3.332031 0.96875 1.851562 2.574219 Z M 1.851562 2.574219 "/>
</g>
</svg>
