<?xml version="1.0" encoding="utf-8"?>
<!-- Generator: Adobe Illustrator 25.0.0, SVG Export Plug-In . SVG Version: 6.00 Build 0)  -->
<svg version="1.1" id="Layer_1" xmlns="http://www.w3.org/2000/svg" xmlns:xlink="http://www.w3.org/1999/xlink" x="0px" y="0px"
	 viewBox="0 0 640 512" style="enable-background:new 0 0 640 512;" xml:space="preserve">
<style type="text/css">
	.st0{fill:#FFFFFF;}
	.st1{fill:#A0522D;}
	.st2{fill:#333333;}
</style>
<path class="st0" d="M35.1,256.6C92.5,385.5,198.6,472,320,472c121.4,0,227.5-86.6,284.9-215.5C547.5,127.6,441.4,41.1,320,41.1
	C198.6,41.1,92.5,127.7,35.1,256.6z"/>
<circle class="st1" cx="320" cy="254.9" r="125.3"/>
<path class="st2" d="M636.1,497.7c4.3,2.8,4.9,7.8,2.2,10.4c-2.8,4.3-7.8,4.9-11.3,2.2L3,14.3C-0.4,11.5-1,6.5,1.7,3
	C4.5-0.4,9.5-1,13,1.7L636.1,497.7z M605.5,268.3c-9.6,23-26,52.8-49,82.7l-13.4-9.9c22.9-28.7,38.6-58,47.7-78.9
	c1.6-4,1.6-8.4,0-12.4c-14.1-34.7-44.2-83.8-89.1-125.5c-45.1-41.9-106.1-77.2-182.6-77.2c-41.2,0-78.8,11.6-111.7,28.3l-13.7-10.8
	c36.2-19.6,78.5-33.5,126.3-33.5c80.8,0,145.5,37.7,192.6,81.5c46.8,43.4,78.1,94.5,92.9,131.1C608.8,251.6,608.8,260.4,605.5,268.3
	L605.5,268.3z M83.5,160.1L96,170.9c-22,28.7-37.7,57.1-46.8,78.9c-1.6,4-1.6,8.4,0,12.4c14.1,33.8,44.1,82.9,89.1,125.5
	C183.4,429.6,244.4,464,320,464c42.1,0,79.7-10.7,112.6-27.4l13.7,10.9c-36.2,19.6-78.5,32.5-127.2,32.5
	c-79.9,0-144.6-36.8-191.7-80.6C80.6,355.1,49.3,304,34.5,268.3c-3.3-7.9-3.3-16.7,0-24.6C44.1,220.7,60.5,190.9,83.5,160.1
	L83.5,160.1z M208,259.4l17.5,13.7c8.1,44,47.3,78.9,94.5,78.9c1.8,0,3.5-0.9,5.2-0.1l17.5,13.8c-7.3,1.5-14.9,2.3-22.7,2.3
	C259.3,368,209.8,319.7,208,259.4L208,259.4z M319.1,143.1c61.6,0,111.1,49.2,112.8,109.5l-17.4-13.8c-8.1-44.8-47.3-79.7-95.4-79.7
	c-0.9,0-2.6,0.9-4.3,1l-17.5-13.8C304.6,144.8,312.2,143.1,319.1,143.1L319.1,143.1z"/>
</svg>
