<?xml version="1.0" encoding="utf-8"?>
<!-- Generator: Adobe Illustrator 25.0.0, SVG Export Plug-In . SVG Version: 6.00 Build 0)  -->
<svg version="1.1" id="Layer_1" xmlns="http://www.w3.org/2000/svg" xmlns:xlink="http://www.w3.org/1999/xlink" x="0px" y="0px"
	 viewBox="0 0 640 512" style="enable-background:new 0 0 640 512;" xml:space="preserve">
<style type="text/css">
	.st0{opacity:0.6;enable-background:new    ;}
	.st1{fill:#808080;}
</style>
<g id="Layer_2_1_">
	<g class="st0">
		<path class="st1" d="M376.5,132.1c49.8,49.8,49.2,131.9-1.4,182.5L242.5,447.2c-50.6,50.6-132.7,51.2-182.5,1.4
			s-49.2-131.9,1.4-182.5L194,133.5C244.6,82.9,326.7,82.3,376.5,132.1z"/>
	</g>
	<g class="st0">
		<path class="st1" d="M580,64.4c49.8,49.8,49.2,131.9-1.4,182.5L446,379.5c-50.6,50.6-132.7,51.2-182.5,1.4s-49.2-131.9,1.4-182.5
			L397.5,65.8C448,15.3,530.2,14.6,580,64.4z"/>
	</g>
</g>
<path class="gray" d="M444.5,380.5c-50,49.9-131.1,49.9-181.1,0c-50-50-50-131.1,0-181.1l39.6-39.6c3.2-3.1,8.2-3.1,11.3,0
	c3.2,2.3,3.2,8.2,0,11.3l-39.6,39.6c-43.7,43.8-43.7,114.7,0,158.4c43.8,43.8,114.7,43.8,158.4,0l135.8-135.7
	c43.7-43.8,43.7-114.7,0-158.4c-43.7-43.7-114.7-43.7-158.4,0l-17,17c-3.1,3.1-8.1,3.1-11.3,0c-3.1-3.1-3.1-8.2,0-11.3l17-17
	c50-50,131-50,181,0c50,50,50,131,0,181L444.5,380.5z M195.5,131.5c50-49.9,131.1-49.9,181.1,0c50,50,50,131.1,0,181.1l-40.5,39.6
	c-2.3,3.1-7.3,3.1-10.4,0c-3.2-3.2-3.2-9.1,0-11.3l39.6-39.6c42.8-43.8,42.8-114.7,0-158.4c-43.8-43.8-114.7-43.8-158.4,0
	L71.1,278.6c-43.7,43.8-43.7,114.7,0,158.4c43.7,43.8,114.7,43.8,158.4,0l17-17c3.1-3.1,8.2-3.1,11.3,0c3.1,3.2,3.1,8.2,0,11.4
	l-17,16.9c-50,50-131,50-181,0c-50-50-50-131,0-181L195.5,131.5z"/>
</svg>
