<svg width="16" height="16" viewBox="0 0 16 16" fill="none" xmlns="http://www.w3.org/2000/svg">
<path d="M9.63636 2C9.33512 2 9.09091 2.24421 9.09091 2.54545C9.09091 2.8467 9.33512 3.09091 9.63636 3.09091H12.1378L7.61439 7.61431C7.40137 7.82732 7.40137 8.17268 7.61439 8.38569C7.8274 8.59871 8.17276 8.59871 8.38578 8.38569L12.9091 3.86238V6.36364C12.9091 6.66488 13.1533 6.90909 13.4545 6.90909C13.7558 6.90909 14 6.66488 14 6.36364V2.54545C14 2.24421 13.7558 2 13.4545 2H9.63636Z" fill="#1D9089"/>
<path d="M12.3636 8C12.6649 8 12.9091 8.24421 12.9091 8.54545V13.4545C12.9091 13.7558 12.6649 14 12.3636 14H2.54545C2.24421 14 2 13.7558 2 13.4545V3.63636C2 3.33512 2.24421 3.09091 2.54545 3.09091H7.45455C7.75579 3.09091 8 3.33512 8 3.63636C8 3.93761 7.75579 4.18182 7.45455 4.18182H3.09091V12.9091H11.8182V8.54545C11.8182 8.24421 12.0624 8 12.3636 8Z" fill="#1D9089"/>
</svg>
