<svg width="16" height="16" viewBox="0 0 16 16" fill="none" xmlns="http://www.w3.org/2000/svg">
<path fill-rule="evenodd" clip-rule="evenodd" d="M10.0442 10.7059C9.08701 11.5134 7.85033 12 6.5 12C3.46243 12 1 9.53757 1 6.5C1 3.46243 3.46243 1 6.5 1C9.53757 1 12 3.46243 12 6.5C12 7.85033 11.5134 9.08701 10.7059 10.0442C10.7594 10.0684 10.8096 10.1025 10.8536 10.1464L14.3536 13.6464C14.5488 13.8417 14.5488 14.1583 14.3536 14.3536C14.1583 14.5488 13.8417 14.5488 13.6464 14.3536L10.1464 10.8536C10.1025 10.8096 10.0684 10.7594 10.0442 10.7059ZM11 6.5C11 8.98528 8.98528 11 6.5 11C4.01472 11 2 8.98528 2 6.5C2 4.01472 4.01472 2 6.5 2C8.98528 2 11 4.01472 11 6.5Z" fill="#AFB7C2"/>
</svg>
