<svg width="24" height="24" viewBox="0 0 24 24" fill="none" xmlns="http://www.w3.org/2000/svg">
<path d="M3 4.5H9.5C10.8807 4.5 12 5.61929 12 7V19C12 19.2761 11.7761 19.5 11.5 19.5H3C2.72386 19.5 2.5 19.2761 2.5 19V5C2.5 4.72386 2.72386 4.5 3 4.5Z" stroke="#1D9089" stroke-linecap="round" stroke-linejoin="round"/>
<path d="M14.5 4.5H21C21.2761 4.5 21.5 4.72386 21.5 5V19C21.5 19.2761 21.2761 19.5 21 19.5H12.5C12.2239 19.5 12 19.2761 12 19V7C12 5.61929 13.1193 4.5 14.5 4.5Z" stroke="#1D9089" stroke-linecap="round" stroke-linejoin="round"/>
<path d="M12 6V20.5" stroke="#1D9089" stroke-linecap="round" stroke-linejoin="round"/>
</svg>
