<svg width="24" height="24" viewBox="0 0 24 24" fill="none" xmlns="http://www.w3.org/2000/svg">
  <path d="M4.22978 15.8964C4.17489 15.9513 4.13354 16.0182 4.10899 16.0919L2.52566 20.8419C2.46577 21.0216 2.51253 21.2196 2.64645 21.3536C2.78036 21.4875 2.97845 21.5342 3.15811 21.4743L7.90811 19.891C7.98175 19.8665 8.04867 19.8251 8.10355 19.7702L22.3536 5.52022C22.5488 5.32496 22.5488 5.00838 22.3536 4.81311L19.1869 1.64645C19.0931 1.55268 18.9659 1.5 18.8333 1.5C18.7007 1.5 18.5735 1.55268 18.4798 1.64645L4.22978 15.8964Z" stroke="#788492" stroke-linejoin="round"/>
  <path d="M16.4585 4.375L19.6252 7.54167" stroke="#788492"/>
</svg>
