<svg width="72" height="72" viewBox="0 0 72 72" fill="none" xmlns="http://www.w3.org/2000/svg">
<path d="M22.5001 35.4286C28.0032 35.4286 32.4644 30.9514 32.4644 25.4286C32.4644 19.9057 28.0032 15.4286 22.5001 15.4286C16.997 15.4286 12.5358 19.9057 12.5358 25.4286C12.5358 30.9514 16.997 35.4286 22.5001 35.4286Z" fill="url(#paint0_linear_1156_13161)" style="mix-blend-mode:multiply"/>
<path d="M22.5001 40.4286C12.2656 40.4286 3.82069 48.0654 2.58859 57.9335C2.41752 59.3037 3.55695 60.4286 4.94223 60.4286H40.058C41.4433 60.4286 42.5827 59.3037 42.4116 57.9335C41.1795 48.0654 32.7346 40.4286 22.5001 40.4286Z" fill="url(#paint1_linear_1156_13161)" style="mix-blend-mode:multiply"/>
<path d="M57.678 25.4287C57.678 30.6771 53.439 34.9287 48.2137 34.9287C42.9884 34.9287 38.7494 30.6771 38.7494 25.4287C38.7494 20.1803 42.9884 15.9287 48.2137 15.9287C53.439 15.9287 57.678 20.1803 57.678 25.4287ZM28.7984 57.9956C29.9994 48.3758 38.2333 40.9287 48.2137 40.9287C58.1942 40.9287 66.428 48.3758 67.6291 57.9956C67.7575 59.024 66.9016 59.9287 65.7716 59.9287H30.6559C29.5258 59.9287 28.67 59.024 28.7984 57.9956Z" fill="white" fill-opacity="0.6" stroke="#A6D9D7"/>
<defs>
<linearGradient id="paint0_linear_1156_13161" x1="42.4287" y1="60.4286" x2="-6.54141" y2="44.4783" gradientUnits="userSpaceOnUse">
<stop stop-color="#4DA7A6"/>
<stop offset="1" stop-color="#D3F2F0"/>
</linearGradient>
<linearGradient id="paint1_linear_1156_13161" x1="42.4287" y1="60.4286" x2="-6.54141" y2="44.4783" gradientUnits="userSpaceOnUse">
<stop stop-color="#4DA7A6"/>
<stop offset="1" stop-color="#D3F2F0"/>
</linearGradient>
</defs>
</svg>
