<svg width="40" height="40" viewBox="0 0 40 40" fill="none" xmlns="http://www.w3.org/2000/svg">
<circle cx="20" cy="20" r="20" fill="#EDFAF9"/>
<path fill-rule="evenodd" clip-rule="evenodd" d="M23 16C23 17.6569 21.6569 19 20 19C18.3431 19 17 17.6569 17 16C17 14.3431 18.3431 13 20 13C21.6569 13 23 14.3431 23 16ZM22 16C22 17.1046 21.1046 18 20 18C18.8954 18 18 17.1046 18 16C18 14.8954 18.8954 14 20 14C21.1046 14 22 14.8954 22 16Z" fill="#1D9089"/>
<path fill-rule="evenodd" clip-rule="evenodd" d="M25 27C25.5523 27 26 26.5523 26 26C26 22.6863 23.3137 20 20 20C16.6863 20 14 22.6863 14 26C14 26.5523 14.4477 27 15 27H25ZM20 21C17.581 21 15.5633 22.7178 15.1 25C15.0344 25.3231 15 25.6575 15 26H25C25 25.6575 24.9656 25.3231 24.9 25C24.4367 22.7178 22.419 21 20 21Z" fill="#1D9089"/>
</svg>
