<svg width="80" height="80" viewBox="0 0 80 80" fill="none" xmlns="http://www.w3.org/2000/svg">
<path fill-rule="evenodd" clip-rule="evenodd" d="M18.5714 8.57138C18.5714 6.99342 19.8505 5.71423 21.4285 5.71423H21.5969C24.9497 5.71423 27.8513 8.0462 28.5725 11.3205C28.7702 12.2179 29.5655 12.8571 30.4844 12.8571H54.2856C58.5829 12.8571 62.5636 14.2124 65.8237 16.5188C66.9317 17.3027 68.5714 17.0715 68.5714 15.7142C68.5714 13.3473 66.6526 11.4285 64.2856 11.4285C62.7077 11.4285 61.4285 10.1493 61.4285 8.57138C61.4285 6.99342 62.7077 5.71423 64.2856 5.71423C69.8085 5.71423 74.2856 10.1914 74.2856 15.7142C74.2856 17.5866 73.7711 19.3388 72.8756 20.8371C72.1824 21.9969 71.99 23.447 72.543 24.6798C73.6628 27.1761 74.2856 29.9439 74.2856 32.8571V42.8571C74.2856 50.1893 70.6031 56.6614 64.9866 60.5247C63.2774 61.7004 61.8545 63.3155 61.3152 65.3186L60.7088 67.5712C59.8691 70.6899 57.0412 72.8571 53.8115 72.8571H51.4285C49.8505 72.8571 48.5714 71.5779 48.5714 69.9999V67.2857C48.5714 65.6288 47.2282 64.2857 45.5714 64.2857H40.1428C38.4859 64.2857 37.1428 65.6288 37.1428 67.2857V69.9999C37.1428 71.5779 35.8636 72.8571 34.2856 72.8571H31.9026C28.6729 72.8571 25.845 70.6899 25.0054 67.5712C24.3519 65.144 22.4053 63.3403 20.2118 62.1128C17.8432 60.7873 15.8214 58.9158 14.3168 56.6689C14.1778 56.4613 14.0186 56.2675 13.8364 56.0966L6.99472 49.6826C5.26629 48.0622 4.28564 45.7986 4.28564 43.4294V31.4285C4.28564 29.8506 5.56483 28.5714 7.14279 28.5714H8.4285C10.0854 28.5714 11.3985 27.2161 11.7111 25.589C12.4231 21.8831 14.4369 18.6402 17.258 16.3548C18.0458 15.7165 18.5714 14.787 18.5714 13.7731V8.57138ZM34.2856 24.2857C34.2856 22.7077 35.5648 21.4285 37.1428 21.4285H48.5714C50.1493 21.4285 51.4285 22.7077 51.4285 24.2857C51.4285 25.8636 50.1493 27.1428 48.5714 27.1428H37.1428C35.5648 27.1428 34.2856 25.8636 34.2856 24.2857Z" fill="url(#paint0_linear_6778_2747)" style="mix-blend-mode:multiply"/>
<circle cx="42.8573" cy="12.8572" r="10.9286" fill="white" fill-opacity="0.8" stroke="#7AC0BE"/>
<defs>
<linearGradient id="paint0_linear_6778_2747" x1="74.5798" y1="72.4401" x2="-8.73895" y2="40.0267" gradientUnits="userSpaceOnUse">
<stop stop-color="#17736E"/>
<stop offset="1" stop-color="#7AC0BE"/>
</linearGradient>
</defs>
</svg>
