<svg width="80" height="80" viewBox="0 0 80 80" fill="none" xmlns="http://www.w3.org/2000/svg">
<path d="M8 15.5714C8 14.1513 9.15127 13 10.5714 13H32.4286C33.8487 13 35 14.1513 35 15.5714V22H32.4286C29.9433 22 27.9286 24.0147 27.9286 26.5C27.9286 28.9853 29.9433 31 32.4286 31H35V37C35 38.6569 36.3431 40 38 40H59.4286C60.8487 40 62 41.1513 62 42.5714V64.4286C62 65.8487 60.8487 67 59.4286 67H10.5714C9.15127 67 8 65.8487 8 64.4286V15.5714Z" fill="url(#paint0_linear_6828_8989)" style="mix-blend-mode:normal"/>
<path d="M45 28.5H45.5V28V21.5714C45.5 20.4264 46.426 19.5 47.566 19.5H69.434C70.574 19.5 71.5 20.4264 71.5 21.5714V43.4286C71.5 44.5736 70.574 45.5 69.434 45.5H47.6226C46.4495 45.5 45.5 44.613 45.5 43.5V37V36.5H45H42.4906C40.2876 36.5 38.5 34.7101 38.5 32.5C38.5 30.2899 40.2876 28.5 42.4906 28.5H45Z" fill="white" fill-opacity="0.8" stroke="white"/>
<defs>
<linearGradient id="paint0_linear_6828_8989" x1="93.5" y1="121" x2="114.696" y2="-17.0025" gradientUnits="userSpaceOnUse">
<stop stop-color="#4DA7A6"/>
<stop offset="1" stop-color="#A6D9D7"/>
</linearGradient>
</defs>
</svg>
