<svg width="16" height="16" viewBox="0 0 16 16" fill="none" xmlns="http://www.w3.org/2000/svg">
<path fill-rule="evenodd" clip-rule="evenodd" d="M8 13C10.7614 13 13 10.7614 13 8C13 5.23858 10.7614 3 8 3C5.23858 3 3 5.23858 3 8C3 10.7614 5.23858 13 8 13ZM8 14C11.3137 14 14 11.3137 14 8C14 4.68629 11.3137 2 8 2C4.68629 2 2 4.68629 2 8C2 11.3137 4.68629 14 8 14ZM5.8999 6.8C5.8999 5.6402 6.8401 4.7 7.9999 4.7C9.1597 4.7 10.0999 5.6402 10.0999 6.8C10.0999 7.78749 9.4183 8.6158 8.4999 8.84011V9.2C8.4999 9.47614 8.27604 9.7 7.9999 9.7C7.72376 9.7 7.4999 9.47614 7.4999 9.2V8.4C7.4999 8.12385 7.72376 7.9 7.9999 7.9C8.60742 7.9 9.0999 7.40751 9.0999 6.8C9.0999 6.19248 8.60742 5.7 7.9999 5.7C7.39239 5.7 6.8999 6.19248 6.8999 6.8C6.8999 7.07614 6.67604 7.3 6.3999 7.3C6.12376 7.3 5.8999 7.07614 5.8999 6.8ZM8 11.5C8.27614 11.5 8.5 11.2761 8.5 11C8.5 10.7239 8.27614 10.5 8 10.5C7.72386 10.5 7.5 10.7239 7.5 11C7.5 11.2761 7.72386 11.5 8 11.5Z" fill="#788492"/>
</svg>
