<svg width="24" height="24" viewBox="0 0 24 24" fill="none" xmlns="http://www.w3.org/2000/svg">
<circle cx="12" cy="12" r="4.5" stroke="#1D9089" stroke-linecap="square" stroke-linejoin="round"/>
<path d="M20.8829 15.122C21.0154 15.2796 21.0377 15.5023 20.9392 15.6831L19.5019 18.3193C19.3958 18.5139 19.1744 18.6154 18.9578 18.5688L17.6328 18.2838L17.6323 18.2837C16.9511 18.1365 16.2411 18.2581 15.6352 18.6295C15.0284 19.0016 14.5653 19.6007 14.3414 20.3188L14.3402 20.3227L14.3402 20.3227L13.9135 21.6527C13.8471 21.8597 13.6547 22 13.4374 22H10.5629C10.3419 22 10.147 21.8549 10.0838 21.6431L9.68046 20.2923C9.4563 19.5754 8.99358 18.9773 8.38756 18.6058C7.78166 18.2343 7.07165 18.1127 6.39048 18.26L6.38998 18.2601L5.06501 18.5451C4.84992 18.5913 4.62985 18.4916 4.52291 18.2993L3.0632 15.6749C2.96238 15.4936 2.98394 15.269 3.1174 15.1102L4.01568 14.0414L4.01666 14.0402C4.49071 13.4797 4.75622 12.7494 4.75622 11.9881C4.75622 11.2269 4.49071 10.4965 4.01667 9.936L4.01568 9.93483L3.1174 8.86608C2.98449 8.70795 2.9625 8.48436 3.06208 8.30337L4.49933 5.69087C4.60579 5.49735 4.82662 5.39661 5.04255 5.44306L6.36752 5.72806L6.36803 5.72816C7.04919 5.87542 7.7592 5.75381 8.3651 5.38234C8.9719 5.01032 9.43503 4.4112 9.65887 3.69309L9.65972 3.69036L9.65973 3.69036L10.0864 2.34849C10.1524 2.14095 10.3451 2 10.5629 2H13.4374C13.6556 2 13.8487 2.14155 13.9143 2.3497L14.341 3.70345L14.3414 3.70496C14.5653 4.42308 15.0284 5.0222 15.6352 5.39422C16.2411 5.76568 16.9511 5.8873 17.6323 5.74004L17.6328 5.73993L18.9578 5.45493C19.1744 5.40833 19.3958 5.50987 19.5019 5.70441L20.9392 8.34066C21.0377 8.52142 21.0154 8.74411 20.8829 8.90171L19.9851 9.96993C19.985 9.97007 19.9849 9.9702 19.9847 9.97033C19.5162 10.5296 19.2541 11.2556 19.2541 12.0119C19.2541 12.7681 19.5161 13.4941 19.9846 14.0533L20.8829 15.122ZM20.8829 15.122L19.9851 14.0538L20.8829 15.122Z" stroke="#1D9089" stroke-linecap="square" stroke-linejoin="round"/>
</svg>