<?xml version="1.0" encoding="utf-8"?>
<!-- Generator: Adobe Illustrator 25.0.0, SVG Export Plug-In . SVG Version: 6.00 Build 0)  -->
<svg version="1.1" id="Layer_1" xmlns="http://www.w3.org/2000/svg" xmlns:xlink="http://www.w3.org/1999/xlink" x="0px" y="0px"
	 viewBox="0 0 448 512" style="enable-background:new 0 0 448 512;" xml:space="preserve">
<style type="text/css">
	.st0{fill:#FC80FF;}
	.st1{fill:#00FFFF;}
	.st2{fill:#707BFC;}
	.st3{fill:#333333;}
</style>
<g id="Layer_2_1_">
	<circle class="st0" cx="369" cy="112" r="80"/>
	<circle class="st1" cx="368" cy="400" r="80"/>
	<circle class="st2" cx="79.1" cy="256" r="80"/>
</g>
<g id="Layer_1_1_">
	<path class="st3" d="M448,112c0,44.2-35.8,80-80,80c-25.9,0-48.9-12.3-63.5-31.3l-147.4,73.7c1,6.9,2,14.1,2,21.6s-1,14.7-2,21.6
		l147.4,73.7c14.6-19,37.6-31.3,63.5-31.3c44.2,0,80,35.8,80,80s-35.8,80-80,80s-80-35.8-80-80c0-12.6,2.9-24.5,8.1-35.9
		l-144.9-71.6C137.9,318.3,111,336,80,336c-44.2,0-80-35.8-80-80s35.8-80,80-80c31,0,57.9,17.7,71.2,43.5L296.1,147
		c-5.2-10.6-8.1-22.4-8.1-35c0-44.2,35.8-80,80-80S448,67.8,448,112L448,112z M79.1,320c36.2,0,64-28.7,64-64s-27.8-64-64-64
		c-34.4,0-64,28.7-64,64S44.7,320,79.1,320z M368,48c-35.3,0-64,28.7-64,64s28.7,64,64,64s64-28.7,64-64S403.3,48,368,48z M368,464
		c35.3,0,64-28.7,64-64s-28.7-64-64-64s-64,28.7-64,64S332.7,464,368,464z"/>
</g>
</svg>
