<svg width="40" height="35" viewBox="0 0 40 35" fill="none" xmlns="http://www.w3.org/2000/svg">
<g clip-path="url(#clip0_1479_3697)">
<path opacity="0.5" d="M38.6242 31.4999C37.6002 31.4999 36.7682 30.6573 36.7682 29.6203C36.7682 28.5833 37.6002 27.7407 38.6242 27.7407C38.6882 27.7407 38.7522 27.7407 38.8482 27.7407V25.4397C38.7842 25.4397 38.7202 25.4397 38.6242 25.4397C37.6002 25.4397 36.7682 24.5972 36.7682 23.5601C36.7682 22.5231 37.6002 21.6805 38.6242 21.6805C38.6882 21.6805 38.7522 21.6805 38.8482 21.6805V19.3796C38.7842 19.3796 38.7202 19.3796 38.6242 19.3796C37.6002 19.3796 36.7682 18.537 36.7682 17.4999C36.7682 16.4629 37.6002 15.6203 38.6242 15.6203C38.6882 15.6203 38.7522 15.6203 38.8482 15.6203V13.3194C38.2402 13.3842 37.6322 13.1573 37.2162 12.6712C36.5442 11.861 36.6402 10.6944 37.4402 10.0138C37.8562 9.65734 38.3682 9.52771 38.8482 9.59252V7.29159C38.7842 7.29159 38.7202 7.29159 38.6242 7.29159C37.6002 7.29159 36.7682 6.449 36.7682 5.41196C36.7682 4.37493 37.6002 3.53234 38.6242 3.53234C38.6882 3.53234 38.7522 3.53234 38.8482 3.53234V0.712891H36.6402C36.6402 1.74993 35.8082 2.59252 34.7842 2.59252C33.7602 2.59252 32.9282 1.74993 32.9282 0.712891H30.5282C30.5282 1.74993 29.6962 2.59252 28.6722 2.59252C27.6482 2.59252 26.8162 1.74993 26.8162 0.712891H24.4162C24.4162 1.74993 23.5842 2.59252 22.5602 2.59252C21.5362 2.59252 20.7042 1.74993 20.7042 0.712891H18.3042C18.3042 1.74993 17.4722 2.59252 16.4482 2.59252C15.4242 2.59252 14.5922 1.74993 14.5922 0.712891H12.1922C12.1922 1.74993 11.3602 2.59252 10.3362 2.59252C9.31216 2.59252 8.48016 1.74993 8.48016 0.712891H6.08016C6.08016 1.74993 5.24816 2.59252 4.22416 2.59252C3.20016 2.59252 2.36816 1.74993 2.36816 0.712891H0.160156V3.53234C1.18416 3.53234 2.01616 4.37493 2.01616 5.41196C2.01616 6.449 1.18416 7.29159 0.160156 7.29159V9.56011C0.704156 9.56011 1.21616 9.78696 1.60016 10.2407C2.27216 11.0509 2.17616 12.2175 1.37616 12.8981C1.02416 13.1897 0.608156 13.3518 0.160156 13.3518V15.6203C1.18416 15.6203 2.01616 16.4629 2.01616 17.4999C2.01616 18.537 1.18416 19.3796 0.160156 19.3796V21.6481C1.18416 21.6481 2.01616 22.4907 2.01616 23.5277C2.01616 24.5647 1.18416 25.4073 0.160156 25.4073V27.6759C1.18416 27.6759 2.01616 28.5184 2.01616 29.5555C2.01616 30.5925 1.18416 31.4351 0.160156 31.4351V34.2546H2.36816C2.36816 33.2175 3.20016 32.3749 4.22416 32.3749C5.24816 32.3749 6.08016 33.2175 6.08016 34.2546H8.48016C8.48016 33.2175 9.31216 32.3749 10.3362 32.3749C11.3602 32.3749 12.1922 33.2175 12.1922 34.2546H14.5922C14.5922 33.2175 15.4242 32.3749 16.4482 32.3749C17.4722 32.3749 18.3042 33.2175 18.3042 34.2546H20.7042C20.7042 33.2175 21.5362 32.3749 22.5602 32.3749C23.5842 32.3749 24.4162 33.2175 24.4162 34.2546H26.8162C26.8162 33.2175 27.6482 32.3749 28.6722 32.3749C29.6962 32.3749 30.5282 33.2175 30.5282 34.2546H32.9282C32.9282 33.2175 33.7602 32.3749 34.7842 32.3749C35.8082 32.3749 36.6402 33.2175 36.6402 34.2546H38.8482V31.4351C38.7522 31.4999 38.6882 31.4999 38.6242 31.4999Z" fill="#ECA680"/>
<path d="M39.9045 34.838H36.6405V34.287C36.6405 33.5417 36.0325 32.9259 35.2965 32.9259C34.5605 32.9259 33.9525 33.5417 33.9525 34.287V34.838H30.4965V34.287C30.4965 33.5417 29.8885 32.9259 29.1525 32.9259C28.4165 32.9259 27.8085 33.5417 27.8085 34.287V34.838H24.3525V34.287C24.3525 33.5417 23.7445 32.9259 23.0085 32.9259C22.2725 32.9259 21.6645 33.5417 21.6645 34.287V34.838H18.2725V34.287C18.2725 33.5417 17.6645 32.9259 16.9285 32.9259C16.1925 32.9259 15.5845 33.5417 15.5845 34.287V34.838H12.1285V34.287C12.1285 33.5417 11.5205 32.9259 10.7845 32.9259C10.0485 32.9259 9.44045 33.5417 9.44045 34.287V34.838H6.01645V34.287C6.01645 33.5417 5.40845 32.9259 4.67245 32.9259C3.93645 32.9259 3.32845 33.5417 3.32845 34.287V34.838H0.0644531V30.9491H0.608453C1.34445 30.9491 1.95245 30.3333 1.95245 29.588C1.95245 28.8426 1.34445 28.2269 0.608453 28.2269H0.0644531V24.8889H0.608453C1.34445 24.8889 1.95245 24.2732 1.95245 23.5278C1.95245 22.7824 1.34445 22.1667 0.608453 22.1667H0.0644531V18.8287H0.608453C1.34445 18.8287 1.95245 18.213 1.95245 17.4676C1.95245 16.7222 1.34445 16.1065 0.608453 16.1065H0.0644531V12.8009H0.608453C0.928453 12.8009 1.21645 12.7037 1.47245 12.4769C1.76045 12.25 1.92045 11.9259 1.95245 11.5695C1.98445 11.213 1.88845 10.8565 1.63245 10.5972C1.37645 10.3056 0.992453 10.1111 0.608453 10.1111H0.0644531V6.74075H0.608453C1.34445 6.74075 1.95245 6.12501 1.95245 5.37964C1.95245 4.63427 1.34445 4.01853 0.608453 4.01853H0.0644531V0.129639H3.32845V0.680564C3.32845 1.42593 3.93645 2.04167 4.67245 2.04167C5.40845 2.04167 6.01645 1.42593 6.01645 0.680564V0.129639H9.47245V0.680564C9.47245 1.42593 10.0805 2.04167 10.8165 2.04167C11.5525 2.04167 12.1605 1.42593 12.1605 0.680564V0.129639H15.6165V0.680564C15.6165 1.42593 16.2245 2.04167 16.9605 2.04167C17.6965 2.04167 18.3045 1.42593 18.3045 0.680564V0.129639H21.7605V0.680564C21.7605 1.42593 22.3685 2.04167 23.1045 2.04167C23.8405 2.04167 24.4485 1.42593 24.4485 0.680564V0.129639H27.8405V0.680564C27.8405 1.42593 28.4485 2.04167 29.1845 2.04167C29.9205 2.04167 30.5285 1.42593 30.5285 0.680564V0.129639H33.9845V0.680564C33.9845 1.42593 34.5925 2.04167 35.3285 2.04167C36.0645 2.04167 36.6725 1.42593 36.6725 0.680564V0.129639H39.9365V4.11575L39.3285 4.05093C39.2645 4.05093 39.2325 4.05093 39.1685 4.05093C38.4325 4.05093 37.8245 4.66668 37.8245 5.41205C37.8245 6.15742 38.4325 6.77316 39.1685 6.77316C39.2005 6.77316 39.2645 6.77316 39.3285 6.77316L39.9365 6.70834V10.2083L39.3285 10.1435C38.9445 10.1111 38.5925 10.2083 38.3045 10.4352C38.0165 10.662 37.8565 10.9861 37.8245 11.3426C37.7925 11.6991 37.8885 12.0556 38.1445 12.3148C38.4325 12.6713 38.8805 12.8333 39.3285 12.8009L39.9365 12.7361V16.2361L39.3285 16.1713C39.2645 16.1713 39.2325 16.1713 39.1685 16.1713C38.4325 16.1713 37.8245 16.787 37.8245 17.5324C37.8245 18.2778 38.4325 18.8935 39.1685 18.8935C39.2005 18.8935 39.2645 18.8935 39.3285 18.8935L39.9365 18.8287V22.3287L39.3285 22.2639C39.2645 22.2639 39.2325 22.2639 39.1685 22.2639C38.4325 22.2639 37.8245 22.8796 37.8245 23.625C37.8245 24.3704 38.4325 24.9861 39.1685 24.9861C39.2005 24.9861 39.2645 24.9861 39.3285 24.9861L39.9365 24.9213V28.4213L39.3285 28.3565C39.2645 28.3565 39.2325 28.3565 39.1685 28.3565C38.4325 28.3565 37.8245 28.9722 37.8245 29.7176C37.8245 30.463 38.4325 31.0787 39.1685 31.0787C39.2005 31.0787 39.2645 31.0787 39.3285 31.0787L39.9365 31.0139V34.838H39.9045ZM37.6325 33.7685H38.8165V32.0185C37.6325 31.8565 36.7365 30.8519 36.7365 29.6204C36.7365 28.3889 37.6325 27.3519 38.8165 27.2222V25.9907C37.6325 25.8287 36.7365 24.8241 36.7365 23.5926C36.7365 22.3611 37.6325 21.3241 38.8165 21.1945V19.963C37.6325 19.8009 36.7365 18.7963 36.7365 17.5648C36.7365 16.3333 37.6325 15.2963 38.8165 15.1667V13.9352C38.2405 13.8704 37.6965 13.5463 37.3125 13.0926C36.8965 12.6065 36.7045 11.9583 36.7685 11.3102C36.8325 10.662 37.1205 10.0787 37.6005 9.65742C37.9525 9.36575 38.3685 9.1713 38.8165 9.10649V7.87501C37.6325 7.71297 36.7365 6.70834 36.7365 5.47686C36.7365 4.24538 37.6325 3.20834 38.8165 3.07871V1.32871H37.6325C37.3765 2.39816 36.4165 3.20834 35.2965 3.20834C34.1445 3.20834 33.1845 2.39816 32.9605 1.32871H31.5205C31.2645 2.39816 30.3045 3.20834 29.1845 3.20834C28.0325 3.20834 27.0725 2.39816 26.8485 1.32871H25.4085C25.1525 2.39816 24.1925 3.20834 23.0725 3.20834C21.9205 3.20834 20.9605 2.39816 20.7365 1.32871H19.2965C19.0405 2.39816 18.0805 3.20834 16.9605 3.20834C15.8085 3.20834 14.8485 2.39816 14.6245 1.32871H13.1845C12.9285 2.39816 11.9685 3.20834 10.8485 3.20834C9.69645 3.20834 8.73645 2.39816 8.51245 1.32871H7.07245C6.81645 2.39816 5.85645 3.20834 4.73645 3.20834C3.58445 3.20834 2.62445 2.39816 2.40045 1.32871H1.21645V3.11112C2.27245 3.37038 3.07245 4.3426 3.07245 5.47686C3.07245 6.64353 2.27245 7.61575 1.21645 7.8426V9.1389C1.72845 9.26853 2.17645 9.52778 2.52845 9.94908C2.94445 10.4352 3.13645 11.0833 3.07245 11.7315C3.00845 12.3796 2.72045 12.963 2.24045 13.3843C1.95245 13.6435 1.60045 13.8056 1.21645 13.9028V15.1991C2.27245 15.4583 3.07245 16.4306 3.07245 17.5648C3.07245 18.6991 2.27245 19.7037 1.21645 19.9306V21.2269C2.27245 21.4861 3.07245 22.4583 3.07245 23.5926C3.07245 24.7269 2.27245 25.7315 1.21645 25.9583V27.2546C2.27245 27.5139 3.07245 28.4861 3.07245 29.6204C3.07245 30.7546 2.27245 31.7593 1.21645 31.9861V33.7685H2.40045C2.65645 32.6991 3.61645 31.8889 4.73645 31.8889C5.88845 31.8889 6.84845 32.6991 7.07245 33.7685H8.51245C8.76845 32.6991 9.72845 31.8889 10.8485 31.8889C12.0005 31.8889 12.9605 32.6991 13.1845 33.7685H14.6245C14.8805 32.6991 15.8405 31.8889 16.9605 31.8889C18.1125 31.8889 19.0725 32.6991 19.2965 33.7685H20.7365C20.9925 32.6991 21.9525 31.8889 23.0725 31.8889C24.2245 31.8889 25.1845 32.6991 25.4085 33.7685H26.8485C27.1045 32.6991 28.0645 31.8889 29.1845 31.8889C30.3365 31.8889 31.2965 32.6991 31.5205 33.7685H32.9605C33.2165 32.6991 34.1765 31.8889 35.2965 31.8889C36.4485 31.8565 37.4085 32.6667 37.6325 33.7685Z" fill="#ECA680"/>
<path d="M34.4635 5.60645H5.31152V29.7824H34.4635V5.60645Z" fill="#B70808"/>
<path d="M7.39235 9.23608C7.36035 9.59257 7.36035 9.94905 7.36035 10.3379C7.36035 18.8935 12.9924 25.8287 19.9364 25.8287C26.8804 25.8287 32.5124 18.8935 32.5124 10.3379C32.5124 9.98145 32.5124 9.62497 32.4804 9.26849H7.39235V9.23608Z" fill="#D7DBE9"/>
<path d="M21.024 17.4676L19.584 12.9954L16.416 17.7268L21.024 17.4676Z" fill="#5F6EA9"/>
<path d="M19.7115 26.8981C18.6875 26.8981 17.7275 26.736 16.8315 26.3795C16.2875 26.1527 16.0315 25.5369 16.2235 24.986C16.4475 24.4351 17.0555 24.1758 17.5995 24.3703C19.2955 25.0508 21.6955 24.7592 23.7435 23.6249C25.5355 22.6203 26.7195 21.1295 27.0075 19.5416C27.0395 19.3795 27.0715 19.2175 27.0715 19.0231C27.1355 18.4397 27.6795 18.0184 28.2555 18.0832C28.8315 18.1481 29.2475 18.699 29.1835 19.2823C29.1515 19.5092 29.1195 19.7036 29.0875 19.8981C28.7035 22.1342 27.1035 24.1758 24.7675 25.5045C23.1675 26.4444 21.3755 26.8981 19.7115 26.8981Z" fill="#1B2B3E"/>
<path d="M31.3602 14.6804C34.1172 14.6804 36.3522 12.417 36.3522 9.62489C36.3522 6.83278 34.1172 4.56934 31.3602 4.56934C28.6032 4.56934 26.3682 6.83278 26.3682 9.62489C26.3682 12.417 28.6032 14.6804 31.3602 14.6804Z" fill="white"/>
<path d="M30.72 13.6434C32.6817 13.6434 34.272 12.0329 34.272 10.0462C34.272 8.05951 32.6817 6.44897 30.72 6.44897C28.7583 6.44897 27.168 8.05951 27.168 10.0462C27.168 12.0329 28.7583 13.6434 30.72 13.6434Z" fill="#1B2B3E"/>
<path d="M8.3836 14.6157C11.1406 14.6157 13.3756 12.3523 13.3756 9.56019C13.3756 6.76809 11.1406 4.50464 8.3836 4.50464C5.6266 4.50464 3.3916 6.76809 3.3916 9.56019C3.3916 12.3523 5.6266 14.6157 8.3836 14.6157Z" fill="white"/>
<path d="M9.12036 13.0602C11.0821 13.0602 12.6724 11.4496 12.6724 9.46294C12.6724 7.47625 11.0821 5.86572 9.12036 5.86572C7.15864 5.86572 5.56836 7.47625 5.56836 9.46294C5.56836 11.4496 7.15864 13.0602 9.12036 13.0602Z" fill="#1B2B3E"/>
<path d="M36.1602 5.12035C35.8722 5.12035 35.5842 4.99072 35.3922 4.79627C34.4642 3.82405 33.6322 3.37035 30.4002 2.75461C29.8242 2.65739 29.4402 2.07405 29.5362 1.49072C29.6322 0.907385 30.2082 0.518497 30.7842 0.615719C34.2722 1.29627 35.5842 1.87961 36.9282 3.30553C37.3442 3.72683 37.3122 4.43979 36.8962 4.82868C36.6722 5.02313 36.4162 5.12035 36.1602 5.12035Z" fill="#1B2B3E"/>
<path d="M6.30436 3.95377C5.85636 3.95377 5.40836 3.6621 5.28036 3.17599C5.12036 2.59266 5.44036 2.00933 6.01636 1.81488C9.40836 0.810253 10.8484 0.713031 12.7044 1.36118C13.2484 1.55562 13.5684 2.17136 13.3444 2.7547C13.1524 3.30562 12.5444 3.6297 11.9684 3.40285C10.7204 2.94914 9.76036 2.94914 6.62436 3.88896C6.52836 3.92136 6.40036 3.95377 6.30436 3.95377Z" fill="#1B2B3E"/>
</g>
<defs>
<clipPath id="clip0_1479_3697">
<rect width="40" height="35" fill="white"/>
</clipPath>
</defs>
</svg>
