<svg viewBox="-2 -2 45 44" fill="none" xmlns="http://www.w3.org/2000/svg">
<path fill-rule="evenodd" clip-rule="evenodd" d="M2.37552 34.4285C2.37552 33.152 1.31202 32.1173 0.000125907 32.1173L0 29.4907C1.31189 29.4907 2.37552 28.4561 2.37552 27.1796C2.37552 25.9033 1.31202 24.8687 0.000125907 24.8687L0 22.2417C1.31189 22.2417 2.37552 21.207 2.37552 19.9306C2.37552 18.6542 1.31202 17.6195 0.000125907 17.6195L0 14.993C1.31189 14.993 2.37552 13.9583 2.37552 12.6819C2.37552 11.4055 1.31202 10.3708 0.000125907 10.3708L0 7.74388C1.31189 7.74388 2.37552 6.70918 2.37552 5.43278C2.37552 4.15641 1.31202 3.12171 0.000125907 3.12171L0 0H3.20863C3.20871 1.27631 4.27218 2.31093 5.58401 2.31093C6.89586 2.31093 7.95933 1.27631 7.95942 0H10.6594C10.6595 1.27631 11.723 2.31093 13.0348 2.31093C14.3467 2.31093 15.4101 1.27631 15.4102 0H18.1098C18.1099 1.27631 19.1734 2.31093 20.4852 2.31093C21.797 2.31093 22.8606 1.27631 22.8606 0H25.5607C25.5607 1.27631 26.6242 2.31093 27.936 2.31093C29.248 2.31093 30.3113 1.27631 30.3115 0H33.011C33.0112 1.27631 34.0745 2.31093 35.3865 2.31093C36.6982 2.31093 37.7618 1.27631 37.7618 0H40.9707V3.12171C39.6587 3.12177 38.5954 4.15645 38.5954 5.43278C38.5954 6.70913 39.6587 7.74382 40.9707 7.74388V10.3708C39.6587 10.3709 38.5954 11.4056 38.5954 12.6819C38.5954 13.9582 39.6587 14.9929 40.9707 14.993V17.6195C39.6587 17.6196 38.5954 18.6542 38.5954 19.9306C38.5954 21.2068 39.6587 22.2417 40.9707 22.2417V24.8687C39.6587 24.8687 38.5954 25.9033 38.5954 27.1796C38.5954 28.4561 39.6587 29.4907 40.9707 29.4907V32.1173C39.6587 32.1173 38.5954 33.152 38.5954 34.4285C38.5954 35.7048 39.6587 36.7394 40.9707 36.7394V39.8615H37.7618C37.7618 38.5852 36.6982 37.5503 35.3865 37.5503C34.0745 37.5503 33.011 38.585 33.011 39.8613L30.3115 39.8615C30.3115 38.5852 29.248 37.5503 27.936 37.5503C26.6242 37.5503 25.5607 38.585 25.5607 39.8613L22.8606 39.8615C22.8606 38.5852 21.797 37.5503 20.4852 37.5503C19.1733 37.5503 18.1098 38.585 18.1098 39.8613L15.4102 39.8615C15.4102 38.5852 14.3467 37.5503 13.0348 37.5503C11.7229 37.5503 10.6594 38.585 10.6594 39.8613L7.95942 39.8615C7.95942 38.5852 6.8959 37.5503 5.58401 37.5503C4.27212 37.5503 3.20863 38.585 3.20863 39.8613L0 39.8615V36.7394C1.31189 36.7394 2.37552 35.7048 2.37552 34.4285Z" fill="url(#paint0_linear_7483_2581)"/>
<defs>
<linearGradient id="paint0_linear_7483_2581" x1="72.9852" y1="84.9526" x2="135.302" y2="-48.5061" gradientUnits="userSpaceOnUse">
<stop stop-color="#4F0668"/>
<stop offset="0.311563" stop-color="#12A391"/>
<stop offset="1" stop-color="#4F0668"/>
</linearGradient>
</defs>
</svg>
