<svg width="80" height="69" viewBox="0 0 80 69" fill="none" xmlns="http://www.w3.org/2000/svg">
<g clip-path="url(#clip0_1479_3671)">
<path opacity="0.5" d="M77.2483 62.1C75.2003 62.1 73.5363 60.4388 73.5363 58.3944C73.5363 56.35 75.2003 54.6889 77.2483 54.6889C77.3763 54.6889 77.5043 54.6889 77.6963 54.6889V50.1527C77.5683 50.1527 77.4403 50.1527 77.2483 50.1527C75.2003 50.1527 73.5363 48.4916 73.5363 46.4472C73.5363 44.4027 75.2003 42.7416 77.2483 42.7416C77.3763 42.7416 77.5043 42.7416 77.6963 42.7416V38.2055C77.5683 38.2055 77.4403 38.2055 77.2483 38.2055C75.2003 38.2055 73.5363 36.5444 73.5363 34.5C73.5363 32.4555 75.2003 30.7944 77.2483 30.7944C77.3763 30.7944 77.5043 30.7944 77.6963 30.7944V26.2583C76.4803 26.3861 75.2643 25.9388 74.4323 24.9805C73.0883 23.3833 73.2803 21.0833 74.8803 19.7416C75.7123 19.0389 76.7363 18.7833 77.6963 18.9111V14.375C77.5683 14.375 77.4403 14.375 77.2483 14.375C75.2003 14.375 73.5363 12.7139 73.5363 10.6694C73.5363 8.62496 75.2003 6.96385 77.2483 6.96385C77.3763 6.96385 77.5043 6.96385 77.6963 6.96385V1.40552H73.2803C73.2803 3.44996 71.6163 5.11107 69.5683 5.11107C67.5203 5.11107 65.8563 3.44996 65.8563 1.40552H61.0563C61.0563 3.44996 59.3923 5.11107 57.3443 5.11107C55.2963 5.11107 53.6323 3.44996 53.6323 1.40552H48.8323C48.8323 3.44996 47.1683 5.11107 45.1203 5.11107C43.0723 5.11107 41.4083 3.44996 41.4083 1.40552H36.6083C36.6083 3.44996 34.9443 5.11107 32.8963 5.11107C30.8483 5.11107 29.1843 3.44996 29.1843 1.40552H24.3843C24.3843 3.44996 22.7203 5.11107 20.6723 5.11107C18.6243 5.11107 16.9603 3.44996 16.9603 1.40552H12.1603C12.1603 3.44996 10.4963 5.11107 8.44831 5.11107C6.40031 5.11107 4.73631 3.44996 4.73631 1.40552H0.320312V6.96385C2.36831 6.96385 4.03231 8.62496 4.03231 10.6694C4.03231 12.7139 2.36831 14.375 0.320312 14.375V18.8472C1.40831 18.8472 2.43231 19.2944 3.20031 20.1888C4.54431 21.7861 4.35231 24.0861 2.75231 25.4277C2.04831 26.0027 1.21631 26.3222 0.320312 26.3222V30.7944C2.36831 30.7944 4.03231 32.4555 4.03231 34.5C4.03231 36.5444 2.36831 38.2055 0.320312 38.2055V42.6777C2.36831 42.6777 4.03231 44.3388 4.03231 46.3833C4.03231 48.4277 2.36831 50.0888 0.320312 50.0888V54.5611C2.36831 54.5611 4.03231 56.2222 4.03231 58.2666C4.03231 60.3111 2.36831 61.9722 0.320312 61.9722V67.5305H4.73631C4.73631 65.4861 6.40031 63.825 8.44831 63.825C10.4963 63.825 12.1603 65.4861 12.1603 67.5305H16.9603C16.9603 65.4861 18.6243 63.825 20.6723 63.825C22.7203 63.825 24.3843 65.4861 24.3843 67.5305H29.1843C29.1843 65.4861 30.8483 63.825 32.8963 63.825C34.9443 63.825 36.6083 65.4861 36.6083 67.5305H41.4083C41.4083 65.4861 43.0723 63.825 45.1203 63.825C47.1683 63.825 48.8323 65.4861 48.8323 67.5305H53.6323C53.6323 65.4861 55.2963 63.825 57.3443 63.825C59.3923 63.825 61.0563 65.4861 61.0563 67.5305H65.8563C65.8563 65.4861 67.5203 63.825 69.5683 63.825C71.6163 63.825 73.2803 65.4861 73.2803 67.5305H77.6963V61.9722C77.5043 62.1 77.3763 62.1 77.2483 62.1Z" fill="#ECA680"/>
<path d="M79.8079 68.6806H73.2799V67.5945C73.2799 66.1251 72.0639 64.9112 70.5919 64.9112C69.1199 64.9112 67.9039 66.1251 67.9039 67.5945V68.6806H60.9919V67.5945C60.9919 66.1251 59.7759 64.9112 58.3039 64.9112C56.8319 64.9112 55.6159 66.1251 55.6159 67.5945V68.6806H48.7039V67.5945C48.7039 66.1251 47.4879 64.9112 46.0159 64.9112C44.5439 64.9112 43.3279 66.1251 43.3279 67.5945V68.6806H36.5439V67.5945C36.5439 66.1251 35.3279 64.9112 33.8559 64.9112C32.3839 64.9112 31.1679 66.1251 31.1679 67.5945V68.6806H24.2559V67.5945C24.2559 66.1251 23.0399 64.9112 21.5679 64.9112C20.0959 64.9112 18.8799 66.1251 18.8799 67.5945V68.6806H12.0319V67.5945C12.0319 66.1251 10.8159 64.9112 9.34393 64.9112C7.87193 64.9112 6.65593 66.1251 6.65593 67.5945V68.6806H0.12793V61.014H1.21593C2.68793 61.014 3.90393 59.8001 3.90393 58.3306C3.90393 56.8612 2.68793 55.6473 1.21593 55.6473H0.12793V49.0667H1.21593C2.68793 49.0667 3.90393 47.8528 3.90393 46.3834C3.90393 44.914 2.68793 43.7001 1.21593 43.7001H0.12793V37.1195H1.21593C2.68793 37.1195 3.90393 35.9056 3.90393 34.4362C3.90393 32.9667 2.68793 31.7528 1.21593 31.7528H0.12793V25.2362H1.21593C1.85593 25.2362 2.43193 25.0445 2.94393 24.5973C3.51993 24.1501 3.83993 23.5112 3.90393 22.8084C3.96793 22.1056 3.77593 21.4028 3.26393 20.8917C2.75193 20.3167 1.98393 19.9334 1.21593 19.9334H0.12793V13.289H1.21593C2.68793 13.289 3.90393 12.0751 3.90393 10.6056C3.90393 9.13617 2.68793 7.92228 1.21593 7.92228H0.12793V0.255615H6.65593V1.34172C6.65593 2.81117 7.87193 4.02506 9.34393 4.02506C10.8159 4.02506 12.0319 2.81117 12.0319 1.34172V0.255615H18.9439V1.34172C18.9439 2.81117 20.1599 4.02506 21.6319 4.02506C23.1039 4.02506 24.3199 2.81117 24.3199 1.34172V0.255615H31.2319V1.34172C31.2319 2.81117 32.4479 4.02506 33.9199 4.02506C35.3919 4.02506 36.6079 2.81117 36.6079 1.34172V0.255615H43.5199V1.34172C43.5199 2.81117 44.7359 4.02506 46.2079 4.02506C47.6799 4.02506 48.8959 2.81117 48.8959 1.34172V0.255615H55.6799V1.34172C55.6799 2.81117 56.8959 4.02506 58.3679 4.02506C59.8399 4.02506 61.0559 2.81117 61.0559 1.34172V0.255615H67.9679V1.34172C67.9679 2.81117 69.1839 4.02506 70.6559 4.02506C72.1279 4.02506 73.3439 2.81117 73.3439 1.34172V0.255615H79.8719V8.11395L78.6559 7.98617C78.5279 7.98617 78.4639 7.98617 78.3359 7.98617C76.8639 7.98617 75.6479 9.20006 75.6479 10.6695C75.6479 12.1389 76.8639 13.3528 78.3359 13.3528C78.3999 13.3528 78.5279 13.3528 78.6559 13.3528L79.8719 13.2251V20.1251L78.6559 19.9973C77.8879 19.9334 77.1839 20.1251 76.6079 20.5723C76.0319 21.0195 75.7119 21.6584 75.6479 22.3612C75.5839 23.0639 75.7759 23.7667 76.2879 24.2778C76.8639 24.9806 77.7599 25.3001 78.6559 25.2362L79.8719 25.1084V32.0084L78.6559 31.8806C78.5279 31.8806 78.4639 31.8806 78.3359 31.8806C76.8639 31.8806 75.6479 33.0945 75.6479 34.564C75.6479 36.0334 76.8639 37.2473 78.3359 37.2473C78.3999 37.2473 78.5279 37.2473 78.6559 37.2473L79.8719 37.1195V44.0195L78.6559 43.8917C78.5279 43.8917 78.4639 43.8917 78.3359 43.8917C76.8639 43.8917 75.6479 45.1056 75.6479 46.5751C75.6479 48.0445 76.8639 49.2584 78.3359 49.2584C78.3999 49.2584 78.5279 49.2584 78.6559 49.2584L79.8719 49.1306V56.0306L78.6559 55.9028C78.5279 55.9028 78.4639 55.9028 78.3359 55.9028C76.8639 55.9028 75.6479 57.1167 75.6479 58.5862C75.6479 60.0556 76.8639 61.2695 78.3359 61.2695C78.3999 61.2695 78.5279 61.2695 78.6559 61.2695L79.8719 61.1417V68.6806H79.8079ZM75.2639 66.5723H77.6319V63.1223C75.2639 62.8028 73.4719 60.8223 73.4719 58.3945C73.4719 55.9667 75.2639 53.9223 77.6319 53.6667V51.239C75.2639 50.9195 73.4719 48.939 73.4719 46.5112C73.4719 44.0834 75.2639 42.039 77.6319 41.7834V39.3556C75.2639 39.0362 73.4719 37.0556 73.4719 34.6278C73.4719 32.2001 75.2639 30.1556 77.6319 29.9001V27.4723C76.4799 27.3445 75.3919 26.7056 74.6239 25.8112C73.7919 24.8528 73.4079 23.5751 73.5359 22.2973C73.6639 21.0195 74.2399 19.8695 75.1999 19.039C75.9039 18.464 76.7359 18.0806 77.6319 17.9528V15.5251C75.2639 15.2056 73.4719 13.2251 73.4719 10.7973C73.4719 8.3695 75.2639 6.32506 77.6319 6.0695V2.6195H75.2639C74.7519 4.72784 72.8319 6.32506 70.5919 6.32506C68.2879 6.32506 66.3679 4.72784 65.9199 2.6195H63.0399C62.5279 4.72784 60.6079 6.32506 58.3679 6.32506C56.0639 6.32506 54.1439 4.72784 53.6959 2.6195H50.8159C50.3039 4.72784 48.3839 6.32506 46.1439 6.32506C43.8399 6.32506 41.9199 4.72784 41.4719 2.6195H38.5919C38.0799 4.72784 36.1599 6.32506 33.9199 6.32506C31.6159 6.32506 29.6959 4.72784 29.2479 2.6195H26.3679C25.8559 4.72784 23.9359 6.32506 21.6959 6.32506C19.3919 6.32506 17.4719 4.72784 17.0239 2.6195H14.1439C13.6319 4.72784 11.7119 6.32506 9.47193 6.32506C7.16793 6.32506 5.24793 4.72784 4.79993 2.6195H2.43193V6.13339C4.54393 6.6445 6.14393 8.56117 6.14393 10.7973C6.14393 13.0973 4.54393 15.0139 2.43193 15.4612V18.0167C3.45593 18.2723 4.35193 18.7834 5.05593 19.6139C5.88793 20.5723 6.27193 21.8501 6.14393 23.1278C6.01593 24.4056 5.43993 25.5556 4.47993 26.3862C3.90393 26.8973 3.19993 27.2167 2.43193 27.4084V29.964C4.54393 30.4751 6.14393 32.3917 6.14393 34.6278C6.14393 36.8639 4.54393 38.8445 2.43193 39.2917V41.8473C4.54393 42.3584 6.14393 44.2751 6.14393 46.5112C6.14393 48.7473 4.54393 50.7278 2.43193 51.1751V53.7306C4.54393 54.2417 6.14393 56.1584 6.14393 58.3945C6.14393 60.6306 4.54393 62.6112 2.43193 63.0584V66.5723H4.79993C5.31193 64.464 7.23193 62.8667 9.47193 62.8667C11.7759 62.8667 13.6959 64.464 14.1439 66.5723H17.0239C17.5359 64.464 19.4559 62.8667 21.6959 62.8667C23.9999 62.8667 25.9199 64.464 26.3679 66.5723H29.2479C29.7599 64.464 31.6799 62.8667 33.9199 62.8667C36.2239 62.8667 38.1439 64.464 38.5919 66.5723H41.4719C41.9839 64.464 43.9039 62.8667 46.1439 62.8667C48.4479 62.8667 50.3679 64.464 50.8159 66.5723H53.6959C54.2079 64.464 56.1279 62.8667 58.3679 62.8667C60.6719 62.8667 62.5919 64.464 63.0399 66.5723H65.9199C66.4319 64.464 68.3519 62.8667 70.5919 62.8667C72.8959 62.8028 74.8159 64.4001 75.2639 66.5723Z" fill="#ECA680"/>
<path d="M68.928 11.0527H10.624V58.7138H68.928V11.0527Z" fill="#B70808"/>
<path d="M14.7837 18.2083C14.7197 18.911 14.7197 19.6138 14.7197 20.3805C14.7197 37.2471 25.9837 50.9194 39.8717 50.9194C53.7597 50.9194 65.0237 37.2471 65.0237 20.3805C65.0237 19.6777 65.0237 18.9749 64.9597 18.2721H14.7837V18.2083Z" fill="#D7DBE9"/>
<path d="M42.048 34.4361L39.168 25.6194L32.832 34.9472L42.048 34.4361Z" fill="#5F6EA9"/>
<path d="M39.4241 53.0277C37.3761 53.0277 35.4561 52.7083 33.6641 52.0055C32.5761 51.5583 32.0641 50.3444 32.4481 49.2583C32.8961 48.1722 34.1121 47.661 35.2001 48.0444C38.5921 49.386 43.3921 48.811 47.4881 46.5749C51.0721 44.5944 53.4401 41.6555 54.0161 38.5249C54.0801 38.2055 54.1441 37.886 54.1441 37.5027C54.2721 36.3527 55.3601 35.5222 56.5121 35.6499C57.6641 35.7777 58.4961 36.8638 58.3681 38.0138C58.3041 38.461 58.2401 38.8444 58.1761 39.2277C57.4081 43.636 54.2081 47.661 49.5361 50.2805C46.3361 52.1333 42.7521 53.0277 39.4241 53.0277Z" fill="#1B2B3E"/>
<path d="M62.7203 28.9416C68.2343 28.9416 72.7043 24.4794 72.7043 18.975C72.7043 13.4705 68.2343 9.0083 62.7203 9.0083C57.2063 9.0083 52.7363 13.4705 52.7363 18.975C52.7363 24.4794 57.2063 28.9416 62.7203 28.9416Z" fill="white"/>
<path d="M61.4399 26.8972C65.3634 26.8972 68.5439 23.7222 68.5439 19.8055C68.5439 15.8889 65.3634 12.7139 61.4399 12.7139C57.5165 12.7139 54.3359 15.8889 54.3359 19.8055C54.3359 23.7222 57.5165 26.8972 61.4399 26.8972Z" fill="#1B2B3E"/>
<path d="M16.7682 28.8139C22.2822 28.8139 26.7522 24.3517 26.7522 18.8473C26.7522 13.3428 22.2822 8.88062 16.7682 8.88062C11.2542 8.88062 6.78418 13.3428 6.78418 18.8473C6.78418 24.3517 11.2542 28.8139 16.7682 28.8139Z" fill="white"/>
<path d="M18.2397 25.7473C22.1632 25.7473 25.3437 22.5723 25.3437 18.6556C25.3437 14.739 22.1632 11.564 18.2397 11.564C14.3163 11.564 11.1357 14.739 11.1357 18.6556C11.1357 22.5723 14.3163 25.7473 18.2397 25.7473Z" fill="#1B2B3E"/>
<path d="M72.3204 10.0945C71.7444 10.0945 71.1684 9.83892 70.7844 9.45559C68.9284 7.53892 67.2644 6.64448 60.8004 5.43059C59.6484 5.23892 58.8804 4.08892 59.0724 2.93892C59.2644 1.78892 60.4164 1.02226 61.5684 1.21392C68.5444 2.55559 71.1684 3.70559 73.8564 6.5167C74.6884 7.34726 74.6244 8.75281 73.7924 9.51948C73.3444 9.90281 72.8324 10.0945 72.3204 10.0945Z" fill="#1B2B3E"/>
<path d="M12.6077 7.7944C11.7117 7.7944 10.8157 7.2194 10.5597 6.26107C10.2397 5.11107 10.8797 3.96107 12.0317 3.57774C18.8157 1.59718 21.6957 1.40552 25.4077 2.68329C26.4957 3.06663 27.1357 4.28051 26.6877 5.43051C26.3037 6.51663 25.0877 7.15551 23.9357 6.70829C21.4397 5.81385 19.5197 5.81385 13.2477 7.66663C13.0557 7.73051 12.7997 7.7944 12.6077 7.7944Z" fill="#1B2B3E"/>
</g>
<defs>
<clipPath id="clip0_1479_3671">
<rect width="80" height="69" fill="white"/>
</clipPath>
</defs>
</svg>
