<svg width="40" height="35" viewBox="0 0 40 35" fill="none" xmlns="http://www.w3.org/2000/svg">
<g clip-path="url(#clip0_1479_3432)">
<path opacity="0.5" d="M38.6239 31.104C37.5999 31.104 36.7679 30.272 36.7679 29.248C36.7679 28.224 37.5999 27.392 38.6239 27.392C38.6879 27.392 38.7519 27.392 38.8479 27.392V25.12C38.7839 25.12 38.7199 25.12 38.6239 25.12C37.5999 25.12 36.7679 24.288 36.7679 23.264C36.7679 22.24 37.5999 21.408 38.6239 21.408C38.6879 21.408 38.7519 21.408 38.8479 21.408V19.136C38.7839 19.136 38.7199 19.136 38.6239 19.136C37.5999 19.136 36.7679 18.304 36.7679 17.28C36.7679 16.256 37.5999 15.424 38.6239 15.424C38.6879 15.424 38.7519 15.424 38.8479 15.424V13.152C38.2399 13.216 37.6319 12.992 37.2159 12.512C36.5439 11.712 36.6399 10.56 37.4399 9.88798C37.8559 9.53598 38.3679 9.40798 38.8479 9.47198V7.19998C38.7839 7.19998 38.7199 7.19998 38.6239 7.19998C37.5999 7.19998 36.7679 6.36798 36.7679 5.34398C36.7679 4.31998 37.5999 3.48798 38.6239 3.48798C38.6879 3.48798 38.7519 3.48798 38.8479 3.48798V0.703979H36.6399C36.6399 1.72798 35.8079 2.55998 34.7839 2.55998C33.7599 2.55998 32.9279 1.72798 32.9279 0.703979H30.5279C30.5279 1.72798 29.6959 2.55998 28.6719 2.55998C27.6479 2.55998 26.8159 1.72798 26.8159 0.703979H24.4159C24.4159 1.72798 23.5839 2.55998 22.5599 2.55998C21.5359 2.55998 20.7039 1.72798 20.7039 0.703979H18.3039C18.3039 1.72798 17.4719 2.55998 16.4479 2.55998C15.4239 2.55998 14.5919 1.72798 14.5919 0.703979H12.1919C12.1919 1.72798 11.3599 2.55998 10.3359 2.55998C9.31191 2.55998 8.47991 1.72798 8.47991 0.703979H6.07991C6.07991 1.72798 5.24791 2.55998 4.22391 2.55998C3.19991 2.55998 2.36791 1.72798 2.36791 0.703979H0.159912V3.48798C1.18391 3.48798 2.01591 4.31998 2.01591 5.34398C2.01591 6.36798 1.18391 7.19998 0.159912 7.19998V9.43998C0.703912 9.43998 1.21591 9.66398 1.59991 10.112C2.27191 10.912 2.17591 12.064 1.37591 12.736C1.02391 13.024 0.607912 13.184 0.159912 13.184V15.424C1.18391 15.424 2.01591 16.256 2.01591 17.28C2.01591 18.304 1.18391 19.136 0.159912 19.136V21.376C1.18391 21.376 2.01591 22.208 2.01591 23.232C2.01591 24.256 1.18391 25.088 0.159912 25.088V27.328C1.18391 27.328 2.01591 28.16 2.01591 29.184C2.01591 30.208 1.18391 31.04 0.159912 31.04V33.824H2.36791C2.36791 32.8 3.19991 31.968 4.22391 31.968C5.24791 31.968 6.07991 32.8 6.07991 33.824H8.47991C8.47991 32.8 9.31191 31.968 10.3359 31.968C11.3599 31.968 12.1919 32.8 12.1919 33.824H14.5919C14.5919 32.8 15.4239 31.968 16.4479 31.968C17.4719 31.968 18.3039 32.8 18.3039 33.824H20.7039C20.7039 32.8 21.5359 31.968 22.5599 31.968C23.5839 31.968 24.4159 32.8 24.4159 33.824H26.8159C26.8159 32.8 27.6479 31.968 28.6719 31.968C29.6959 31.968 30.5279 32.8 30.5279 33.824H32.9279C32.9279 32.8 33.7599 31.968 34.7839 31.968C35.8079 31.968 36.6399 32.8 36.6399 33.824H38.8479V31.04C38.7519 31.104 38.6879 31.104 38.6239 31.104Z" fill="#ECA680"/>
<path d="M39.904 34.4H36.64V33.856C36.64 33.12 36.032 32.512 35.296 32.512C34.56 32.512 33.952 33.12 33.952 33.856V34.4H30.496V33.856C30.496 33.12 29.888 32.512 29.152 32.512C28.416 32.512 27.808 33.12 27.808 33.856V34.4H24.352V33.856C24.352 33.12 23.744 32.512 23.008 32.512C22.272 32.512 21.664 33.12 21.664 33.856V34.4H18.272V33.856C18.272 33.12 17.664 32.512 16.928 32.512C16.192 32.512 15.584 33.12 15.584 33.856V34.4H12.128V33.856C12.128 33.12 11.52 32.512 10.784 32.512C10.048 32.512 9.43996 33.12 9.43996 33.856V34.4H6.01596V33.856C6.01596 33.12 5.40796 32.512 4.67196 32.512C3.93596 32.512 3.32797 33.12 3.32797 33.856V34.4H0.0639648V30.56H0.607964C1.34396 30.56 1.95196 29.952 1.95196 29.216C1.95196 28.48 1.34396 27.872 0.607964 27.872H0.0639648V24.576H0.607964C1.34396 24.576 1.95196 23.968 1.95196 23.232C1.95196 22.496 1.34396 21.888 0.607964 21.888H0.0639648V18.592H0.607964C1.34396 18.592 1.95196 17.984 1.95196 17.248C1.95196 16.512 1.34396 15.904 0.607964 15.904H0.0639648V12.64H0.607964C0.927964 12.64 1.21596 12.544 1.47196 12.32C1.75996 12.096 1.91996 11.776 1.95196 11.424C1.98396 11.072 1.88796 10.72 1.63196 10.464C1.37596 10.176 0.991964 9.98399 0.607964 9.98399H0.0639648V6.65599H0.607964C1.34396 6.65599 1.95196 6.04799 1.95196 5.31199C1.95196 4.57599 1.34396 3.96799 0.607964 3.96799H0.0639648V0.127991H3.32797V0.67199C3.32797 1.40799 3.93596 2.01599 4.67196 2.01599C5.40796 2.01599 6.01596 1.40799 6.01596 0.67199V0.127991H9.47196V0.67199C9.47196 1.40799 10.08 2.01599 10.816 2.01599C11.552 2.01599 12.16 1.40799 12.16 0.67199V0.127991H15.616V0.67199C15.616 1.40799 16.224 2.01599 16.96 2.01599C17.696 2.01599 18.304 1.40799 18.304 0.67199V0.127991H21.76V0.67199C21.76 1.40799 22.368 2.01599 23.104 2.01599C23.84 2.01599 24.448 1.40799 24.448 0.67199V0.127991H27.84V0.67199C27.84 1.40799 28.448 2.01599 29.184 2.01599C29.92 2.01599 30.528 1.40799 30.528 0.67199V0.127991H33.984V0.67199C33.984 1.40799 34.592 2.01599 35.328 2.01599C36.064 2.01599 36.672 1.40799 36.672 0.67199V0.127991H39.936V4.06399L39.328 3.99999C39.264 3.99999 39.232 3.99999 39.168 3.99999C38.432 3.99999 37.824 4.60799 37.824 5.34399C37.824 6.07999 38.432 6.68799 39.168 6.68799C39.2 6.68799 39.264 6.68799 39.328 6.68799L39.936 6.62399V10.08L39.328 10.016C38.944 9.98399 38.592 10.08 38.304 10.304C38.016 10.528 37.856 10.848 37.824 11.2C37.792 11.552 37.888 11.904 38.144 12.16C38.432 12.512 38.88 12.672 39.328 12.64L39.936 12.576V16.032L39.328 15.968C39.264 15.968 39.232 15.968 39.168 15.968C38.432 15.968 37.824 16.576 37.824 17.312C37.824 18.048 38.432 18.656 39.168 18.656C39.2 18.656 39.264 18.656 39.328 18.656L39.936 18.592V22.048L39.328 21.984C39.264 21.984 39.232 21.984 39.168 21.984C38.432 21.984 37.824 22.592 37.824 23.328C37.824 24.064 38.432 24.672 39.168 24.672C39.2 24.672 39.264 24.672 39.328 24.672L39.936 24.608V28.064L39.328 28C39.264 28 39.232 28 39.168 28C38.432 28 37.824 28.608 37.824 29.344C37.824 30.08 38.432 30.688 39.168 30.688C39.2 30.688 39.264 30.688 39.328 30.688L39.936 30.624V34.4H39.904ZM37.632 33.344H38.816V31.616C37.632 31.456 36.736 30.464 36.736 29.248C36.736 28.032 37.632 27.008 38.816 26.88V25.664C37.632 25.504 36.736 24.512 36.736 23.296C36.736 22.08 37.632 21.056 38.816 20.928V19.712C37.632 19.552 36.736 18.56 36.736 17.344C36.736 16.128 37.632 15.104 38.816 14.976V13.76C38.24 13.696 37.696 13.376 37.312 12.928C36.896 12.448 36.704 11.808 36.768 11.168C36.832 10.528 37.12 9.95199 37.6 9.53599C37.952 9.24799 38.368 9.05599 38.816 8.99199V7.77599C37.632 7.61599 36.736 6.62399 36.736 5.40799C36.736 4.19199 37.632 3.16799 38.816 3.03999V1.31199H37.632C37.376 2.36799 36.416 3.16799 35.296 3.16799C34.144 3.16799 33.184 2.36799 32.96 1.31199H31.52C31.264 2.36799 30.304 3.16799 29.184 3.16799C28.032 3.16799 27.072 2.36799 26.848 1.31199H25.408C25.152 2.36799 24.192 3.16799 23.072 3.16799C21.92 3.16799 20.96 2.36799 20.736 1.31199H19.296C19.04 2.36799 18.08 3.16799 16.96 3.16799C15.808 3.16799 14.848 2.36799 14.624 1.31199H13.184C12.928 2.36799 11.968 3.16799 10.848 3.16799C9.69596 3.16799 8.73596 2.36799 8.51196 1.31199H7.07196C6.81596 2.36799 5.85596 3.16799 4.73596 3.16799C3.58396 3.16799 2.62396 2.36799 2.39996 1.31199H1.21596V3.07199C2.27196 3.32799 3.07196 4.28799 3.07196 5.40799C3.07196 6.55999 2.27196 7.51999 1.21596 7.74399V9.02399C1.72796 9.15199 2.17597 9.40799 2.52797 9.82399C2.94396 10.304 3.13596 10.944 3.07196 11.584C3.00796 12.224 2.71996 12.8 2.23996 13.216C1.95196 13.472 1.59996 13.632 1.21596 13.728V15.008C2.27196 15.264 3.07196 16.224 3.07196 17.344C3.07196 18.464 2.27196 19.456 1.21596 19.68V20.96C2.27196 21.216 3.07196 22.176 3.07196 23.296C3.07196 24.416 2.27196 25.408 1.21596 25.632V26.912C2.27196 27.168 3.07196 28.128 3.07196 29.248C3.07196 30.368 2.27196 31.36 1.21596 31.584V33.344H2.39996C2.65596 32.288 3.61596 31.488 4.73596 31.488C5.88796 31.488 6.84796 32.288 7.07196 33.344H8.51196C8.76796 32.288 9.72796 31.488 10.848 31.488C12 31.488 12.96 32.288 13.184 33.344H14.624C14.88 32.288 15.84 31.488 16.96 31.488C18.112 31.488 19.072 32.288 19.296 33.344H20.736C20.992 32.288 21.952 31.488 23.072 31.488C24.224 31.488 25.184 32.288 25.408 33.344H26.848C27.104 32.288 28.064 31.488 29.184 31.488C30.336 31.488 31.296 32.288 31.52 33.344H32.96C33.216 32.288 34.176 31.488 35.296 31.488C36.448 31.456 37.408 32.256 37.632 33.344Z" fill="#ECA680"/>
<path d="M34.464 5.53601H5.31201V29.408H34.464V5.53601Z" fill="#B70808"/>
<path d="M7.39211 9.12C7.36011 9.472 7.36011 9.824 7.36011 10.208C7.36011 18.656 12.9921 25.504 19.9361 25.504C26.8801 25.504 32.5121 18.656 32.5121 10.208C32.5121 9.856 32.5121 9.50399 32.4801 9.15199H7.39211V9.12Z" fill="#D7DBE9"/>
<path d="M21.024 17.248L19.584 12.832L16.416 17.504L21.024 17.248Z" fill="#5F6EA9"/>
<path d="M19.712 26.56C18.688 26.56 17.728 26.4 16.832 26.048C16.288 25.824 16.032 25.216 16.224 24.672C16.448 24.128 17.056 23.872 17.6 24.064C19.296 24.736 21.696 24.448 23.744 23.328C25.536 22.336 26.72 20.864 27.008 19.296C27.04 19.136 27.072 18.976 27.072 18.784C27.136 18.208 27.68 17.792 28.256 17.856C28.832 17.92 29.248 18.464 29.184 19.04C29.152 19.264 29.12 19.456 29.088 19.648C28.704 21.856 27.104 23.872 24.768 25.184C23.168 26.112 21.376 26.56 19.712 26.56Z" fill="#1B2B3E"/>
<path d="M31.3599 14.496C34.1169 14.496 36.3519 12.261 36.3519 9.50399C36.3519 6.74699 34.1169 4.51199 31.3599 4.51199C28.6029 4.51199 26.3679 6.74699 26.3679 9.50399C26.3679 12.261 28.6029 14.496 31.3599 14.496Z" fill="white"/>
<path d="M30.72 13.472C32.6817 13.472 34.272 11.8817 34.272 9.92001C34.272 7.9583 32.6817 6.36801 30.72 6.36801C28.7583 6.36801 27.168 7.9583 27.168 9.92001C27.168 11.8817 28.7583 13.472 30.72 13.472Z" fill="#1B2B3E"/>
<path d="M8.38409 14.432C11.1411 14.432 13.3761 12.197 13.3761 9.44C13.3761 6.68299 11.1411 4.448 8.38409 4.448C5.62709 4.448 3.39209 6.68299 3.39209 9.44C3.39209 12.197 5.62709 14.432 8.38409 14.432Z" fill="white"/>
<path d="M9.12012 12.896C11.0818 12.896 12.6721 11.3057 12.6721 9.34399C12.6721 7.38228 11.0818 5.79199 9.12012 5.79199C7.1584 5.79199 5.56812 7.38228 5.56812 9.34399C5.56812 11.3057 7.1584 12.896 9.12012 12.896Z" fill="#1B2B3E"/>
<path d="M36.1599 5.05599C35.8719 5.05599 35.5839 4.92799 35.3919 4.73599C34.4639 3.77599 33.6319 3.32799 30.3999 2.71999C29.8239 2.62399 29.4399 2.04799 29.5359 1.47199C29.6319 0.895993 30.2079 0.511994 30.7839 0.607994C34.2719 1.27999 35.5839 1.85599 36.9279 3.26399C37.3439 3.67999 37.3119 4.38399 36.8959 4.76799C36.6719 4.95999 36.4159 5.05599 36.1599 5.05599Z" fill="#1B2B3E"/>
<path d="M6.30412 3.904C5.85612 3.904 5.40812 3.616 5.28012 3.136C5.12012 2.56 5.44012 1.984 6.01612 1.792C9.40812 0.799997 10.8481 0.703998 12.7041 1.344C13.2481 1.536 13.5681 2.144 13.3441 2.72C13.1521 3.264 12.5441 3.584 11.9681 3.36C10.7201 2.912 9.76012 2.912 6.62412 3.84C6.52812 3.872 6.40012 3.904 6.30412 3.904Z" fill="#1B2B3E"/>
</g>
<defs>
<clipPath id="clip0_1479_3432">
<rect width="40" height="34.56" fill="white"/>
</clipPath>
</defs>
</svg>
