<?xml version="1.0" standalone="no"?>
<!DOCTYPE svg PUBLIC "-//W3C//DTD SVG 20010904//EN"
 "http://www.w3.org/TR/2001/REC-SVG-20010904/DTD/svg10.dtd">
<svg version="1.0" xmlns="http://www.w3.org/2000/svg"
 width="1200.000000pt" height="1200.000000pt" viewBox="0 0 1200.000000 1200.000000"
 preserveAspectRatio="xMidYMid meet">

<g transform="translate(0.000000,1200.000000) scale(0.100000,-0.100000)"
fill="#000000" stroke="none">
<path class="gray" d="M6989 10531 c-42 -28 -5484 -5466 -5528 -5525 -32 -44 -29 -112 8
-162 39 -53 3390 -3399 3418 -3413 31 -16 109 -14 141 3 15 8 1268 1256 2784
2773 2501 2502 2757 2762 2764 2796 4 23 -2 117 -15 225 -12 103 -35 300 -51
437 -16 138 -43 369 -59 515 -17 146 -35 297 -41 335 -5 39 -16 138 -25 220
-8 83 -20 182 -25 220 -10 66 -32 262 -100 865 -17 146 -35 277 -41 293 -13
31 -73 87 -94 87 -8 0 -67 7 -132 15 -65 9 -136 18 -158 21 -47 5 -410 47
-650 74 -172 20 -416 48 -800 95 -115 13 -293 34 -395 45 -102 11 -196 23
-210 25 -14 3 -128 16 -255 30 -126 14 -281 32 -343 40 -146 19 -141 20 -193
-14z m396 -301 c83 -10 218 -26 300 -35 83 -9 197 -22 255 -30 58 -8 152 -19
210 -25 58 -6 195 -22 305 -35 110 -14 281 -34 380 -45 174 -20 465 -54 899
-104 115 -14 212 -28 216 -33 4 -4 13 -53 19 -108 6 -55 25 -219 41 -365 17
-146 32 -278 35 -295 3 -16 19 -149 36 -295 16 -146 43 -380 59 -520 17 -140
41 -354 55 -475 14 -121 36 -310 50 -420 13 -110 27 -235 31 -279 l7 -78
-2659 -2659 c-1463 -1463 -2663 -2659 -2667 -2659 -5 0 -720 711 -1588 1580
l-1580 1581 2663 2664 2663 2665 60 -6 c33 -3 128 -14 210 -24z"/>
<path class="gray" d="M8639 9565 c-351 -79 -609 -380 -627 -732 -12 -243 69 -455 241 -623
111 -110 238 -176 404 -209 127 -26 179 -26 306 0 312 63 551 293 622 599 22
96 23 261 1 359 -60 271 -257 489 -526 581 -84 29 -110 33 -225 36 -90 3 -150
-1 -196 -11z m344 -304 c141 -55 248 -162 303 -302 26 -66 29 -86 28 -179 -1
-116 -21 -182 -85 -281 -69 -108 -208 -197 -346 -221 -231 -39 -480 111 -557
337 -27 77 -32 209 -11 294 41 168 180 313 350 363 85 25 238 20 318 -11z"/>

<path d="M6989 10531 c-42 -28 -5484 -5466 -5528 -5525 -32 -44 -29 -112 8
-162 39 -53 3390 -3399 3418 -3413 31 -16 109 -14 141 3 15 8 1268 1256 2784
2773 2501 2502 2757 2762 2764 2796 4 23 -2 117 -15 225 -12 103 -35 300 -51
437 -16 138 -43 369 -59 515 -17 146 -35 297 -41 335 -5 39 -16 138 -25 220
-8 83 -20 182 -25 220 -10 66 -32 262 -100 865 -17 146 -35 277 -41 293 -13
31 -73 87 -94 87 -8 0 -67 7 -132 15 -65 9 -136 18 -158 21 -47 5 -410 47
-650 74 -172 20 -416 48 -800 95 -115 13 -293 34 -395 45 -102 11 -196 23
-210 25 -14 3 -128 16 -255 30 -126 14 -281 32 -343 40 -146 19 -141 20 -193
-14z m396 -301 c83 -10 218 -26 300 -35 83 -9 197 -22 255 -30 58 -8 152 -19
210 -25 58 -6 195 -22 305 -35 110 -14 281 -34 380 -45 174 -20 465 -54 899
-104 115 -14 212 -28 216 -33 4 -4 13 -53 19 -108 6 -55 25 -219 41 -365 17
-146 32 -278 35 -295 3 -16 19 -149 36 -295 16 -146 43 -380 59 -520 17 -140
41 -354 55 -475 14 -121 36 -310 50 -420 13 -110 27 -235 31 -279 l7 -78
-2659 -2659 c-1463 -1463 -2663 -2659 -2667 -2659 -5 0 -720 711 -1588 1580
l-1580 1581 2663 2664 2663 2665 60 -6 c33 -3 128 -14 210 -24z"/>
<path d="M8639 9565 c-351 -79 -609 -380 -627 -732 -12 -243 69 -455 241 -623
111 -110 238 -176 404 -209 127 -26 179 -26 306 0 312 63 551 293 622 599 22
96 23 261 1 359 -60 271 -257 489 -526 581 -84 29 -110 33 -225 36 -90 3 -150
-1 -196 -11z m344 -304 c141 -55 248 -162 303 -302 26 -66 29 -86 28 -179 -1
-116 -21 -182 -85 -281 -69 -108 -208 -197 -346 -221 -231 -39 -480 111 -557
337 -27 77 -32 209 -11 294 41 168 180 313 350 363 85 25 238 20 318 -11z"/>
</g>
</svg>
