<svg width="16" height="16" viewBox="0 0 16 16" fill="none" xmlns="http://www.w3.org/2000/svg">
    <path d="M5 2L11 2L11 8.57911L9.69629 10.6071L9.33414 13.2369C9.30409 13.4484 9.2019 13.6417 9.04612 13.7817C8.89033 13.9218 8.69129 13.9992 8.48514 14L8.42857 14C8.08768 13.9996 7.76085 13.8591 7.51981 13.6091C7.27877 13.3591 7.1432 13.0202 7.14286 12.6667L7.14286 10L3.71429 10C3.2598 9.99941 2.8241 9.81192 2.50273 9.47865C2.18136 9.14538 2.00057 8.69354 2 8.22222L2 5.11111C2.00091 4.28628 2.31727 3.49551 2.87968 2.91226C3.44209 2.32902 4.20463 2.00094 5 2Z" stroke="#1D9089"/>
    <path d="M14 8C14 8.55228 13.5523 9 13 9L11 9L11 2L13 2C13.5523 2 14 2.44772 14 3L14 8Z" stroke="#1D9089"/>
</svg>
