<svg width="24" height="24" viewBox="0 0 24 24" fill="none" xmlns="http://www.w3.org/2000/svg">
<path d="M7.5 3L16.5 3L16.5 12.8687L14.5444 15.9107L14.0012 19.8553C13.9561 20.1726 13.8028 20.4626 13.5692 20.6726C13.3355 20.8826 13.0369 20.9988 12.7277 21L12.6429 21C12.1315 20.9995 11.6413 20.7886 11.2797 20.4136C10.9181 20.0387 10.7148 19.5303 10.7143 19L10.7143 15L5.57143 15C4.8897 14.9991 4.23615 14.7179 3.75409 14.218C3.27204 13.7181 3.00085 13.0403 3 12.3333L3 7.66667C3.00136 6.42942 3.4759 5.24326 4.31952 4.3684C5.16314 3.49353 6.30694 3.00141 7.5 3Z" stroke="#788492"/>
<path d="M21 12.5C21 13.0523 20.5523 13.5 20 13.5L16.5 13.5L16.5 3L20 3C20.5523 3 21 3.44772 21 4L21 12.5Z" stroke="#788492"/>
</svg>
