<svg width="24" height="24" viewBox="0 0 24 24" fill="none" xmlns="http://www.w3.org/2000/svg">
<path d="M16.5 21H7.5V11.1313L9.45557 8.08933L9.99879 4.14467C10.0439 3.82741 10.1972 3.53744 10.4308 3.3274C10.6645 3.11737 10.9631 3.0012 11.2723 3H11.3571C11.8685 3.00053 12.3587 3.21141 12.7203 3.58637C13.0819 3.96133 13.2852 4.46973 13.2857 5V9H18.4286C19.1103 9.00088 19.7639 9.28212 20.2459 9.78202C20.728 10.2819 20.9991 10.9597 21 11.6667V16.3333C20.9986 17.5706 20.5241 18.7567 19.6805 19.6316C18.8369 20.5065 17.6931 20.9986 16.5 21Z" stroke="#788492"/>
<path d="M3 11.5C3 10.9477 3.44772 10.5 4 10.5H7.5V21H4C3.44772 21 3 20.5523 3 20V11.5Z" stroke="#788492"/>
</svg>
