<?xml version="1.0" encoding="utf-8"?>
<!-- Generator: Adobe Illustrator 25.0.0, SVG Export Plug-In . SVG Version: 6.00 Build 0)  -->
<svg version="1.1" id="Layer_1" xmlns="http://www.w3.org/2000/svg" xmlns:xlink="http://www.w3.org/1999/xlink" x="0px" y="0px"
	 viewBox="0 0 640 640" style="enable-background:new 0 0 640 640;" xml:space="preserve">
<style type="text/css">
	.st0{fill:#FFFF00;}
	.st1{fill:#FFA500;}
</style>
<path class="st0" d="M465,274c0-7.8-0.6-15.5-1.8-23c3.2-0.3,6.5-0.5,9.8-0.5h68.9c54.2,0,98.1,41.2,98.1,92
	c0,10.2-8.8,18.4-19.6,18.4H437.3C455.2,336.7,465.5,306.6,465,274z"/>
<path class="st0" d="M176,274c0-7.8,0.6-15.5,1.8-23c-3.2-0.3-6.5-0.5-9.8-0.5H99.1c-54.2,0-98.1,41.2-98.1,92
	C1,352.8,9.8,361,20.6,361h183.1C185.8,336.7,175.5,306.6,176,274z"/>
<circle class="st0" cx="512.5" cy="138" r="80"/>
<circle class="st0" cx="128.5" cy="138" r="80"/>
<path class="st1" d="M320.4,378c57.4,0,103.1-46.6,103.1-104S377,170,320.4,170c-57.4,0-103.1,46.6-103.1,104
	C216.4,331.4,263,378,320.4,378z"/>
<path class="st1" d="M370.4,410h-99.8c-78.5,0-142.1,59.7-142.1,133.3c0,14.8,12.7,26.7,28.4,26.7h327.2c15.7,0,28.4-11.9,28.4-26.7
	C512.5,469.7,448.9,410,370.4,410z"/>
<g id="Layer_1_1_">
	<path class="gray" d="M556.5,250H480c-6,0-12,0.7-17.8,2.1c-4.3,1-7,5.3-5.9,9.6c1,4.3,5.3,7.1,9.6,6c4.7-1.1,9.5-1.7,14.2-1.7h76.5
		c37.2,0,67.5,32.3,67.5,72c0,4.4-3.2,8-7.1,8H448c-4.4,0-8,3.6-8,8s3.6,8,8,8h168.9c12.7,0,23.1-10.8,23.1-24
		C640,289.5,602.5,250,556.5,250z M512,218c44.2,0,80-35.8,80-80s-35.8-80-80-80s-80,35.8-80,80S467.8,218,512,218z M512,74
		c35.3,0,64,28.7,64,64s-28.7,64-64,64s-64-28.7-64-64S476.7,74,512,74z M128,218c44.2,0,80-35.8,80-80s-35.8-80-80-80
		s-80,35.8-80,80S83.8,218,128,218z M128,74c35.3,0,64,28.7,64,64s-28.7,64-64,64s-64-28.7-64-64S92.7,74,128,74z M200,354
		c0-4.4-3.6-8-8-8H23.1c-3.9,0-7.1-3.6-7.1-8c0-39.7,30.3-72,67.5-72H160c4.7,0,9.5,0.6,14.2,1.7c4.3,1.1,8.6-1.7,9.6-6
		s-1.6-8.6-5.9-9.6c-6.8-1.4-12.8-2.1-17.9-2.1H83.5C37.5,250,0,289.5,0,338c0,13.2,10.4,24,23.1,24H192
		C196.4,362,200,358.4,200,354z M319.9,378c57.4,0,103.1-46.6,103.1-104s-46.5-104-103.1-104c-57.4,0-103.1,46.6-103.1,104
		C215.9,331.4,262.5,378,319.9,378z M319.9,186c48.5,0,88,39.5,88,88s-39.5,88-88,88s-88-39.5-88-88S271.4,186,319.9,186z
		 M369.9,410h-99.8C191.6,410,128,469.7,128,543.3c0,14.8,12.7,26.7,28.4,26.7h327.2c15.7,0,28.4-11.9,28.4-26.7
		C512,469.7,448.4,410,369.9,410z M483.6,554H156.4c-6.8,0-12.4-4.8-12.4-10.7c0-64.7,56.6-117.3,126.1-117.3h99.8
		c69.5,0,126.1,52.6,126.1,117.3C496,549.2,490.4,554,483.6,554z"/>
</g>
</svg>
