<svg width="16" height="16" viewBox="0 0 16 16" fill="none" xmlns="http://www.w3.org/2000/svg">
<path fill-rule="evenodd" clip-rule="evenodd" d="M3 2.00003C3 1.44774 3.44772 1.00003 4 1.00003H10C10.2652 1.00003 10.5196 1.10539 10.7071 1.29292L12.7071 3.29292C12.8946 3.48046 13 3.73481 13 4.00003V14C13 14.5523 12.5523 15 12 15H4C3.44772 15 3 14.5523 3 14V2.00003ZM4 2.00003V14H12V4.00003L10 2.00003H4Z" fill="#1D9089"/>
<path fill-rule="evenodd" clip-rule="evenodd" d="M9.61732 1.07615C9.99099 0.921369 10.4211 1.00692 10.7071 1.29292L12.7071 3.29292C12.9931 3.57892 13.0787 4.00904 12.9239 4.38271C12.7691 4.75639 12.4045 5.00003 12 5.00003H10C9.44772 5.00003 9 4.55231 9 4.00003V2.00003C9 1.59557 9.24364 1.23093 9.61732 1.07615ZM10 2.00003V4.00003H12L10 2.00003Z" fill="#1D9089"/>
<path d="M5 6.50003C5 6.22389 5.22386 6.00003 5.5 6.00003H10.5C10.7761 6.00003 11 6.22389 11 6.50003C11 6.77617 10.7761 7.00003 10.5 7.00003H5.5C5.22386 7.00003 5 6.77617 5 6.50003Z" fill="#1D9089"/>
<path d="M5 8.50003C5 8.22389 5.22386 8.00003 5.5 8.00003H10.5C10.7761 8.00003 11 8.22389 11 8.50003C11 8.77617 10.7761 9.00003 10.5 9.00003H5.5C5.22386 9.00003 5 8.77617 5 8.50003Z" fill="#1D9089"/>
<path d="M5 10.5C5 10.2239 5.22386 10 5.5 10H10.5C10.7761 10 11 10.2239 11 10.5C11 10.7762 10.7761 11 10.5 11H5.5C5.22386 11 5 10.7762 5 10.5Z" fill="#1D9089"/>
<path d="M5 12.5C5 12.2239 5.22386 12 5.5 12H10.5C10.7761 12 11 12.2239 11 12.5C11 12.7762 10.7761 13 10.5 13H5.5C5.22386 13 5 12.7762 5 12.5Z" fill="#1D9089"/>
</svg>
