<svg width="16" height="16" viewBox="0 0 16 16" fill="none" xmlns="http://www.w3.org/2000/svg">
<path fill-rule="evenodd" clip-rule="evenodd" d="M11 4C11 5.65685 9.65685 7 8 7C6.34315 7 5 5.65685 5 4C5 2.34315 6.34315 1 8 1C9.65685 1 11 2.34315 11 4ZM10 4C10 5.10457 9.10457 6 8 6C6.89543 6 6 5.10457 6 4C6 2.89543 6.89543 2 8 2C9.10457 2 10 2.89543 10 4Z" fill="#788492"/>
<path fill-rule="evenodd" clip-rule="evenodd" d="M13 15C13.5523 15 14 14.5523 14 14C14 10.6863 11.3137 8 8 8C4.68629 8 2 10.6863 2 14C2 14.5523 2.44772 15 3 15H13ZM8 9C5.58104 9 3.56329 10.7178 3.10002 13C3.03443 13.3231 3 13.6575 3 14H13C13 13.6575 12.9656 13.3231 12.9 13C12.4367 10.7178 10.419 9 8 9Z" fill="#788492"/>
</svg>
