<svg width="16" height="16" viewBox="0 0 16 16" fill="none" xmlns="http://www.w3.org/2000/svg">
<path d="M11 14H5V7.42089L6.30371 5.39289L6.66586 2.76311C6.69591 2.55161 6.7981 2.35829 6.95388 2.21827C7.10967 2.07824 7.30871 2.0008 7.51486 2H7.57143C7.91232 2.00035 8.23915 2.14094 8.48019 2.39091C8.72123 2.64089 8.8568 2.97982 8.85714 3.33333V6H12.2857C12.7402 6.00059 13.1759 6.18808 13.4973 6.52135C13.8186 6.85462 13.9994 7.30646 14 7.77778V10.8889C13.9991 11.7137 13.6827 12.5045 13.1203 13.0877C12.5579 13.671 11.7954 13.9991 11 14Z" stroke="#1D9089"/>
<path d="M2 8C2 7.44772 2.44772 7 3 7H5V14H3C2.44772 14 2 13.5523 2 13V8Z" stroke="#1D9089"/>
</svg>
