<svg width="16" height="16" viewBox="0 0 16 16" fill="none" xmlns="http://www.w3.org/2000/svg">
<path d="M11.4464 10.8465C11.2512 11.0418 11.2512 11.3583 11.4464 11.5536C11.6417 11.7489 11.9583 11.7489 12.1536 11.5536L15.3494 8.35779C15.4423 8.267 15.5 8.14029 15.5 8.0001C15.5 7.88828 15.4633 7.78504 15.4013 7.70176C15.3868 7.68231 15.3709 7.66383 15.3536 7.6465L12.1536 4.4465C11.9583 4.25123 11.6417 4.25123 11.4464 4.4465C11.2512 4.64176 11.2512 4.95834 11.4464 5.1536L13.7929 7.5001L0.800049 7.5001C0.523907 7.5001 0.300049 7.72396 0.300049 8.0001C0.300049 8.27624 0.523907 8.5001 0.800049 8.5001L13.7928 8.5001L11.4464 10.8465Z" fill="#1D9089"/>
</svg>
