<?xml version="1.0" encoding="utf-8"?>
<!-- Generator: Adobe Illustrator 25.0.0, SVG Export Plug-In . SVG Version: 6.00 Build 0)  -->
<svg version="1.1" id="Layer_1" xmlns="http://www.w3.org/2000/svg" xmlns:xlink="http://www.w3.org/1999/xlink" x="0px" y="0px"
	 viewBox="0 0 700 230" style="enable-background:new 0 0 700 230;" xml:space="preserve">
<style type="text/css">
	.st0{opacity:0.2;}
	.st1{fill:#88CFC1;}
	.st2{fill:#8E9CCE;}
	.st3{fill:#ED7251;}
	.st4{fill:#FDEC58;}
	.st5{fill:#B2DED9;}
	.st6{fill:#FACBCA;}
	.st7{fill:#24B9A2;}
	.st8{fill:#E3D4B5;}
	.st9{fill:#D8806B;}
	.st10{fill:#80C9C2;}
	.st11{fill:#C78E70;}
	.st12{fill:#ED999A;}
	.st13{fill:#FDE939;}
	.st14{fill:#F8BF2C;}
	.st15{fill:#BDD5EB;}
	.st16{fill:#F47F20;}
	.st17{fill:#F5EA14;}
</style>
<g class="st0">
	<polygon class="st1" points="292.1,47.7 282.1,67.7 302.1,67.7 	"/>
	<polygon class="st2" points="388.1,19.7 398.1,-0.3 378.1,-0.3 	"/>
	<circle class="st3" cx="268.1" cy="33.7" r="10"/>
	<polygon class="st4" points="340.1,23.7 330.1,43.7 350.1,43.7 	"/>
	<rect x="354.1" y="23.7" class="st5" width="10" height="20"/>
	<path class="st6" d="M364.1-0.3h-10v20h10c5.5,0,10-4.5,10-10C374.1,4.1,369.6-0.3,364.1-0.3z"/>
	<polygon class="st7" points="340.1,9.7 330.1,-0.3 330.1,19.7 350.1,19.7 350.1,-0.3 	"/>
	<polygon class="st8" points="316.1,-0.3 306.1,19.7 326.1,19.7 	"/>
	<path class="st9" d="M268.1,19.7h10v-20h-10c-5.5,0-10,4.5-10,10S262.6,19.7,268.1,19.7z"/>
	<rect x="330.1" y="47.7" class="st3" width="10" height="20"/>
	<path class="st10" d="M364.1,67.3h10v-20h-10c-5.5,0-10,4.5-10,10S358.6,67.3,364.1,67.3z"/>
	<polygon class="st11" points="378.1,47.3 378.1,67.3 398.1,67.3 	"/>
	<polygon class="st12" points="412.1,57.7 402.1,47.7 402.1,67.7 422.1,67.7 422.1,47.7 	"/>
	<rect x="426.1" y="47.7" class="st13" width="20" height="20"/>
	<polygon class="st2" points="450.1,47.3 450.1,67.3 470.1,67.3 	"/>
	<polygon class="st14" points="316.1,47.3 306.1,47.3 306.1,67.3 326.1,67.3 326.1,57.3 316.1,57.3 	"/>
	<polygon class="st15" points="292.1,19.7 302.1,19.7 302.1,-0.3 282.1,-0.3 282.1,9.7 292.1,9.7 	"/>
	<polygon class="st16" points="484.1,67.7 494.1,67.7 494.1,47.7 474.1,47.7 474.1,57.7 484.1,57.7 	"/>
</g>
<g class="st0">
	<polygon class="st1" points="157.4,34.3 137.4,24.3 137.4,44.3 	"/>
	<polygon class="st2" points="185.4,130.3 205.4,140.3 205.4,120.3 	"/>
	<circle class="st3" cx="171.4" cy="10.3" r="10"/>
	<polygon class="st4" points="181.4,82.3 161.4,72.3 161.4,92.3 	"/>
	<rect x="161.3" y="96.3" class="st5" width="20" height="10"/>
	<path class="st6" d="M205.4,106.3v-10h-20v10c0,5.5,4.5,10,10,10S205.4,111.8,205.4,106.3z"/>
	<polygon class="st7" points="195.4,82.3 205.4,72.3 185.4,72.3 185.4,92.3 205.4,92.3 	"/>
	<polygon class="st8" points="205.4,58.3 185.4,48.3 185.4,68.3 	"/>
	<path class="st9" d="M185.4,10.3v10h20v-10c0-5.5-4.5-10-10-10S185.4,4.7,185.4,10.3z"/>
	<rect x="137.3" y="72.3" class="st3" width="20" height="10"/>
	<path class="st10" d="M137.7,106.3v10h20v-10c0-5.5-4.5-10-10-10S137.7,100.7,137.7,106.3z"/>
	<polygon class="st11" points="157.7,120.3 137.7,120.3 137.7,140.3 	"/>
	<polygon class="st12" points="147.4,154.3 157.4,144.3 137.4,144.3 137.4,164.3 157.4,164.3 	"/>
	<rect x="137.3" y="168.3" class="st17" width="20" height="20"/>
	<polygon class="st2" points="157.7,192.3 137.7,192.3 137.7,212.3 	"/>
	<polygon class="st14" points="157.7,58.3 157.7,48.3 137.7,48.3 137.7,68.3 147.7,68.3 147.7,58.3 	"/>
	<polygon class="st15" points="185.4,34.3 185.4,44.3 205.4,44.3 205.4,24.3 195.4,24.3 195.4,34.3 	"/>
</g>
<g class="st0">
	<polygon class="st1" points="411.4,91.9 421.4,71.9 401.4,71.9 	"/>
	<polygon class="st2" points="315.4,119.9 305.4,139.9 325.4,139.9 	"/>
	<circle class="st3" cx="435.4" cy="105.9" r="10"/>
	<polygon class="st4" points="363.4,115.9 373.4,95.9 353.4,95.9 	"/>
	<rect x="339.3" y="96" class="st5" width="10" height="20"/>
	<path class="st6" d="M339.4,139.9h10v-20h-10c-5.5,0-10,4.5-10,10C329.4,135.5,333.8,139.9,339.4,139.9z"/>
	<polygon class="st7" points="363.4,129.9 373.4,139.9 373.4,119.9 353.4,119.9 353.4,139.9 	"/>
	<polygon class="st8" points="387.4,139.9 397.4,119.9 377.4,119.9 	"/>
	<path class="st9" d="M435.4,119.9h-10v20h10c5.5,0,10-4.5,10-10C445.4,124.4,440.9,119.9,435.4,119.9z"/>
	<rect x="363.3" y="72" class="st3" width="10" height="20"/>
	<path class="st10" d="M339.4,72.3h-10v20h10c5.5,0,10-4.5,10-10S344.9,72.3,339.4,72.3z"/>
	<polygon class="st11" points="325.4,92.3 325.4,72.3 305.4,72.3 	"/>
	<polygon class="st12" points="291.4,81.9 301.4,91.9 301.4,71.9 281.4,71.9 281.4,91.9 	"/>
	<rect x="257.3" y="72" class="st17" width="20" height="20"/>
	<polygon class="st2" points="253.4,92.3 253.4,72.3 233.4,72.3 	"/>
	<polygon class="st14" points="387.4,92.3 397.4,92.3 397.4,72.3 377.4,72.3 377.4,82.3 387.4,82.3 	"/>
	<polygon class="st15" points="411.4,119.9 401.4,119.9 401.4,139.9 421.4,139.9 421.4,129.9 411.4,129.9 	"/>
	<polygon class="st16" points="219.4,71.9 209.4,71.9 209.4,91.9 229.4,91.9 229.4,81.9 219.4,81.9 	"/>
</g>
<g class="st0">
	<polygon class="st1" points="497.4,177.9 517.4,187.9 517.4,167.9 	"/>
	<polygon class="st2" points="469.4,81.9 449.4,71.9 449.4,91.9 	"/>
	<circle class="st3" cx="483.4" cy="201.9" r="10"/>
	<polygon class="st4" points="473.4,129.9 493.4,139.9 493.4,119.9 	"/>
	<rect x="473.3" y="105.9" class="st5" width="20" height="10"/>
	<path class="st6" d="M449.4,105.9v10h20v-10c0-5.5-4.5-10-10-10C453.8,95.9,449.4,100.4,449.4,105.9z"/>
	<polygon class="st7" points="459.4,129.9 449.4,139.9 469.4,139.9 469.4,119.9 449.4,119.9 	"/>
	<polygon class="st8" points="449.4,153.9 469.4,163.9 469.4,143.9 	"/>
	<path class="st9" d="M469.4,201.9v-10h-20v10c0,5.5,4.5,10,10,10S469.4,207.5,469.4,201.9z"/>
	<rect x="497.3" y="129.9" class="st3" width="20" height="10"/>
	<path class="st10" d="M517,105.9v-10h-20v10c0,5.5,4.5,10,10,10S517,111.5,517,105.9z"/>
	<polygon class="st11" points="497,91.9 517,91.9 517,71.9 	"/>
	<polygon class="st12" points="507.4,57.9 497.4,67.9 517.4,67.9 517.4,47.9 497.4,47.9 	"/>
	<rect x="497.3" y="23.9" class="st17" width="20" height="20"/>
	<polygon class="st2" points="497,19.9 517,19.9 517,-0.1 	"/>
	<polygon class="st14" points="497,153.9 497,163.9 517,163.9 517,143.9 507,143.9 507,153.9 	"/>
	<polygon class="st15" points="469.4,177.9 469.4,167.9 449.4,167.9 449.4,187.9 459.4,187.9 459.4,177.9 	"/>
</g>
<g class="st0">
	<polygon class="st1" points="89.4,154.7 109.4,164.7 109.4,144.7 	"/>
	<polygon class="st2" points="61.4,58.7 41.4,48.7 41.4,68.7 	"/>
	<polygon class="st4" points="65.4,106.7 85.4,116.7 85.4,96.7 	"/>
	<rect x="65.4" y="82.6" class="st5" width="20" height="10"/>
	<path class="st6" d="M41.4,82.7v10h20v-10c0-5.5-4.5-10-10-10C45.8,72.7,41.4,77.2,41.4,82.7z"/>
	<polygon class="st7" points="51.4,106.7 41.4,116.7 61.4,116.7 61.4,96.7 41.4,96.7 	"/>
	<polygon class="st8" points="41.4,130.7 61.4,140.7 61.4,120.7 	"/>
	<rect x="89.4" y="106.6" class="st3" width="20" height="10"/>
	<path class="st10" d="M109,82.7v-10H89v10c0,5.5,4.5,10,10,10S109,88.2,109,82.7z"/>
	<polygon class="st11" points="89,68.7 109,68.7 109,48.7 	"/>
	<polygon class="st12" points="99.4,34.7 89.4,44.7 109.4,44.7 109.4,24.7 89.4,24.7 	"/>
	<rect x="89.4" y="0.6" class="st17" width="20" height="20"/>
	<polygon class="st14" points="89,130.7 89,140.7 109,140.7 109,120.7 99,120.7 99,130.7 	"/>
	<polygon class="st15" points="61.4,154.7 61.4,144.7 41.4,144.7 41.4,164.7 51.4,164.7 51.4,154.7 	"/>
</g>
<g class="st0">
	<polygon class="st1" points="219.4,43.9 229.4,23.9 209.4,23.9 	"/>
	<polygon class="st2" points="123.4,71.9 113.4,91.9 133.4,91.9 	"/>
	<circle class="st3" cx="243.4" cy="57.9" r="10"/>
	<polygon class="st4" points="171.4,67.9 181.4,47.9 161.4,47.9 	"/>
	<rect x="147.3" y="48" class="st5" width="10" height="20"/>
	<path class="st6" d="M147.4,91.9h10v-20h-10c-5.5,0-10,4.5-10,10C137.4,87.5,141.8,91.9,147.4,91.9z"/>
	<polygon class="st7" points="171.4,81.9 181.4,91.9 181.4,71.9 161.4,71.9 161.4,91.9 	"/>
	<polygon class="st8" points="195.4,91.9 205.4,71.9 185.4,71.9 	"/>
	<path class="st9" d="M243.4,71.9h-10v20h10c5.5,0,10-4.5,10-10S248.9,71.9,243.4,71.9z"/>
	<rect x="171.3" y="24" class="st3" width="10" height="20"/>
	<path class="st10" d="M147.4,24.3h-10v20h10c5.5,0,10-4.5,10-10S152.9,24.3,147.4,24.3z"/>
	<polygon class="st11" points="133.4,44.3 133.4,24.3 113.4,24.3 	"/>
	<polygon class="st12" points="99.4,33.9 109.4,43.9 109.4,23.9 89.4,23.9 89.4,43.9 	"/>
	<rect x="65.3" y="24" class="st17" width="20" height="20"/>
	<polygon class="st2" points="61.4,44.3 61.4,24.3 41.4,24.3 	"/>
	<polygon class="st14" points="195.4,44.3 205.4,44.3 205.4,24.3 185.4,24.3 185.4,34.3 195.4,34.3 	"/>
	<polygon class="st15" points="219.4,71.9 209.4,71.9 209.4,91.9 229.4,91.9 229.4,81.9 219.4,81.9 	"/>
	<polygon class="st16" points="27.4,23.9 17.4,23.9 17.4,43.9 37.4,43.9 37.4,33.9 27.4,33.9 	"/>
</g>
<g class="st0">
	<polygon class="st1" points="627.4,19.9 637.4,-0.1 617.4,-0.1 	"/>
	<polygon class="st2" points="531.4,47.9 521.4,67.9 541.4,67.9 	"/>
	<circle class="st3" cx="651.4" cy="33.9" r="10"/>
	<polygon class="st4" points="579.4,43.9 589.4,23.9 569.4,23.9 	"/>
	<rect x="555.3" y="24" class="st5" width="10" height="20"/>
	<path class="st6" d="M555.4,67.9h10v-20h-10c-5.5,0-10,4.5-10,10C545.4,63.5,549.8,67.9,555.4,67.9z"/>
	<polygon class="st7" points="579.4,57.9 589.4,67.9 589.4,47.9 569.4,47.9 569.4,67.9 	"/>
	<polygon class="st8" points="603.4,67.9 613.4,47.9 593.4,47.9 	"/>
	<path class="st9" d="M651.4,47.9h-10v20h10c5.5,0,10-4.5,10-10S656.9,47.9,651.4,47.9z"/>
	<rect x="579.3" y="0" class="st3" width="10" height="20"/>
	<path class="st10" d="M555.4,0.3h-10v20h10c5.5,0,10-4.5,10-10S560.9,0.3,555.4,0.3z"/>
	<polygon class="st11" points="541.4,20.3 541.4,0.3 521.4,0.3 	"/>
	<polygon class="st12" points="507.4,9.9 517.4,19.9 517.4,-0.1 497.4,-0.1 497.4,19.9 	"/>
	<rect x="473.3" y="0" class="st17" width="20" height="20"/>
	<polygon class="st2" points="469.4,20.3 469.4,0.3 449.4,0.3 	"/>
	<polygon class="st14" points="603.4,20.3 613.4,20.3 613.4,0.3 593.4,0.3 593.4,10.3 603.4,10.3 	"/>
	<polygon class="st15" points="627.4,47.9 617.4,47.9 617.4,67.9 637.4,67.9 637.4,57.9 627.4,57.9 	"/>
	<polygon class="st16" points="435.4,-0.1 425.4,-0.1 425.4,19.9 445.4,19.9 445.4,9.9 435.4,9.9 	"/>
</g>
<g class="st0">
	<polygon class="st1" points="507.4,119.9 497.4,139.9 517.4,139.9 	"/>
	<polygon class="st2" points="603.4,91.9 613.4,71.9 593.4,71.9 	"/>
	<circle class="st3" cx="483.4" cy="105.9" r="10"/>
	<polygon class="st4" points="555.4,95.9 545.4,115.9 565.4,115.9 	"/>
	<rect x="569.4" y="95.9" class="st5" width="10" height="20"/>
	<path class="st6" d="M579.4,71.9h-10v20h10c5.5,0,10-4.5,10-10S584.9,71.9,579.4,71.9z"/>
	<polygon class="st7" points="555.4,81.9 545.4,71.9 545.4,91.9 565.4,91.9 565.4,71.9 	"/>
	<polygon class="st8" points="531.4,71.9 521.4,91.9 541.4,91.9 	"/>
	<path class="st9" d="M483.4,91.9h10v-20h-10c-5.5,0-10,4.5-10,10S477.8,91.9,483.4,91.9z"/>
	<rect x="545.4" y="119.9" class="st3" width="10" height="20"/>
	<path class="st10" d="M579.4,139.6h10v-20h-10c-5.5,0-10,4.5-10,10S573.8,139.6,579.4,139.6z"/>
	<polygon class="st11" points="593.4,119.6 593.4,139.6 613.4,139.6 	"/>
	<polygon class="st12" points="627.4,129.9 617.4,119.9 617.4,139.9 637.4,139.9 637.4,119.9 	"/>
	<rect x="641.4" y="119.9" class="st17" width="20" height="20"/>
	<polygon class="st2" points="665.4,119.6 665.4,139.6 685.4,139.6 	"/>
	<polygon class="st14" points="531.4,119.6 521.4,119.6 521.4,139.6 541.4,139.6 541.4,129.6 531.4,129.6 	"/>
	<polygon class="st15" points="507.4,91.9 517.4,91.9 517.4,71.9 497.4,71.9 497.4,81.9 507.4,81.9 	"/>
</g>
<g class="st0">
	<polygon class="st2" points="593.4,81.9 613.4,91.9 613.4,71.9 	"/>
	<polygon class="st4" points="589.4,33.9 569.4,23.9 569.4,43.9 	"/>
	<rect x="569.4" y="48" class="st5" width="20" height="10"/>
	<path class="st6" d="M613.4,57.9v-10h-20v10c0,5.5,4.5,10,10,10S613.4,63.5,613.4,57.9z"/>
	<polygon class="st7" points="603.4,33.9 613.4,23.9 593.4,23.9 593.4,43.9 613.4,43.9 	"/>
	<polygon class="st8" points="613.4,9.9 593.4,-0.1 593.4,19.9 	"/>
	<rect x="545.4" y="24" class="st3" width="20" height="10"/>
	<path class="st10" d="M545.7,57.9v10h20v-10c0-5.5-4.5-10-10-10S545.7,52.4,545.7,57.9z"/>
	<polygon class="st11" points="565.7,71.9 545.7,71.9 545.7,91.9 	"/>
	<polygon class="st12" points="555.4,105.9 565.4,95.9 545.4,95.9 545.4,115.9 565.4,115.9 	"/>
	<rect x="545.4" y="120" class="st17" width="20" height="20"/>
	<polygon class="st2" points="565.7,143.9 545.7,143.9 545.7,163.9 	"/>
	<polygon class="st14" points="565.7,9.9 565.7,-0.1 545.7,-0.1 545.7,19.9 555.7,19.9 555.7,9.9 	"/>
	<polygon class="st16" points="545.4,177.9 545.4,187.9 565.4,187.9 565.4,167.9 555.4,167.9 555.4,177.9 	"/>
</g>
</svg>
