<svg width="24" height="24" viewBox="0 0 24 24" fill="none" xmlns="http://www.w3.org/2000/svg">
<path d="M19.0836 6.12668C19.1327 5.93921 19.069 5.74024 18.9202 5.61609C18.7714 5.49193 18.5643 5.46494 18.3886 5.54683L5.18863 11.7007C5.01988 11.7793 4.90882 11.9453 4.90041 12.1313C4.89201 12.3173 4.98765 12.4925 5.14862 12.5861L7.75992 14.1041L8.69231 17.2202C8.74144 17.3844 8.87122 17.512 9.03622 17.5583C9.20121 17.6046 9.37843 17.5632 9.50581 17.4486L11.0785 16.0331L15.2058 18.4323C15.3408 18.5108 15.5048 18.5217 15.649 18.4617C15.7932 18.4017 15.9012 18.2778 15.9407 18.1267L19.0836 6.12668Z" stroke="white" stroke-linecap="square" stroke-linejoin="round"/>
</svg>
