<svg width="32" height="32" viewBox="0 0 32 32" fill="none" xmlns="http://www.w3.org/2000/svg">
<path d="M6.19526 24.8619C5.93491 25.1223 5.93491 25.5444 6.19526 25.8047C6.45561 26.0651 6.87772 26.0651 7.13807 25.8047L16 16.9428L24.8619 25.8047C25.1223 26.0651 25.5444 26.0651 25.8047 25.8047C26.0651 25.5444 26.0651 25.1223 25.8047 24.8619L16.9428 16L25.8047 7.13807C26.0651 6.87772 26.0651 6.45561 25.8047 6.19526C25.5444 5.93491 25.1223 5.93491 24.8619 6.19526L16 15.0572L7.13807 6.19526C6.87772 5.93491 6.45561 5.93491 6.19526 6.19526C5.93491 6.45561 5.93491 6.87772 6.19526 7.13807L15.0572 16L6.19526 24.8619Z" fill="#788492"/>
</svg>
