<svg width="80" height="80" viewBox="0 0 80 80" fill="none" xmlns="http://www.w3.org/2000/svg">
<path d="M53.5716 39.365C59.6861 39.365 64.643 34.3904 64.643 28.2539C64.643 22.1174 59.6861 17.1428 53.5716 17.1428C47.457 17.1428 42.5001 22.1174 42.5001 28.2539C42.5001 34.3904 47.457 39.365 53.5716 39.365Z" fill="url(#paint0_linear_6778_2794)" style="mix-blend-mode:multiply"/>
<path d="M53.5716 44.9206C42.1999 44.9206 32.8167 53.4059 31.4477 64.3706C31.2576 65.8929 32.5236 67.1428 34.0628 67.1428H73.0803C74.6195 67.1428 75.8855 65.8929 75.6955 64.3706C74.3265 53.4059 64.9432 44.9206 53.5716 44.9206Z" fill="url(#paint1_linear_6778_2794)" style="mix-blend-mode:multiply"/>
<path d="M35.5717 28.2539C35.5717 34.116 30.837 38.865 25.0003 38.865C19.1635 38.865 14.4288 34.116 14.4288 28.2539C14.4288 22.3919 19.1635 17.6428 25.0003 17.6428C30.837 17.6428 35.5717 22.3919 35.5717 28.2539ZM3.37252 64.4325C4.71051 53.7163 13.8827 45.4206 25.0003 45.4206C36.1179 45.4206 45.29 53.7163 46.628 64.4325C46.7754 65.6131 45.793 66.6428 44.509 66.6428H5.49153C4.2076 66.6428 3.22512 65.6131 3.37252 64.4325Z" fill="white" fill-opacity="0.8" stroke="#7AC0BE"/>
<defs>
<linearGradient id="paint0_linear_6778_2794" x1="75.9005" y1="66.8323" x2="21.1875" y2="48.7494" gradientUnits="userSpaceOnUse">
<stop stop-color="#17736E"/>
<stop offset="1" stop-color="#7AC0BE"/>
</linearGradient>
<linearGradient id="paint1_linear_6778_2794" x1="75.9005" y1="66.8323" x2="21.1875" y2="48.7494" gradientUnits="userSpaceOnUse">
<stop stop-color="#17736E"/>
<stop offset="1" stop-color="#7AC0BE"/>
</linearGradient>
</defs>
</svg>
