<svg width="150" height="129" viewBox="0 0 150 129" fill="none" xmlns="http://www.w3.org/2000/svg">
<path d="M145.2 116.6C141.3 116.6 138.2 113.4 138.2 109.6C138.2 105.7 141.4 102.6 145.2 102.6C145.5 102.6 145.7 102.6 146 102.6V94C145.7 94 145.5 94 145.2 94C141.3 94 138.2 90.8 138.2 87C138.2 83.1 141.4 80 145.2 80C145.5 80 145.7 80 146 80V71.5C145.7 71.5 145.5 71.5 145.2 71.5C141.3 71.5 138.2 68.3 138.2 64.5C138.2 60.7 141.4 57.5 145.2 57.5C145.5 57.5 145.7 57.5 146 57.5V49C143.7 49.3 141.4 48.4 139.8 46.5C137.3 43.5 137.7 39.1 140.6 36.6C142.1 35.3 144.1 34.8 145.9 35V26.5C145.6 26.5 145.4 26.5 145.1 26.5C141.2 26.5 138.1 23.3 138.1 19.5C138.1 15.6 141.3 12.5 145.1 12.5C145.4 12.5 145.6 12.5 145.9 12.5V2H137.6C137.6 5.9 134.4 9 130.6 9C126.7 9 123.6 5.8 123.6 2H114.6C114.6 5.9 111.4 9 107.6 9C103.7 9 100.6 5.8 100.6 2H91.6C91.6 5.9 88.4 9 84.6 9C80.7 9 77.6 5.8 77.6 2H68.6C68.6 5.9 65.4 9 61.6 9C57.7 9 54.6 5.8 54.6 2H45.6C45.6 5.9 42.4 9 38.6 9C34.7 9 31.6 5.8 31.6 2H22.6C22.6 5.9 19.4 9 15.6 9C11.8 9 8.6 5.8 8.6 2H0V12.5C3.9 12.5 7 15.7 7 19.5C7 23.4 3.8 26.5 0 26.5V35C2 35 4 35.8 5.4 37.5C7.9 40.5 7.5 44.9 4.6 47.4C3.2 48.5 1.6 49 0 49V57.4C3.9 57.4 7 60.6 7 64.4C7 68.2 3.8 71.4 0 71.4V80C3.9 80 7 83.2 7 87C7 90.9 3.8 94 0 94V102.4C3.9 102.4 7 105.6 7 109.4C7 113.3 3.8 116.4 0 116.4V127H8.3C8.3 123.1 11.5 120 15.3 120C19.1 120 22.3 123.2 22.3 127H31.3C31.3 123.1 34.5 120 38.3 120C42.2 120 45.3 123.2 45.3 127H54.3C54.3 123.1 57.5 120 61.3 120C65.2 120 68.3 123.2 68.3 127H77.3C77.3 123.1 80.5 120 84.3 120C88.2 120 91.3 123.2 91.3 127H100.3C100.3 123.1 103.5 120 107.3 120C111.2 120 114.3 123.2 114.3 127H123.3C123.3 123.1 126.5 120 130.3 120C134.2 120 137.3 123.2 137.3 127H145.6V116.5C145.7 116.5 145.4 116.6 145.2 116.6Z" fill="#E4D4B6"/>
<path d="M150 129H137.7V127C137.7 124.2 135.4 122 132.7 122C129.9 122 127.7 124.3 127.7 127V129H114.7V127C114.7 124.2 112.4 122 109.7 122C106.9 122 104.7 124.3 104.7 127V129H91.7V127C91.7 124.2 89.4 122 86.7 122C83.9 122 81.7 124.3 81.7 127V129H68.7V127C68.7 124.2 66.4 122 63.7 122C60.9 122 58.7 124.3 58.7 127V129H45.7V127C45.7 124.2 43.4 122 40.7 122C37.9 122 35.7 124.3 35.7 127V129H22.7V127C22.7 124.2 20.4 122 17.7 122C14.9 122 12.7 124.3 12.7 127V129H0V114.5H2C4.8 114.5 7 112.2 7 109.5C7 106.7 4.7 104.5 2 104.5H0V92H2C4.8 92 7 89.7 7 87C7 84.2 4.7 82 2 82H0V69.5H2C4.8 69.5 7 67.2 7 64.5C7 61.7 4.7 59.5 2 59.5H0V47H2C3.2 47 4.3 46.6 5.2 45.8C6.2 44.9 6.9 43.7 7 42.4C7.1 41.1 6.7 39.8 5.8 38.7C4.9 37.6 3.5 37 2 37H0V24.5H2C4.8 24.5 7 22.2 7 19.5C7 16.7 4.7 14.5 2 14.5H0V0H12.3V2C12.3 4.8 14.6 7 17.3 7C20.1 7 22.3 4.7 22.3 2V0H35.3V2C35.3 4.8 37.6 7 40.3 7C43.1 7 45.3 4.7 45.3 2V0H58.3V2C58.3 4.8 60.6 7 63.3 7C66.1 7 68.3 4.7 68.3 2V0H81.3V2C81.3 4.8 83.6 7 86.3 7C89.1 7 91.3 4.7 91.3 2V0H104.3V2C104.3 4.8 106.6 7 109.3 7C112.1 7 114.3 4.7 114.3 2V0H127.3V2C127.3 4.8 129.6 7 132.3 7C135.1 7 137.3 4.7 137.3 2V0H150V14.8L147.8 14.5C147.6 14.5 147.4 14.5 147.2 14.5C144.4 14.5 142.2 16.8 142.2 19.5C142.2 22.3 144.5 24.5 147.2 24.5C147.4 24.5 147.6 24.5 147.8 24.5L150 24.2V37.2L147.8 36.9C146.4 36.7 145.1 37.1 144 38C143 38.9 142.3 40.1 142.2 41.4C142.1 42.7 142.5 44 143.4 45.1C144.5 46.4 146.1 47 147.8 46.9L150 46.6V59.6L147.8 59.3C147.6 59.3 147.4 59.3 147.2 59.3C144.4 59.3 142.2 61.6 142.2 64.3C142.2 67.1 144.5 69.3 147.2 69.3C147.4 69.3 147.6 69.3 147.8 69.3L150 69V82L147.8 81.7C147.6 81.7 147.4 81.7 147.2 81.7C144.4 81.7 142.2 84 142.2 86.7C142.2 89.5 144.5 91.7 147.2 91.7C147.4 91.7 147.6 91.7 147.8 91.7L150 91.4V104.4L147.8 104.1C147.6 104.1 147.4 104.1 147.2 104.1C144.4 104.1 142.2 106.4 142.2 109.1C142.2 111.9 144.5 114.1 147.2 114.1C147.4 114.1 147.6 114.1 147.8 114.1L150 113.8V129V129ZM141.5 125H146V118.5C141.6 117.9 138.2 114.1 138.2 109.5C138.2 104.9 141.6 101.1 146 100.5V96C141.6 95.4 138.2 91.6 138.2 87C138.2 82.4 141.6 78.6 146 78V73.4C141.6 72.8 138.2 69 138.2 64.4C138.2 59.8 141.6 56 146 55.4V51C143.8 50.7 141.8 49.6 140.3 47.9C138.7 46.1 138 43.7 138.2 41.3C138.4 38.9 139.5 36.7 141.4 35.1C142.7 34 144.3 33.3 146 33.1V28.5C141.6 27.9 138.2 24.1 138.2 19.5C138.2 14.9 141.6 11.1 146 10.5V4H141.5C140.6 8 137 11 132.7 11C128.4 11 124.8 8 123.9 4H118.5C117.6 8 114 11 109.7 11C105.4 11 101.8 8 100.9 4H95.5C94.6 8 91 11 86.7 11C82.4 11 78.8 8 77.9 4H72.5C71.6 8 68 11 63.7 11C59.4 11 55.8 8 54.9 4H49.5C48.6 8 45 11 40.7 11C36.4 11 32.8 8 31.9 4H26.5C25.6 8 22 11 17.7 11C13.4 11 9.8 8 8.9 4H4V10.7C8 11.6 11 15.2 11 19.5C11 23.8 8 27.4 4 28.3V33.2C5.9 33.6 7.6 34.7 8.9 36.2C10.5 38 11.2 40.4 11 42.8C10.8 45.2 9.7 47.4 7.8 49C6.7 49.9 5.4 50.6 4 50.9V55.8C8 56.7 11 60.3 11 64.6C11 68.9 8 72.5 4 73.4V78.3C8 79.2 11 82.8 11 87.1C11 91.4 8 95 4 95.9V100.8C8 101.7 11 105.3 11 109.6C11 113.9 8 117.5 4 118.4V125.1H8.5C9.4 121.1 13 118.1 17.3 118.1C21.6 118.1 25.2 121.1 26.1 125.1H31.5C32.4 121.1 36 118.1 40.3 118.1C44.6 118.1 48.2 121.1 49.1 125.1H54.5C55.4 121.1 59 118.1 63.3 118.1C67.6 118.1 71.2 121.1 72.1 125.1H77.5C78.4 121.1 82 118.1 86.3 118.1C90.6 118.1 94.2 121.1 95.1 125.1H100.5C101.4 121.1 105 118.1 109.3 118.1C113.6 118.1 117.2 121.1 118.1 125.1H123.5C124.4 121.1 128 118.1 132.3 118.1C136.6 118.1 140.6 121 141.5 125Z" fill="#C99071"/>
<path d="M129.5 20.2H19.7V110.1H129.5V20.2Z" fill="#D9816B"/>
<path d="M27.5 33.8C27.4 35.1 27.4 36.5 27.4 37.8C27.4 69.6 48.6 95.5 74.8 95.5C101 95.5 122.2 69.7 122.2 37.8C122.2 36.5 122.2 35.1 122.1 33.8H27.5Z" fill="#BED5EC"/>
<path d="M78.9 67.6L73.4 51.1L61.5 68.7L78.9 67.6Z" fill="#8F9DD1"/>
<path d="M31.3 53.8C41.683 53.8 50.1 45.383 50.1 35C50.1 24.617 41.683 16.2 31.3 16.2C20.917 16.2 12.5 24.617 12.5 35C12.5 45.383 20.917 53.8 31.3 53.8Z" fill="white"/>
<path d="M34 47.9C41.3454 47.9 47.3 41.9454 47.3 34.6C47.3 27.2546 41.3454 21.3 34 21.3C26.6546 21.3 20.7 27.2546 20.7 34.6C20.7 41.9454 26.6546 47.9 34 47.9Z" fill="#402A32"/>
<path d="M117.8 54C128.183 54 136.6 45.583 136.6 35.2C136.6 24.817 128.183 16.4 117.8 16.4C107.417 16.4 99 24.817 99 35.2C99 45.583 107.417 54 117.8 54Z" fill="white"/>
<path d="M115.4 50.1C122.745 50.1 128.7 44.1454 128.7 36.8C128.7 29.4546 122.745 23.5 115.4 23.5C108.055 23.5 102.1 29.4546 102.1 36.8C102.1 44.1454 108.055 50.1 115.4 50.1Z" fill="#402A32"/>
<path d="M23.5 14.1C21.8 14.1 20.2 13 19.6 11.2C19 9.1 20.2 6.8 22.3 6.2C35.1 2.4 40.5 2.1 47.4 4.5C49.5 5.2 50.6 7.5 49.9 9.6C49.2 11.7 46.9 12.8 44.8 12.1C40 10.4 36.5 10.5 24.6 13.9C24.3 14.1 23.9 14.1 23.5 14.1Z" fill="#402A32"/>
<path d="M135.9 18.5C134.8 18.5 133.8 18.1 133 17.2C129.5 13.5 126.3 11.9 114.2 9.6C112 9.2 110.6 7.1 111 4.9C111.4 2.7 113.5 1.3 115.7 1.7C128.8 4.2 133.8 6.4 138.8 11.7C140.3 13.3 140.3 15.9 138.6 17.4C137.9 18.1 136.9 18.5 135.9 18.5Z" fill="#402A32"/>
<path d="M73.9 99.5C70.1 99.5 66.4 98.9 63.1 97.5C61 96.7 60 94.3 60.9 92.3C61.7 90.2 64.1 89.2 66.1 90.1C72.5 92.7 81.5 91.6 89.2 87.3C95.9 83.6 100.4 78 101.5 72.1C101.6 71.5 101.7 70.9 101.8 70.2C102.1 68 104.1 66.4 106.3 66.7C108.5 67 110.1 69 109.8 71.2C109.7 72 109.6 72.8 109.5 73.5C108 81.8 102.1 89.4 93.2 94.3C87 97.7 80.2 99.5 73.9 99.5Z" fill="#402A32"/>
</svg>
